<svg xmlns="http://www.w3.org/2000/svg" xmlns:xlink="http://www.w3.org/1999/xlink" width="64" height="64" viewBox="0 0 64 64">
  <defs>
    <clipPath id="clip-path">
      <rect id="Rect치ngulo_403678" data-name="Rect치ngulo 403678" width="44" height="39.671" fill="none"/>
    </clipPath>
  </defs>
  <g id="Grupo_1101904" data-name="Grupo 1101904" transform="translate(-532 -7149)">
    <circle id="Elipse_11532" data-name="Elipse 11532" cx="32" cy="32" r="32" transform="translate(532 7149)" fill="#f7eefe"/>
    <g id="Grupo_1101891" data-name="Grupo 1101891" transform="translate(542 7161)">
      <g id="Grupo_1101890" data-name="Grupo 1101890" clip-path="url(#clip-path)">
        <path id="Trazado_887771" data-name="Trazado 887771" d="M63.757,109.229H30.737a.7.7,0,0,0-.7.7v5.67a.7.7,0,0,0,.7.7h33.02a.7.7,0,0,0,.7-.7v-5.67a.7.7,0,0,0-.7-.7m-.7,5.67H31.435v-4.273H63.058Z" transform="translate(-26.369 -95.887)" fill="#373d47"/>
        <path id="Trazado_887772" data-name="Trazado 887772" d="M245.492,191.972a2.867,2.867,0,1,0,2.866,2.867,2.87,2.87,0,0,0-2.866-2.867m0,4.336a1.469,1.469,0,1,1,1.469-1.469,1.471,1.471,0,0,1-1.469,1.469" transform="translate(-212.99 -168.524)" fill="#373d47"/>
        <path id="Trazado_887773" data-name="Trazado 887773" d="M245.492,243.145a2.867,2.867,0,1,0,2.866,2.867,2.87,2.87,0,0,0-2.866-2.867m0,4.336a1.469,1.469,0,1,1,1.469-1.469,1.471,1.471,0,0,1-1.469,1.469" transform="translate(-212.99 -213.446)" fill="#373d47"/>
        <path id="Trazado_887774" data-name="Trazado 887774" d="M54.764,170.9a8.175,8.175,0,1,0,8.175,8.175,8.185,8.185,0,0,0-8.175-8.175m0,14.954a6.778,6.778,0,1,1,6.778-6.778,6.786,6.786,0,0,1-6.778,6.778" transform="translate(-40.898 -150.024)" fill="#373d47"/>
        <path id="Trazado_887775" data-name="Trazado 887775" d="M94.318,215.955a2.672,2.672,0,1,0,2.672,2.672,2.675,2.675,0,0,0-2.672-2.672m0,3.947a1.275,1.275,0,1,1,1.275-1.275,1.276,1.276,0,0,1-1.275,1.275" transform="translate(-80.452 -189.577)" fill="#373d47"/>
        <path id="Trazado_887776" data-name="Trazado 887776" d="M42.3,15.259h-.545V11.788a2.035,2.035,0,0,0-2.033-2.033H9.938L39.324,1.37A.7.7,0,1,0,38.94.026L4.847,9.755H2.033A2.035,2.035,0,0,0,0,11.788V37.637A2.035,2.035,0,0,0,2.033,39.67h37.69a2.035,2.035,0,0,0,2.033-2.033V26.718H42.3a1.7,1.7,0,0,0,1.7-1.7V16.958a1.7,1.7,0,0,0-1.7-1.7M40.358,37.637a.636.636,0,0,1-.636.636H2.033a.636.636,0,0,1-.636-.636V11.788a.636.636,0,0,1,.636-.636h37.69a.636.636,0,0,1,.636.636V37.637ZM42.6,25.019a.3.3,0,0,1-.3.3h-.545V16.656H42.3a.3.3,0,0,1,.3.3Z" transform="translate(0 0.001)" fill="#373d47"/>
        <path id="Trazado_887777" data-name="Trazado 887777" d="M342.708,136.668v8.06a.3.3,0,0,1-.3.3h-.545v-8.664h.545a.3.3,0,0,1,.3.3" transform="translate(-300.105 -119.71)" fill="#4dc3c4"/>
        <path id="Trazado_887778" data-name="Trazado 887778" d="M49.763,91.314H12.073a.637.637,0,0,0-.636.636V117.8a.637.637,0,0,0,.636.636H49.763a.636.636,0,0,0,.636-.636V91.95a.636.636,0,0,0-.636-.636m-25.857,26.07a8.175,8.175,0,1,1,8.175-8.175,8.184,8.184,0,0,1-8.175,8.175m18.636-1.792a2.867,2.867,0,1,1,2.866-2.868,2.87,2.87,0,0,1-2.866,2.868m0-6.25a2.867,2.867,0,1,1,2.866-2.868,2.87,2.87,0,0,1-2.866,2.868m5.585-9.473a.7.7,0,0,1-.7.7H14.408a.7.7,0,0,1-.7-.7V94.2a.7.7,0,0,1,.7-.7H47.429a.7.7,0,0,1,.7.7Z" transform="translate(-10.04 -80.161)" fill="#dfe1e5"/>
        <path id="Trazado_887779" data-name="Trazado 887779" d="M257.009,256.05a1.469,1.469,0,1,1-1.469-1.469,1.471,1.471,0,0,1,1.469,1.469" transform="translate(-223.039 -223.485)" fill="#4dc3c4"/>
        <path id="Trazado_887780" data-name="Trazado 887780" d="M257.009,204.878a1.469,1.469,0,1,1-1.469-1.469,1.471,1.471,0,0,1,1.469,1.469" transform="translate(-223.039 -178.564)" fill="#4dc3c4"/>
        <path id="Trazado_887781" data-name="Trazado 887781" d="M64.812,182.334a6.778,6.778,0,1,0,6.778,6.778,6.785,6.785,0,0,0-6.778-6.778m0,9.45a2.672,2.672,0,1,1,2.672-2.672,2.674,2.674,0,0,1-2.672,2.672" transform="translate(-50.945 -160.063)" fill="#ffc152"/>
        <path id="Trazado_887782" data-name="Trazado 887782" d="M105.636,228.661a1.275,1.275,0,1,1-1.275-1.275,1.275,1.275,0,0,1,1.275,1.275" transform="translate(-90.495 -199.612)" fill="#ffc152"/>
        <rect id="Rect치ngulo_403677" data-name="Rect치ngulo 403677" width="31.624" height="4.272" transform="translate(5.066 14.739)" fill="#9ca0af"/>
      </g>
    </g>
  </g>
</svg>
