<svg xmlns="http://www.w3.org/2000/svg" xmlns:xlink="http://www.w3.org/1999/xlink" width="64" height="64" viewBox="0 0 64 64">
  <defs>
    <clipPath id="clip-path">
      <rect id="Rectángulo_403698" data-name="Rectángulo 403698" width="40" height="48" transform="translate(0 0)" fill="none"/>
    </clipPath>
  </defs>
  <g id="Grupo_1101901" data-name="Grupo 1101901" transform="translate(-845 -7149)">
    <circle id="Elipse_11533" data-name="Elipse 11533" cx="32" cy="32" r="32" transform="translate(845 7149)" fill="#f7eefe"/>
    <g id="Grupo_1101899" data-name="Grupo 1101899" transform="translate(857 7156.625)">
      <g id="Grupo_1101898" data-name="Grupo 1101898" transform="translate(0 0.376)" clip-path="url(#clip-path)">
        <path id="Trazado_887827" data-name="Trazado 887827" d="M216.225,331.644a.553.553,0,0,1-.276-1.033l6.911-3.97a.553.553,0,0,1,.551.96l-6.911,3.97a.551.551,0,0,1-.275.074" transform="translate(-195.314 -296.069)" fill="#4c4372"/>
        <rect id="Rectángulo_403691" data-name="Rectángulo 403691" width="2.144" height="31.082" transform="translate(18.749 16.365)" fill="#fff"/>
        <rect id="Rectángulo_403692" data-name="Rectángulo 403692" width="0.987" height="30.949" transform="translate(19.938 16.365)" fill="#d3e6f8"/>
        <path id="Trazado_887828" data-name="Trazado 887828" d="M235.152,149.673H232.88L220.1,113.23l2.023-.709Z" transform="translate(-199.327 -102.226)" fill="#fff"/>
        <path id="Trazado_887829" data-name="Trazado 887829" d="M40.44,149.673h2.272L55.491,113.23l-2.023-.709Z" transform="translate(-36.623 -102.226)" fill="#fff"/>
        <path id="Trazado_887830" data-name="Trazado 887830" d="M67.044,117.063l-.884-.31L53.2,153.505h1.068Z" transform="translate(-48.176 -106.059)" fill="#d3e6f8"/>
        <path id="Trazado_887831" data-name="Trazado 887831" d="M233.035,117.063l.884-.31,12.963,36.752h-1.068Z" transform="translate(-211.04 -106.059)" fill="#d3e6f8"/>
        <path id="Trazado_887832" data-name="Trazado 887832" d="M229.841,144.917h-2.272a.553.553,0,0,1-.522-.37L214.268,108.1a.553.553,0,0,1,.339-.705l2.023-.71a.553.553,0,0,1,.705.339l13.027,37.152a.553.553,0,0,1-.522.736m-1.88-1.107h1.1l-12.586-35.893-.979.343Z" transform="translate(-194.016 -96.917)" fill="#4c4372"/>
        <path id="Trazado_887833" data-name="Trazado 887833" d="M37.4,144.917H35.13a.553.553,0,0,1-.522-.736l13.027-37.152a.553.553,0,0,1,.705-.339l2.023.71a.553.553,0,0,1,.339.705L37.924,144.547a.553.553,0,0,1-.522.37m-1.492-1.107h1.1l12.466-35.55-.979-.343Z" transform="translate(-31.313 -96.917)" fill="#4c4372"/>
        <rect id="Rectángulo_403693" data-name="Rectángulo 403693" width="3.878" height="3.003" transform="translate(17.882 13.322)" fill="#d3e6f8"/>
        <rect id="Rectángulo_403694" data-name="Rectángulo 403694" width="1.103" height="2.964" transform="translate(20.506 13.342)" fill="#a4cff2"/>
        <rect id="Rectángulo_403695" data-name="Rectángulo 403695" width="10.221" height="4.246" transform="translate(14.711 9.076)" fill="#d3e6f8"/>
        <rect id="Rectángulo_403696" data-name="Rectángulo 403696" width="1.983" height="4.174" transform="translate(22.948 9.149)" fill="#a4cff2"/>
        <path id="Trazado_887834" data-name="Trazado 887834" d="M188.025,142.842h-3.878a.553.553,0,0,1-.553-.553v-3a.553.553,0,0,1,.553-.553h3.878a.553.553,0,0,1,.553.553v3a.553.553,0,0,1-.553.553m-3.325-1.107h2.771v-1.9H184.7Z" transform="translate(-166.264 -125.964)" fill="#4c4372"/>
        <path id="Trazado_887835" data-name="Trazado 887835" d="M160.768,99.1H150.547a.553.553,0,0,1-.553-.553V94.3a.553.553,0,0,1,.553-.553h10.221a.553.553,0,0,1,.553.553v4.246a.553.553,0,0,1-.553.553M151.1,98h9.114V94.857H151.1Z" transform="translate(-135.837 -85.227)" fill="#4c4372"/>
        <path id="Trazado_887836" data-name="Trazado 887836" d="M195.476,203.157h-2.144a.553.553,0,0,1-.553-.553V171.521a.553.553,0,0,1,.553-.553h2.144a.553.553,0,0,1,.553.553V202.6a.553.553,0,0,1-.553.553m-1.591-1.107h1.037V172.075h-1.037Z" transform="translate(-174.583 -155.157)" fill="#4c4372"/>
        <rect id="Rectángulo_403697" data-name="Rectángulo 403697" width="15.67" height="8.83" transform="translate(11.994 0.228)" fill="#fd919e"/>
        <path id="Trazado_887837" data-name="Trazado 887837" d="M137.438,9.937h-15.67a.553.553,0,0,1-.553-.553V.553A.553.553,0,0,1,121.768,0h15.67a.553.553,0,0,1,.553.553v8.83a.553.553,0,0,1-.553.553M122.322,8.83h14.563V1.107H122.322Z" transform="translate(-109.774 -0.326)" fill="#4c4372"/>
        <path id="Trazado_887838" data-name="Trazado 887838" d="M186.927,27.064a2.414,2.414,0,1,1-2.414,2.414,2.414,2.414,0,0,1,2.414-2.414" transform="translate(-167.098 -24.835)" fill="#e8677d"/>
        <path id="Trazado_887839" data-name="Trazado 887839" d="M181.618,27.138a2.967,2.967,0,1,1,2.967-2.967,2.971,2.971,0,0,1-2.967,2.967m0-4.828a1.861,1.861,0,1,0,1.861,1.861,1.863,1.863,0,0,0-1.861-1.861" transform="translate(-161.789 -19.527)" fill="#4c4372"/>
        <path id="Trazado_887840" data-name="Trazado 887840" d="M127.023,331.644a.551.551,0,0,1-.275-.074l-6.911-3.97a.553.553,0,0,1,.551-.96l6.911,3.97a.553.553,0,0,1-.276,1.033" transform="translate(-108.274 -296.069)" fill="#4c4372"/>
        <path id="Trazado_887841" data-name="Trazado 887841" d="M38.981,45.133H.566A.566.566,0,0,1,.566,44H38.981a.566.566,0,1,1,0,1.133" transform="translate(0 -40.173)" fill="#4c4372"/>
      </g>
    </g>
  </g>
</svg>
