<svg xmlns="http://www.w3.org/2000/svg" width="64" height="64" viewBox="0 0 64 64">
  <g id="Grupo_1101951" data-name="Grupo 1101951" transform="translate(-210 -7974)">
    <g id="Grupo_1101913" data-name="Grupo 1101913" transform="translate(0 171)">
      <circle id="Elipse_11531" data-name="Elipse 11531" cx="32" cy="32" r="32" transform="translate(210 7803)" fill="#f7eefe"/>
    </g>
    <g id="_13-File" data-name="13-File" transform="translate(225 7989)">
      <path id="Trazado_887868" data-name="Trazado 887868" d="M43.5,9.5H37.833A2.833,2.833,0,0,1,35,6.667V1Z" transform="translate(-10.208 -0.292)" fill="#f6b445"/>
      <path id="Trazado_887869" data-name="Trazado 887869" d="M34.75,9.5V30.75a2.833,2.833,0,0,1-2.833,2.833H7.833A2.775,2.775,0,0,1,5,30.75V3.833A2.833,2.833,0,0,1,7.833,1H26.25V6.667A2.833,2.833,0,0,0,29.083,9.5Z" transform="translate(-1.458 -0.292)" fill="#fed049"/>
      <path id="Trazado_887870" data-name="Trazado 887870" d="M26.083,24.083H21.125A2.125,2.125,0,0,1,19,21.958V17Z" transform="translate(-5.542 -4.958)" fill="#d0d7df"/>
      <path id="Trazado_887871" data-name="Trazado 887871" d="M20.833,24.083V36.125a2.125,2.125,0,0,1-2.125,2.125H3.125A2.125,2.125,0,0,1,1,36.125v-17A2.125,2.125,0,0,1,3.125,17H13.75v4.958a2.125,2.125,0,0,0,2.125,2.125Z" transform="translate(-0.292 -4.958)" fill="#f1f2f2"/>
      <path id="Trazado_887872" data-name="Trazado 887872" d="M34.959,8.708l-8.5-8.5A.691.691,0,0,0,26.23.055.7.7,0,0,0,25.958,0H7.542A3.546,3.546,0,0,0,4,3.542V8.5a.708.708,0,0,0,1.417,0V3.542A2.125,2.125,0,0,1,7.542,1.417H25.25V6.375a3.546,3.546,0,0,0,3.542,3.542h1.417a.708.708,0,1,0,0-1.417H28.792a2.125,2.125,0,0,1-2.125-2.125V2.418L33.75,9.5V30.458a2.125,2.125,0,0,1-2.125,2.125H25.25a.708.708,0,0,0,0,1.417h6.375a3.546,3.546,0,0,0,3.542-3.542V9.208a.708.708,0,0,0-.207-.5Z" transform="translate(-1.167 0)"/>
      <path id="Trazado_887873" data-name="Trazado 887873" d="M13.96,16.208a.715.715,0,0,0-.5-.208H2.833A2.833,2.833,0,0,0,0,18.833v17a2.833,2.833,0,0,0,2.833,2.833H18.417a2.833,2.833,0,0,0,2.833-2.833V23.792a.708.708,0,0,0-.207-.5Zm5.873,19.625a1.417,1.417,0,0,1-1.417,1.417H2.833a1.417,1.417,0,0,1-1.417-1.417v-17a1.417,1.417,0,0,1,1.417-1.417H12.75v4.25A2.833,2.833,0,0,0,15.583,24.5h.708a.708.708,0,1,0,0-1.417h-.708a1.417,1.417,0,0,1-1.417-1.417V18.418l5.667,5.667Z" transform="translate(0 -4.667)"/>
      <path id="Trazado_887874" data-name="Trazado 887874" d="M16.208,31h-8.5a.708.708,0,0,0,0,1.417h8.5a.708.708,0,1,0,0-1.417Z" transform="translate(-2.042 -9.042)" fill="#474c54"/>
      <path id="Trazado_887875" data-name="Trazado 887875" d="M16.208,36h-8.5a.708.708,0,1,0,0,1.417h8.5a.708.708,0,1,0,0-1.417Z" transform="translate(-2.042 -10.5)" fill="#474c54"/>
      <path id="Trazado_887876" data-name="Trazado 887876" d="M15.125,41H13.708a.708.708,0,1,0,0,1.417h1.417a.708.708,0,1,0,0-1.417Z" transform="translate(-3.792 -11.958)" fill="#474c54"/>
      <path id="Trazado_887877" data-name="Trazado 887877" d="M9.125,41H7.708a.708.708,0,1,0,0,1.417H9.125a.708.708,0,1,0,0-1.417Z" transform="translate(-2.042 -11.958)" fill="#474c54"/>
    </g>
  </g>
</svg>
