<svg xmlns="http://www.w3.org/2000/svg" width="64" height="64" viewBox="0 0 64 64">
  <g id="Grupo_1101950" data-name="Grupo 1101950" transform="translate(-525 -7974)">
    <circle id="Elipse_11540" data-name="Elipse 11540" cx="32" cy="32" r="32" transform="translate(525 7974)" fill="#f7eefe"/>
    <g id="Layer_1" transform="translate(514.353 7981.291)">
      <g id="Grupo_1101917" data-name="Grupo 1101917" transform="translate(29.152 4.086)">
        <path id="Trazado_887878" data-name="Trazado 887878" d="M57.531,9.281V47.018a2.7,2.7,0,0,1-2.7,2.7H34.351a2.7,2.7,0,0,1-2.7-2.7V9.281a2.7,2.7,0,0,1,2.7-2.7H54.836a2.7,2.7,0,0,1,2.7,2.7Z" transform="translate(-31.212 -6.142)" fill="#afafaf"/>
        <path id="Trazado_887879" data-name="Trazado 887879" d="M57.529,38.986V54.68l-2.605-2.605a2.556,2.556,0,0,0-.614-.456,2.628,2.628,0,0,0-3.106.456l-3.061,3.061a2.631,2.631,0,0,0,0,3.718l3.324,3.322-1.081.392a1.5,1.5,0,0,0-.891,1.911,1.29,1.29,0,0,0,.059.135,1.49,1.49,0,0,0,1.851.756l2.385-.87,3.739,3.738v2.373H31.653V38.986Z" transform="translate(-31.209 -32.792)" fill="#72c2e9"/>
        <path id="Trazado_887880" data-name="Trazado 887880" d="M116.074,107.293a2.631,2.631,0,0,0,0,3.718l3.324,3.322-1.081.392a1.5,1.5,0,0,0-.891,1.911,1.289,1.289,0,0,0,.059.135,1.49,1.49,0,0,0,1.851.756l2.385-.87,3.739,3.738V121.9l-4.013-4.011-1.746.637a2.562,2.562,0,0,1-3.17-1.281,2.4,2.4,0,0,1-.25-.893h0a2.575,2.575,0,0,1,1.221-2.412l-2.178-2.178a3.7,3.7,0,0,1,0-5.225l3.061-3.061a3.694,3.694,0,0,1,5.225,0l1.853,1.853v1.505l-2.605-2.605a2.556,2.556,0,0,0-.614-.456,2.628,2.628,0,0,0-3.106.456Z" transform="translate(-99.14 -84.949)" fill="#4ba5c8"/>
        <path id="Trazado_887881" data-name="Trazado 887881" d="M62.087,75.32H60.312a.444.444,0,1,1,0-.887h1.775a.444.444,0,1,1,0,.887Zm-3.55,0H39.57a.444.444,0,0,1-.444-.444V47.085a.444.444,0,1,1,.887,0V74.432H58.537a.444.444,0,1,1,0,.887Z" transform="translate(-37.356 -39.088)" fill="#c5e5fe"/>
        <path id="Trazado_887882" data-name="Trazado 887882" d="M60.74,82.909a2.631,2.631,0,0,0,0,3.718l3.324,3.322-1.081.392a1.5,1.5,0,0,0-.891,1.911,1.29,1.29,0,0,0,.059.135,2.031,2.031,0,0,1-.855-.234c-.467-.244.036.02-3.157-1.659a2.041,2.041,0,0,0-1.9,0l-3.156,1.659A2.04,2.04,0,0,1,50.124,90l.6-3.516a2.042,2.042,0,0,0-.586-1.8l-2.554-2.49a2.039,2.039,0,0,1,1.129-3.479l3.53-.513a2.038,2.038,0,0,0,1.535-1.116l1.58-3.2a2.04,2.04,0,0,1,3.658,0l1.578,3.2A2.038,2.038,0,0,0,62.132,78.2l3.53.513a2,2,0,0,1,1.246.676,2.628,2.628,0,0,0-3.106.456Z" transform="translate(-43.807 -60.565)" fill="#f0c020"/>
        <path id="Trazado_887883" data-name="Trazado 887883" d="M116.074,109.365a2.631,2.631,0,0,0,0,3.718l3.324,3.322-1.081.392a1.5,1.5,0,0,0-.891,1.911,1.29,1.29,0,0,0,.059.135,2.031,2.031,0,0,1-.855-.234l-.348-.183h0a2.575,2.575,0,0,1,1.221-2.412l-2.178-2.178a3.7,3.7,0,0,1,0-5.225l3.061-3.061a3.628,3.628,0,0,1,.85-.635l1.762.256a2,2,0,0,1,1.246.676,2.628,2.628,0,0,0-3.106.456Z" transform="translate(-99.14 -87.021)" fill="#e8a61e"/>
        <path id="Trazado_887884" data-name="Trazado 887884" d="M138.706,120.095l-6.778,6.78-1.544-1.544-3.739-3.738-2.385.87a1.49,1.49,0,0,1-1.851-.756,1.288,1.288,0,0,1-.059-.135,1.5,1.5,0,0,1,.891-1.911l1.081-.392L121,115.945a2.631,2.631,0,0,1,0-3.718l3.061-3.061a2.628,2.628,0,0,1,3.106-.456,2.556,2.556,0,0,1,.614.456l2.605,2.605Z" transform="translate(-104.064 -89.883)" fill="#ffb69f"/>
        <g id="Grupo_1101916" data-name="Grupo 1101916" transform="translate(0 0)">
          <circle id="Elipse_11541" data-name="Elipse 11541" cx="0.444" cy="0.444" r="0.444" transform="translate(10.649 37.377)"/>
          <path id="Trazado_887885" data-name="Trazado 887885" d="M90.032,231.33a.445.445,0,0,0,.444.444h4.268a.444.444,0,1,0,0-.887H90.476A.444.444,0,0,0,90.032,231.33Z" transform="translate(-79.227 -190.634)"/>
          <path id="Trazado_887886" data-name="Trazado 887886" d="M120.916,20.286h-.22a.444.444,0,1,0,0,.887h.22a.444.444,0,1,0,0-.887Z" transform="translate(-104.084 -17.411)"/>
          <path id="Trazado_887887" data-name="Trazado 887887" d="M87.368,20.286H83.056a.444.444,0,1,0,0,.887h4.313a.444.444,0,1,0,0-.887Z" transform="translate(-73.124 -17.411)"/>
          <circle id="Elipse_11542" data-name="Elipse 11542" cx="0.444" cy="0.444" r="0.444" transform="translate(0 14.473)"/>
          <path id="Trazado_887888" data-name="Trazado 887888" d="M52.047,35.482a.449.449,0,0,0-.467-.1l-2.385.87a1.047,1.047,0,0,1-.713-1.968l1.08-.392a.444.444,0,0,0,.162-.731L46.4,29.834a2.192,2.192,0,0,1,0-3.09l.133-.133,3.44,3.44a.444.444,0,0,0,.627-.627l-3.44-3.44L48.7,24.441l3.44,3.44a.444.444,0,1,0,.627-.627l-3.44-3.44a2.189,2.189,0,0,1,3.223-.132l4.027,4.027a.453.453,0,0,0,.626,0,.445.445,0,0,0,0-.628s0,0,0,0l-1.29-1.29V7.226a3.144,3.144,0,0,0-3.14-3.14H32.292a3.144,3.144,0,0,0-3.14,3.14v10a.444.444,0,0,0,.887,0v-6.5H55.028V24.9l-1.848-1.848A4.361,4.361,0,0,0,51.07,21.8l-3.53-.513a1.592,1.592,0,0,1-1.2-.874l-1.578-3.2a2.483,2.483,0,0,0-4.453,0l-1.58,3.2a1.592,1.592,0,0,1-1.2.873L34,21.8a2.483,2.483,0,0,0-1.375,4.235l2.553,2.489a1.6,1.6,0,0,1,.459,1.413l-.6,3.516a2.485,2.485,0,0,0,3.6,2.617l3.155-1.659a1.6,1.6,0,0,1,1.486,0c3.46,1.819,3.406,1.838,3.948,1.919a1.936,1.936,0,0,0,2.273.755l2.121-.774,3.409,3.409v1.745H42.019a.444.444,0,1,0,0,.887H55.028v2.611a2.26,2.26,0,0,1-2.252,2.252H32.292a2.261,2.261,0,0,1-2.252-2.252V42.35h8.43a.444.444,0,1,0,0-.887h-8.43V20.778a.444.444,0,1,0-.887,0V44.961a3.144,3.144,0,0,0,3.14,3.14H52.776a3.144,3.144,0,0,0,3.14-3.14V40.605l.786.786a.444.444,0,1,0,.626-.628ZM30.04,9.836V7.226a2.261,2.261,0,0,1,2.252-2.252H52.776a2.26,2.26,0,0,1,2.252,2.252V9.836ZM46.905,35.311c-.05-.024-3.167-1.663-3.216-1.688a2.484,2.484,0,0,0-2.312,0l-3.156,1.659A1.6,1.6,0,0,1,35.906,33.6l.6-3.516a2.486,2.486,0,0,0-.713-2.2L33.242,25.4a1.594,1.594,0,0,1,.883-2.722l3.53-.513a2.478,2.478,0,0,0,1.87-1.359l1.58-3.2a1.6,1.6,0,0,1,2.862,0l1.578,3.2a2.479,2.479,0,0,0,1.869,1.359l2.211.321a3.24,3.24,0,0,0-.791.571l-3.061,3.061a3.073,3.073,0,0,0,0,4.347l2.83,2.829-.426.155A1.945,1.945,0,0,0,46.905,35.311Z" transform="translate(-29.152 -4.086)"/>
          <path id="Trazado_887889" data-name="Trazado 887889" d="M190.161,140.146a.444.444,0,1,0,.627,0A.455.455,0,0,0,190.161,140.146Z" transform="translate(-161.479 -115.896)"/>
          <path id="Trazado_887890" data-name="Trazado 887890" d="M202.253,151.609l-4.391-4.393a.457.457,0,0,0-.628,0,.447.447,0,0,0,0,.628l4.393,4.393a.444.444,0,0,0,.627-.628Z" transform="translate(-167.297 -121.711)"/>
        </g>
      </g>
    </g>
  </g>
</svg>
