<svg id="Grupo_1099724" data-name="Grupo 1099724" xmlns="http://www.w3.org/2000/svg" xmlns:xlink="http://www.w3.org/1999/xlink" width="71.011" height="82.168" viewBox="0 0 71.011 82.168">
  <defs>
    <clipPath id="clip-path">
      <rect id="Rectángulo_401112" data-name="Rectángulo 401112" width="71.011" height="82.168" fill="none"/>
    </clipPath>
  </defs>
  <g id="Grupo_1099723" data-name="Grupo 1099723" clip-path="url(#clip-path)">
    <path id="Trazado_873833" data-name="Trazado 873833" d="M82.836,8.714a12.535,12.535,0,0,0-.865-3.646l-.648.3.648-.3a5.73,5.73,0,0,0-2.078-2.439,9.046,9.046,0,0,0-2.8-1.191A22.02,22.02,0,0,0,74.145.93,146.954,146.954,0,0,0,57.17,0,251.246,251.246,0,0,0,30.345,1.642h0A18.54,18.54,0,0,0,25.17,2.9a9.939,9.939,0,0,0-4.249,3.214,10.543,10.543,0,0,0-1.592,3.413,26.167,26.167,0,0,0-.688,3.612,123.391,123.391,0,0,0-1.069,16.483,166.969,166.969,0,0,0,2.486,27.718,18.322,18.322,0,0,0,.786,3.26,8.045,8.045,0,0,0,.753,1.55,5.861,5.861,0,0,0,1.158,1.34,6.733,6.733,0,0,0,2.97,1.377,18.275,18.275,0,0,0,3.138.334q4.33.178,8.664.178,6.73,0,13.451-.432.063,1.13.063,2.262a41.183,41.183,0,0,1-2.012,12.715,1.952,1.952,0,0,0-.1.6,1.724,1.724,0,0,0,.183.782,1.555,1.555,0,0,0,.611.659,1.575,1.575,0,0,0,.788.2,2.511,2.511,0,0,0,.95-.21,4.238,4.238,0,0,0,.768-.423A65.855,65.855,0,0,0,67.873,66.385c.4-.539.945-1.263,1.393-1.851l.566-.74.036-.046c.563-.041,1.8-.129,3.074-.206a30.141,30.141,0,0,0,7.5-1.331,9.336,9.336,0,0,0,1.68-.7,4.272,4.272,0,0,0,1.47-1.291,4.39,4.39,0,0,0,.656-1.634,11.618,11.618,0,0,0,.179-1.6q.479-7.835.478-15.69A257.672,257.672,0,0,0,82.836,8.714" transform="translate(-16.736)" fill="#fff"/>
    <path id="Trazado_873834" data-name="Trazado 873834" d="M89.211,118.04c-8.823.5-18.09-.689-25.181-6.386-8.057-6.473-11.866-17.28-11.716-27.387a39.368,39.368,0,0,1,3.5-15.87,15.818,15.818,0,0,1,3.435-4.666l-.243.026h0a17.142,17.142,0,0,0-4.774,1.153,8.522,8.522,0,0,0-3.654,2.744,9.133,9.133,0,0,0-1.37,2.958,24.841,24.841,0,0,0-.647,3.415,121.971,121.971,0,0,0-1.056,16.293A165.559,165.559,0,0,0,49.972,117.8a21.3,21.3,0,0,0,.487,2.292,7.563,7.563,0,0,0,.848,1.99,4.437,4.437,0,0,0,.876,1.017,5.322,5.322,0,0,0,2.354,1.073,16.974,16.974,0,0,0,2.892.3q4.3.177,8.606.177,7.04,0,14.069-.473l.707-.048.051.706q.112,1.532.111,3.069a42.6,42.6,0,0,1-2.082,13.156.534.534,0,0,0-.027.162.3.3,0,0,0,.029.138c.035.066.046.063.048.067a.17.17,0,0,0,.081.013,1.14,1.14,0,0,0,.405-.1,2.835,2.835,0,0,0,.506-.28,64.434,64.434,0,0,0,15.3-14.822c.812-1.1,2.205-2.912,2.207-2.914l.194-.252.317-.024s1.668-.125,3.41-.231a28.728,28.728,0,0,0,7.144-1.264,7.984,7.984,0,0,0,1.424-.588,2.86,2.86,0,0,0,.992-.855,2.981,2.981,0,0,0,.435-1.112,10.335,10.335,0,0,0,.154-1.405q.052-.846.1-1.692a13.048,13.048,0,0,0-1.886-.235c-6.89-.363-13.652,1.981-20.514,2.371" transform="translate(-45.246 -60.699)" fill="#f0c518"/>
    <path id="Trazado_873835" data-name="Trazado 873835" d="M206.079,37.4a11.274,11.274,0,0,0-.748-3.234,4.484,4.484,0,0,0-.435-.756,4.426,4.426,0,0,0-1.143-1.093,6.671,6.671,0,0,0-1.506-.736,16.875,16.875,0,0,0-3.611-.732,145.538,145.538,0,0,0-16.81-.92,248.925,248.925,0,0,0-26.43,1.608,15.817,15.817,0,0,0-3.435,4.666,39.368,39.368,0,0,0-3.5,15.869c-.15,10.108,3.66,20.914,11.716,27.387,7.091,5.7,16.358,6.889,25.181,6.386,6.861-.391,13.623-2.735,20.514-2.371a13.055,13.055,0,0,1,1.886.235q.378-6.949.379-13.912a256.259,256.259,0,0,0-2.056-32.4" transform="translate(-141.392 -28.51)" fill="#f4dc80"/>
    <path id="Trazado_873836" data-name="Trazado 873836" d="M571.585,101.57c-9.163-7.561-20.749-8.651-25.877-2.436a10.106,10.106,0,0,0-1.36,2.168c.107-.088.213-.178.323-.262a13.6,13.6,0,0,1,3.384-1.9,13.91,13.91,0,0,1,5.005-.933c.4,0,.805.023,1.208.059a13.321,13.321,0,0,1,12.319,5.8c4,5.911,1.379,12.834-2.991,17.074a35.87,35.87,0,0,1-6.11,4.628v1.392c8.178,4.637,17.084,4.588,21.405-.65,5.128-6.215,1.858-17.383-7.306-24.944" transform="translate(-518.449 -90.577)" fill="#ffd01e"/>
    <path id="Trazado_873837" data-name="Trazado 873837" d="M583.229,302.04a12.116,12.116,0,0,0,1.838-2.265,9.063,9.063,0,0,0,1.1-2.477,6.3,6.3,0,0,0,.213-1.589,5.162,5.162,0,0,0-.22-1.5,5.578,5.578,0,0,0-.733-1.517,7.089,7.089,0,0,0-4.8-3.1,7.721,7.721,0,0,0-1.064.243c-3.334,1.022-5.325,3.883-5.325,7.654a3.019,3.019,0,0,1-2.25,2.918,28.187,28.187,0,0,0,4.641,6.388c.052-.035.1-.073.155-.105a33.248,33.248,0,0,0,6.449-4.647" transform="translate(-544.771 -275.81)" fill="#ffd01e"/>
    <path id="Trazado_873838" data-name="Trazado 873838" d="M741.27,183.386c4.37-4.24,6.989-11.163,2.991-17.074a13.321,13.321,0,0,0-12.32-5.8,13.129,13.129,0,0,1,9.839,5.8,11.627,11.627,0,0,1,1.512,3.152,11.209,11.209,0,0,1,.478,3.254,12.328,12.328,0,0,1-.409,3.113,14.483,14.483,0,0,1-1.081,2.843,17.722,17.722,0,0,1-3.492,4.712,35.432,35.432,0,0,1-6.11,4.624v7.412a3.02,3.02,0,0,1-1.781,2.753,3.017,3.017,0,0,0,4.262-2.752v-7.408a35.864,35.864,0,0,0,6.11-4.628" transform="translate(-696.124 -152.82)" fill="#3a1d71"/>
    <path id="Trazado_873839" data-name="Trazado 873839" d="M733.271,988.638a3.6,3.6,0,0,0-1.24.223,3.608,3.608,0,0,1,0,6.779,3.611,3.611,0,1,0,1.24-7" transform="translate(-697.201 -941.6)" fill="#3a1d71"/>
    <path id="Trazado_873840" data-name="Trazado 873840" d="M637.25,992.251a3.624,3.624,0,1,0-2.372,3.39,3.611,3.611,0,0,0,2.372-3.39" transform="translate(-600.049 -941.6)" fill="#fff"/>
    <path id="Trazado_873841" data-name="Trazado 873841" d="M1323.884,1128.869c-.227-.117-.412-.007-.332.261a7.789,7.789,0,0,1-6.947,9.941c-.283.02-.063.487.006.6.127.209.4.55.683.53a8.268,8.268,0,0,0,4.969-2.152,8.125,8.125,0,0,0,2.522-5.052,8.358,8.358,0,0,0-.3-3.372,1.3,1.3,0,0,0-.6-.757" transform="translate(-1253.828 -1075.114)" fill="#fff"/>
    <path id="Trazado_873842" data-name="Trazado 873842" d="M.508,15.679c.143.108.481.251.472-.061a14.883,14.883,0,0,1,.991-6.875A8.415,8.415,0,0,1,6.484,4.971a9.357,9.357,0,0,1,3.5-.759c.286,0,.056-.5-.006-.6-.135-.224-.392-.532-.683-.53A10.689,10.689,0,0,0,3.225,5.256,7.036,7.036,0,0,0,1.239,7.415a9.293,9.293,0,0,0-1.021,3.2,23.913,23.913,0,0,0-.2,4.262,1.176,1.176,0,0,0,.493.8" transform="translate(0 -2.934)" fill="#fff"/>
    <path id="Trazado_873843" data-name="Trazado 873843" d="M18.8,1037.3c.213-.01.279-.13.128-.3a1.1,1.1,0,0,0-.737-.319c-1.841.089-3.687.111-5.529.042a22.861,22.861,0,0,1-4.973-.577c-.147-.039-.293-.082-.437-.129l-.148-.051q-.1-.038-.2-.081l-.122-.056c-.011-.007-.09-.049-.112-.061a.577.577,0,0,0-.057-.029.479.479,0,0,0-.047-.037c-.091-.068-.181-.135-.266-.212a5.242,5.242,0,0,1-1.358-2.4,26.857,26.857,0,0,1-.637-2.989q-.288-1.567-.538-3.142-.614-3.9-.947-7.83c-.027-.323-1.081-.657-1.053-.324q.31,3.676.868,7.325.254,1.659.555,3.311a31.787,31.787,0,0,0,.658,3.192,6.5,6.5,0,0,0,1.323,2.566,4.786,4.786,0,0,0,2.02,1.284,18.35,18.35,0,0,0,5.02.8,60.773,60.773,0,0,0,6.589.009" transform="translate(-1.682 -970.206)" fill="#101a2f"/>
    <path id="Trazado_873844" data-name="Trazado 873844" d="M533.972,295.43c0-3.771,1.991-6.633,5.325-7.654a7.72,7.72,0,0,1,1.064-.243,7.638,7.638,0,0,0-1.243-.1,7.868,7.868,0,0,0-3.162.665,7.367,7.367,0,0,0-2.6,1.9,7.233,7.233,0,0,0-1.2,1.917,8.883,8.883,0,0,0-.671,3.513,3.02,3.02,0,0,1-1.78,2.752,3.022,3.022,0,0,0,4.262-2.753" transform="translate(-504.507 -273.754)" fill="#3a1d71"/>
    <path id="Trazado_873845" data-name="Trazado 873845" d="M455.758,195.412V188a35.432,35.432,0,0,0,6.11-4.624,17.72,17.72,0,0,0,3.492-4.712,14.478,14.478,0,0,0,1.081-2.843,12.334,12.334,0,0,0,.409-3.113,11.211,11.211,0,0,0-.478-3.254,11.628,11.628,0,0,0-1.512-3.152,13.129,13.129,0,0,0-9.839-5.8c-.4-.036-.805-.059-1.208-.059a13.91,13.91,0,0,0-5.005.933,13.6,13.6,0,0,0-3.383,1.9c-.11.084-.216.175-.323.262a13.2,13.2,0,0,0-3.508,4.423,14.748,14.748,0,0,0-1.45,6.527,3.021,3.021,0,0,0,6.042,0,8.882,8.882,0,0,1,.671-3.513,7.233,7.233,0,0,1,1.2-1.917,7.367,7.367,0,0,1,2.6-1.9,7.869,7.869,0,0,1,3.162-.665,7.633,7.633,0,0,1,1.243.1,7.089,7.089,0,0,1,4.8,3.1,5.582,5.582,0,0,1,.733,1.517,5.162,5.162,0,0,1,.219,1.5,6.3,6.3,0,0,1-.213,1.588,9.063,9.063,0,0,1-1.1,2.477,12.113,12.113,0,0,1-1.838,2.265,33.249,33.249,0,0,1-6.449,4.647c-.054.032-.1.07-.155.105a3.026,3.026,0,0,0-1.341,2.5v9.118a3.021,3.021,0,0,0,6.042,0" transform="translate(-419.202 -152.809)" fill="#fff"/>
  </g>
</svg>
