<svg xmlns="http://www.w3.org/2000/svg" xmlns:xlink="http://www.w3.org/1999/xlink" width="744" height="484" viewBox="0 0 744 484">
  <defs>
    <clipPath id="clip-path">
      <rect id="Rect치ngulo_403610" data-name="Rect치ngulo 403610" width="211" height="201.136" fill="none"/>
    </clipPath>
    <clipPath id="clip-path-3">
      <rect id="Rect치ngulo_403628" data-name="Rect치ngulo 403628" width="187.929" height="385.145" fill="none"/>
    </clipPath>
  </defs>
  <g id="Grupo_1101971" data-name="Grupo 1101971" transform="translate(-453 -2662)">
    <g id="Grupo_1101867" data-name="Grupo 1101867" transform="translate(494 2801.203)">
      <g id="Grupo_1101866" data-name="Grupo 1101866" clip-path="url(#clip-path)">
        <path id="Trazado_887688" data-name="Trazado 887688" d="M337.091,157.662c10.627,1.5,5.483,1.272,16.384-.771,2.725-.341,5.11-2.385,7.835-3.747,7.495-2.725,14.308-6.132,21.461-9.2,9.2-4.429,18.736-7.835,27.593-12.6a62.61,62.61,0,0,1,14.621,1.5v12.182L376.67,176.666,339.1,174.242Z" transform="translate(-228.145 -88.892)" fill="#fcd1b8"/>
        <path id="Trazado_887689" data-name="Trazado 887689" d="M189.321,13.215c-.341,6.472-1.022,12.945-4.088,18.736-.341.341,0,1.022-.341,1.363-3.022,4.7-6.425,8.487-11.242,11.242a21.066,21.066,0,0,0-4.7,13.224,20.286,20.286,0,0,0,.279,3.4,17.424,17.424,0,0,0,1.656,5.083,3.921,3.921,0,0,0,.991,1.059,10.2,10.2,0,0,0,2.879,1.339c-.3,1.734-10,57.425-10.748,61.72-1.818.782-6.789,7.787-7.972,9.436-9.981,13.979-27.027,41.611-27.027,41.676L103.19,134.581c10.386-6.714,26.857-18.487,31.286-30.07,6.095-14.877,6.795-30.5,10.9-46.33,2.725-8.857,6.473-16.692,10.56-24.868,1.55-2.793,2.821-5.583,5.093-7.6.4-.354.731-.6,1.158-.92,6.948-5.28,14.217-9.664,16.232-18.729.341-1.7.681-3.747,2.385-5.11a2.713,2.713,0,0,1,3.407.681c.34.341.681,0,1.022.341,3.066,3.066,4.088,7.154,4.088,11.242" transform="translate(-69.84 -0.404)" fill="#fcd1b8"/>
        <path id="Trazado_887690" data-name="Trazado 887690" d="M174.755,196.961c-.031,4.128-.6,81.98-.61,83.2-1.617.695-7.2,1.375-13.779,4.282h0a41.437,41.437,0,0,0-6.023,3.284c-12.356,8.2-24.933,21.638-25.321,22.058-.027.027,1.225,2.254-25.829-46.9,10.387-6.714,26.857-18.488,31.286-30.07,5.476-13.358,6.642-27.521,9.7-41.291,8.668.66,17.047,1.4,25.185-1.356a15.231,15.231,0,0,0,1.714,4.667,7.4,7.4,0,0,0,3.686,2.129" transform="translate(-69.84 -128.705)" fill="#fcd1b8"/>
        <path id="Trazado_887691" data-name="Trazado 887691" d="M484.763,250.3a9.174,9.174,0,0,1-5.559-1.783c-3.226-2.455-4.033-6.927-2.212-12.268a6.734,6.734,0,0,1,3.741-4.186c3.077-1.356,7.054-.579,9.75.6,2.261.989,3.913,3.671,4.208,6.83a9.687,9.687,0,0,1-4.164,9.05,10.281,10.281,0,0,1-5.763,1.756m-7.258-13.876c-2.383,6.991.248,10.307,2.027,11.661a9.379,9.379,0,0,0,10.688.011,9.151,9.151,0,0,0,3.929-8.551c-.277-2.966-1.8-5.472-3.885-6.383-2.59-1.133-6.4-1.886-9.313-.6A6.215,6.215,0,0,0,477.506,236.426Z" transform="translate(-322.185 -156.578)"/>
        <path id="Trazado_887692" data-name="Trazado 887692" d="M367.37,112.341a4.851,4.851,0,0,1-2.94-.943c-1.707-1.3-2.133-3.664-1.17-6.489a3.563,3.563,0,0,1,1.979-2.214,6.837,6.837,0,0,1,5.157.318,4.292,4.292,0,0,1,2.226,3.613,5.123,5.123,0,0,1-2.2,4.786,5.44,5.44,0,0,1-3.049.929M363.532,105c-1.26,3.7.131,5.451,1.072,6.168a4.961,4.961,0,0,0,5.653.005,4.84,4.84,0,0,0,2.078-4.523,4.007,4.007,0,0,0-2.055-3.376,6.55,6.55,0,0,0-4.926-.318A3.286,3.286,0,0,0,363.532,105" transform="translate(-245.515 -69.248)"/>
        <path id="Trazado_887693" data-name="Trazado 887693" d="M394.681,66.123H333.864a10.606,10.606,0,0,0-10.6,10.6V218.41a10.606,10.606,0,0,0,10.6,10.608h60.817a10.606,10.606,0,0,0,10.6-10.608V76.728a10.606,10.606,0,0,0-10.6-10.6" transform="translate(-218.784 -44.752)" fill="#3a1d71"/>
        <path id="Trazado_887694" data-name="Trazado 887694" d="M408.269,82.442v136.91a7.891,7.891,0,0,1-7.879,7.883H339.572a7.721,7.721,0,0,1-1.894-.232,7.9,7.9,0,0,1-5.985-7.651V82.442a7.891,7.891,0,0,1,7.879-7.883H362.2a3.859,3.859,0,0,1,3.86,3.86v.061a3.923,3.923,0,1,0,7.845,0v-.061a3.858,3.858,0,0,1,3.86-3.86H400.39a7.891,7.891,0,0,1,7.879,7.883" transform="translate(-224.492 -50.462)" fill="#fff"/>
        <path id="Trazado_887697" data-name="Trazado 887697" d="M408.269,437.114v27.617a7.891,7.891,0,0,1-7.879,7.883H339.572a7.891,7.891,0,0,1-7.879-7.883v-27.27Z" transform="translate(-224.492 -295.841)" fill="#00ffdf"/>
        <path id="Trazado_887698" data-name="Trazado 887698" d="M423,455.439c1.942-5.7,8.559-5.421,13.125-3.424s6.277,11.128,0,15.407-17.4.571-13.125-11.983" transform="translate(-285.645 -305.047)" fill="#12263f"/>
        <path id="Trazado_887707" data-name="Trazado 887707" d="M423.215,287.807c.055-.024.055-.02,0,0" transform="translate(-286.434 -194.778)" fill="#f2a298"/>
        <path id="Trazado_887716" data-name="Trazado 887716" d="M408.269,82.442V98.32l-76.576.348V82.442a7.891,7.891,0,0,1,7.879-7.883H362.2a3.859,3.859,0,0,1,3.86,3.86v.061a3.923,3.923,0,1,0,7.845,0v-.061a3.858,3.858,0,0,1,3.86-3.86H400.39a7.891,7.891,0,0,1,7.879,7.883" transform="translate(-224.492 -50.462)" fill="#00ffdf"/>
        <path id="Trazado_887720" data-name="Trazado 887720" d="M275.453,12.812c-.341,6.472-1.022,12.945-4.088,18.736-.341.341,0,1.022-.341,1.363C268,37.615,264.6,41.4,259.782,44.152a21.1,21.1,0,0,0-4.633,14.955c.116,1.357.236,1.669.208,1.669-8.189,2.759-16.212,2.033-24.905,1.369-.029,0,.7-2.994,1.056-4.367,2.725-8.857,6.473-16.692,10.56-24.868,1.55-2.793,2.821-5.583,5.093-7.6.4-.354.731-.6,1.158-.92,6.948-5.28,14.217-9.664,16.232-18.729.341-1.7.681-3.747,2.385-5.11a2.883,2.883,0,0,1,3.613.183c.341.341.475.5.816.839,3.066,3.066,4.088,7.154,4.088,11.242" transform="translate(-155.971 0)" fill="#fcd1b8"/>
        <path id="Trazado_887721" data-name="Trazado 887721" d="M68.98,440.582c-1.073,1.789-19.336,22.2-19.336,22.2s-.675-.126-1.884-.477a61.045,61.045,0,0,1-14.911-6.858A80.169,80.169,0,0,1,16,441.263,57.537,57.537,0,0,1,8.07,430.485a76.514,76.514,0,0,1-7.041-16.829C.3,411.112,0,409.541,0,409.541c1.789-.358,9.528-4.091,17.775-6.915,6.214-2.126,14.682-12.175,17.547-14.321s5.011-2.15,5.369-.715c.373,1.47-2.327,13.2,6.592,29.014,4.023,7,10.644,15.542,17.782,19.254A13.729,13.729,0,0,0,67.907,437a2.57,2.57,0,0,1,1.073,3.58" transform="translate(0 -261.646)" fill="#00ffdf"/>
        <path id="Trazado_887722" data-name="Trazado 887722" d="M589.613,203.039s0,0-.007,0c-1.618.9-6.268,3.223-10.959,5.321,0,0,0,0-.007,0h0c-4.7,2.105-9.436,3.982-11.224,3.982a2.476,2.476,0,0,1-.824-.14c-3.015-1.025-4.384-7.593-3.114-11.252a8.613,8.613,0,0,1,3.124-3.233c.381-.272.787-.552,1.209-.828.136-.089.276-.181.416-.269l0,0a105.9,105.9,0,0,1,12.1-6.292c.174-.079.33-.147.46-.2.337-.15.525-.232.525-.232a9.33,9.33,0,0,1,3.2-.293,4.018,4.018,0,0,1,3.539,2.337c1.57,3.58,4.793,9.307,1.57,11.1" transform="translate(-381.043 -128.3)" fill="#fcd1b8"/>
        <path id="Trazado_887723" data-name="Trazado 887723" d="M590.856,242.11a3.857,3.857,0,0,1-.405.5,7.58,7.58,0,0,1-1.877,1.38c-3.587,1.955-9.981,3.039-15.568,3.877a23.3,23.3,0,0,1-4.548.286c-.337-.017-.658-.041-.964-.079h0c-3.434-.415-5.045-2.119-4.626-4.861.453-2.984,2.753-5.556,3.839-6.629.347-.344.572-.531.572-.531s.807-.463,2.1-1.2c4.936-2.821,16.921-9.674,17.772-10.189.579-.351,1.526.6,2.32,2.085.01.017.02.037.031.058a12.863,12.863,0,0,1,.858,2.044,11.248,11.248,0,0,1,.5,2.371c.307,3.4,2.2,7.7,0,10.894" transform="translate(-380.906 -152.001)" fill="#fcd1b8"/>
        <path id="Trazado_887724" data-name="Trazado 887724" d="M580.956,282.213s2.939,1.611,3.529,3.044a13.2,13.2,0,0,1,0,6.982c-.664,1.611-1.022,2.506-5.856,4.118s-17.187,4.655-18.977,4.655-6.266-2.506-6.266-5.55,4.124-6.355,6.266-7.34,16.113-5.908,16.113-5.908Z" transform="translate(-374.534 -191.004)" fill="#fcd1b8"/>
        <path id="Trazado_887725" data-name="Trazado 887725" d="M577.509,150.124a10.083,10.083,0,0,1-2.34,2.824,14.139,14.139,0,0,1-1.152.886,22.22,22.22,0,0,1-2.623,1.54c-1.363.695-2.776,1.3-4.1,1.9l-.988.988-.034.034a14.64,14.64,0,0,1-5.226,2.3,8.525,8.525,0,0,1-1.247.157,7.337,7.337,0,0,1-3.747-.756c-3.406-1.7-3.437-6.033-2.562-9.372.48-1.833,15.415-15.135,17.523-14.679a6.727,6.727,0,0,1,3.066,1.369,20.927,20.927,0,0,1,3.434,12.8" transform="translate(-374.276 -92.006)" fill="#fcd1b8"/>
        <path id="Trazado_887726" data-name="Trazado 887726" d="M284.641,343.35l-.034,6.089a24.625,24.625,0,0,1-4.422,2.96,19.47,19.47,0,0,1-4.446,1.615c-3.274.77-6.943.767-9.406-1.012a.291.291,0,0,1,.068-.525c2.068-.5,4.248-.375,6.347-.766a19.446,19.446,0,0,0,3.574-1.043,24.171,24.171,0,0,0,2.483-1.155,18.118,18.118,0,0,0,4.878-3.819,8.722,8.722,0,0,0,.957-2.345" transform="translate(-180.166 -232.381)" fill="#fcc19f"/>
        <path id="Trazado_887727" data-name="Trazado 887727" d="M202.764,395.985c2.814,3.415,5.939,6.553,8.682,10.032q2.135,2.709,4.049,5.583c1.246,1.869,2.146,4.013,3.478,5.809a.815.815,0,0,0,1.406-.822,36.5,36.5,0,0,0-3.851-5.931q-1.893-2.733-3.985-5.321a49.75,49.75,0,0,0-9.584-9.6c-.158-.112-.3.121-.194.251" transform="translate(-137.207 -267.815)" fill="#fcc19f"/>
        <path id="Trazado_887728" data-name="Trazado 887728" d="M564.712,230.885c-.12-2.045,1.49-2.917,3.309-3.746q2.5-1.139,5.071-2.088a2.485,2.485,0,0,1,1.069-.22c.787.073,1.37.864,1.784,1.45a3.889,3.889,0,0,1,.739,2.267c-.017,1.676-1.122,2.148-2.155,2.569-2.153.877-4.172,2.215-6.46,2.632a4.319,4.319,0,0,1-2.8-.854,5.831,5.831,0,0,1-.554-2.01" transform="translate(-382.196 -152.163)" fill="#fcece3"/>
        <path id="Trazado_887729" data-name="Trazado 887729" d="M565.129,180.138a2.614,2.614,0,0,1,1.234-.369,2.472,2.472,0,0,1,1.7,1.175,10.84,10.84,0,0,1,1.453,2.634.811.811,0,0,1-.245,1.1q-1.068,1.029-2.183,2a11.129,11.129,0,0,1-3.513,2.3,4.081,4.081,0,0,1-3.944-.513c-1.081-.9-1.1-3.453-.225-4.591a47.444,47.444,0,0,1,5.724-3.737" transform="translate(-378.186 -121.668)" fill="#fcece3"/>
        <path id="Trazado_887730" data-name="Trazado 887730" d="M570.324,271.74l4.022-1.236a3.19,3.19,0,0,1,2.057-.157c1.2.463,1.365,2.057,1.339,3.338a2.228,2.228,0,0,1-.378,1.462,2.127,2.127,0,0,1-.947.528,27.252,27.252,0,0,1-3.446.933,7.48,7.48,0,0,1-2.769.158,3.093,3.093,0,0,1-2.241-1.493,2.4,2.4,0,0,1,.106-2.346c.441-.691,2.257-1.187,2.257-1.187" transform="translate(-384.226 -182.892)" fill="#fcece3"/>
        <path id="Trazado_887731" data-name="Trazado 887731" d="M558.843,313.314a17.4,17.4,0,0,1,4.871-.764,1.263,1.263,0,0,1,.513.067,1.318,1.318,0,0,1,.559.624,5.714,5.714,0,0,1,.729,1.708,1.934,1.934,0,0,1-.446,1.735,2.8,2.8,0,0,1-1.529.6q-2.357.405-4.741.612a3.2,3.2,0,0,1-1.672-.162,2.012,2.012,0,0,1-.794-2.593c.417-.911,2.51-1.831,2.51-1.831" transform="translate(-376.406 -211.535)" fill="#fcece3"/>
        <path id="Trazado_887732" data-name="Trazado 887732" d="M295.831,74.168a11.917,11.917,0,0,1-3.124-3.406,3.047,3.047,0,0,1-.674-2.1c.446-.334.892-.664,1.335-.995a.653.653,0,0,1,.3.566c-.126,1.986,2.626,3.032,3.41,4.691a.918.918,0,0,1-1.243,1.247" transform="translate(-197.637 -45.796)" fill="#fcc19f"/>
        <path id="Trazado_887733" data-name="Trazado 887733" d="M284.232,79.556a9.313,9.313,0,0,1-2.078-3.182c.222-.2.456-.388.7-.572l.46-.347a19.623,19.623,0,0,0,2.323,2.695.994.994,0,0,1-1.4,1.407" transform="translate(-190.964 -51.068)" fill="#fcc19f"/>
        <path id="Trazado_887734" data-name="Trazado 887734" d="M311.833,130.359a16.239,16.239,0,0,1-2.541,1.008,17.448,17.448,0,0,1-5.665.542c-.886-.048-1.107,1.417-.215,1.567a14.478,14.478,0,0,0,4.469.082Z" transform="translate(-204.966 -88.228)" fill="#fcc19f"/>
        <path id="Trazado_887735" data-name="Trazado 887735" d="M315.425,208.919c.143.542.262,1.1.358,1.656s.174,1.117.228,1.679a42.349,42.349,0,0,1,.177,4.926q-.026,2.029-.242,4.044a45.369,45.369,0,0,1-1.547,7.91,1.259,1.259,0,0,1-1.959.637,1.089,1.089,0,0,1-.443-1.3,43.389,43.389,0,0,0,2.081-11.293c.133-3.025-.286-6.03-.385-9.034Z" transform="translate(-211.119 -140.874)" fill="#fcc19f"/>
        <path id="Trazado_887736" data-name="Trazado 887736" d="M327.637,12.855a.585.585,0,0,0,.8.707,5.138,5.138,0,0,0,1.232-.812,12.737,12.737,0,0,0,3.7-4.939c.768-1.931.235-4.579-.447-6.542-1.4.2-1.986,2.031-2.67,3.274a25.744,25.744,0,0,0-2.612,8.312" transform="translate(-221.727 -0.859)" fill="#fcece3"/>
        <path id="Trazado_887737" data-name="Trazado 887737" d="M598.44,282.627c-.9.4-1.874.695-2.654.967a39.582,39.582,0,0,1-6.5,1.669,68.648,68.648,0,0,1-13.388,1.117.027.027,0,0,1-.017,0c-.262-.027-.334-.443-.051-.5.119-.024.239-.044.358-.065.7-.129,1.4-.242,2.1-.347,3.441-.507,6.912-.8,10.319-1.574a53.888,53.888,0,0,0,6.186-1.73q1-.358,1.989-.76c.446-.181.889-.368,1.325-.566.385-.174.712-.351,1.042-.487Z" transform="translate(-389.601 -189.741)" fill="#fcc19f"/>
        <path id="Trazado_887738" data-name="Trazado 887738" d="M597.877,233.485c-.862.548-1.8.991-2.514,1.376a67.163,67.163,0,0,1-6.418,3.015A47.356,47.356,0,0,1,581.6,240.3a24.855,24.855,0,0,1-7.236.961.4.4,0,0,1-.14-.038.49.49,0,0,1-.252-.671.407.407,0,0,1,.167-.126,22.626,22.626,0,0,1,2.759-.937c1.291-.354,2.606-.657,3.866-1.053,1.758-.552,3.522-1.1,5.26-1.727,0,0,0,0,.007,0q.6-.215,1.2-.44a62.859,62.859,0,0,0,6.8-3.073,27.64,27.64,0,0,0,2.8-1.615c.065-.045.126-.089.187-.136a12.892,12.892,0,0,1,.858,2.044" transform="translate(-388.424 -156.641)" fill="#fcc19f"/>
        <path id="Trazado_887739" data-name="Trazado 887739" d="M591.629,188.924a11.289,11.289,0,0,1-2.947,2.337,52.133,52.133,0,0,1-4.926,2.947c-1.591.831-3.212,1.581-4.878,2.252-1.578.634-3.4,1.274-5.066.637a.327.327,0,0,1-.089-.051.412.412,0,0,1-.037-.671.424.424,0,0,1,.126-.048c.518-.1,1.029-.228,1.536-.378l0,0a26.564,26.564,0,0,0,4.841-2.065c1.138-.6,2.248-1.243,3.335-1.863.589-.341,1.175-.682,1.758-1.029q1.094-.649,2.163-1.335c.157-.1.313-.2.467-.3.388-.252.763-.528,1.144-.79a14.092,14.092,0,0,1-1.151.886l.525-.232a9.33,9.33,0,0,1,3.2-.293" transform="translate(-388.169 -127.621)" fill="#fcc19f"/>
        <path id="Trazado_887740" data-name="Trazado 887740" d="M589.342,168.327c.91-.075,1.419,1.051,1.783,1.731a17.976,17.976,0,0,1,1.018,2.29.986.986,0,1,0,1.81-.763c-.735-1.416-2.673-5.084-4.771-3.853-.259.152-.165.622.161.595" transform="translate(-398.66 -113.354)" fill="#fcba95"/>
        <path id="Trazado_887741" data-name="Trazado 887741" d="M603.893,221.887a5.381,5.381,0,0,1,1.32,1.954,4.13,4.13,0,0,1-.065,2.265c-.149.745.949,1.338,1.313.554.868-1.866-.271-4.706-2.32-5.2a.257.257,0,0,0-.249.427" transform="translate(-408.669 -149.88)" fill="#fcba95"/>
        <path id="Trazado_887742" data-name="Trazado 887742" d="M604.679,269.257c.2.065-.027,1.614-.043,1.829a7.287,7.287,0,0,0,0,1.943.692.692,0,0,0,1.324,0c.126-.671.231-5.428-1.368-4.414a.356.356,0,0,0,.084.642" transform="translate(-409.08 -181.705)" fill="#fcba95"/>
        <path id="Trazado_887743" data-name="Trazado 887743" d="M592.495,315.312c.006.142-.06.268-.054.418.009.209.038.424.052.634a2.5,2.5,0,0,1-.08,1.251c-.631,1.267,1.551,1.694,1.517.411a5.505,5.505,0,0,0-.214-1.828,2.463,2.463,0,0,0-.417-.686c-.2-.254-.293-.208-.542-.353a.177.177,0,0,0-.264.152" transform="translate(-400.872 -213.287)" fill="#fcba95"/>
        <path id="Trazado_887744" data-name="Trazado 887744" d="M150.844,435.657c-1.56-1.09-3.314-1.865-4.861-2.983a46.353,46.353,0,0,1-4.767-3.948c-2.875-2.732-5.437-5.842-8.034-8.835a50.665,50.665,0,0,1-11.3-21.387c-1.022-4.229-2.11-8.812-.823-13.1.648-2.156-2.568-2.968-3.326-.917-1.5,4.064-1.106,8.5-.335,12.67a56.739,56.739,0,0,0,3.888,12.858,51.7,51.7,0,0,0,7.2,11.439,79.365,79.365,0,0,0,9.027,9.649,33.532,33.532,0,0,0,5.987,4.4c2.053,1.122,4.353,2.341,6.747,2.355a1.192,1.192,0,0,0,.6-2.2" transform="translate(-78.995 -259.422)" fill="#d5fffa"/>
      </g>
    </g>
    <g id="Grupo_1101868" data-name="Grupo 1101868" transform="translate(949 2801.203)">
      <g id="Grupo_1101866-2" data-name="Grupo 1101866" clip-path="url(#clip-path)">
        <path id="Trazado_887688-2" data-name="Trazado 887688" d="M424.986,157.662c-10.627,1.5-5.483,1.272-16.384-.771-2.725-.341-5.11-2.385-7.835-3.747-7.495-2.725-14.308-6.132-21.461-9.2-9.2-4.429-18.736-7.835-27.593-12.6a62.611,62.611,0,0,0-14.621,1.5v12.182l48.316,31.645,37.573-2.424Z" transform="translate(-322.932 -88.892)" fill="#fcd1b8"/>
        <path id="Trazado_887689-2" data-name="Trazado 887689" d="M103.19,13.215c.341,6.472,1.022,12.945,4.088,18.736.341.341,0,1.022.341,1.363,3.022,4.7,6.425,8.487,11.242,11.242a21.066,21.066,0,0,1,4.7,13.224,20.286,20.286,0,0,1-.279,3.4,17.424,17.424,0,0,1-1.656,5.083,3.921,3.921,0,0,1-.991,1.059,10.2,10.2,0,0,1-2.879,1.339c.3,1.734,10,57.425,10.748,61.72,1.818.782,6.789,7.787,7.972,9.436,9.981,13.979,27.027,41.61,27.027,41.676l25.818-46.912c-10.386-6.714-26.857-18.487-31.286-30.07-6.095-14.877-6.795-30.5-10.9-46.329-2.725-8.857-6.473-16.692-10.56-24.868-1.55-2.793-2.821-5.583-5.093-7.6-.4-.354-.731-.6-1.158-.92-6.948-5.28-14.217-9.664-16.232-18.729-.341-1.7-.681-3.747-2.385-5.11a2.713,2.713,0,0,0-3.407.681c-.34.341-.681,0-1.022.341-3.066,3.066-4.088,7.154-4.088,11.242" transform="translate(-11.672 -0.404)" fill="#fcd1b8"/>
        <path id="Trazado_887690-2" data-name="Trazado 887690" d="M103.19,196.961c.031,4.128.6,81.98.61,83.2,1.617.695,7.2,1.375,13.779,4.282h0a41.437,41.437,0,0,1,6.023,3.284c12.356,8.2,24.933,21.638,25.321,22.058.027.027-1.225,2.254,25.829-46.9-10.387-6.714-26.857-18.488-31.286-30.07-5.476-13.358-6.642-27.521-9.7-41.291-8.668.66-17.047,1.4-25.185-1.356a15.231,15.231,0,0,1-1.714,4.667,7.4,7.4,0,0,1-3.686,2.129" transform="translate(2.895 -128.705)" fill="#fcd1b8"/>
        <path id="Trazado_887691-2" data-name="Trazado 887691" d="M486.01,250.3a9.174,9.174,0,0,0,5.559-1.783c3.226-2.455,4.033-6.927,2.212-12.268a6.734,6.734,0,0,0-3.741-4.186c-3.077-1.356-7.054-.579-9.75.6-2.261.989-3.913,3.671-4.208,6.83a9.687,9.687,0,0,0,4.164,9.05,10.281,10.281,0,0,0,5.763,1.756m7.258-13.876c2.383,6.991-.248,10.307-2.027,11.661a9.379,9.379,0,0,1-10.688.011,9.151,9.151,0,0,1-3.929-8.551c.277-2.966,1.8-5.472,3.885-6.383,2.59-1.133,6.4-1.886,9.313-.6A6.215,6.215,0,0,1,493.268,236.426Z" transform="translate(-437.589 -156.578)"/>
        <path id="Trazado_887692-2" data-name="Trazado 887692" d="M368.03,112.341a4.851,4.851,0,0,0,2.94-.943c1.707-1.3,2.133-3.664,1.17-6.489a3.563,3.563,0,0,0-1.979-2.214,6.837,6.837,0,0,0-5.157.318,4.292,4.292,0,0,0-2.226,3.613,5.123,5.123,0,0,0,2.2,4.786,5.44,5.44,0,0,0,3.049.929M371.868,105c1.26,3.7-.131,5.451-1.072,6.168a4.961,4.961,0,0,1-5.653.005,4.84,4.84,0,0,1-2.078-4.523,4.007,4.007,0,0,1,2.055-3.376,6.55,6.55,0,0,1,4.926-.318A3.286,3.286,0,0,1,371.868,105" transform="translate(-278.886 -69.248)"/>
        <path id="Trazado_887693-2" data-name="Trazado 887693" d="M333.864,66.123h60.817a10.606,10.606,0,0,1,10.6,10.6V218.41a10.606,10.606,0,0,1-10.6,10.608H333.864a10.606,10.606,0,0,1-10.6-10.608V76.728a10.606,10.606,0,0,1,10.6-10.6" transform="translate(-298.761 -44.752)" fill="#3a1d71"/>
        <path id="Trazado_887694-2" data-name="Trazado 887694" d="M331.693,82.442v136.91a7.891,7.891,0,0,0,7.879,7.883H400.39a7.721,7.721,0,0,0,1.894-.232,7.9,7.9,0,0,0,5.985-7.651V82.442a7.891,7.891,0,0,0-7.879-7.883H377.763a3.859,3.859,0,0,0-3.86,3.86v.061a3.923,3.923,0,1,1-7.845,0v-.061a3.858,3.858,0,0,0-3.86-3.86H339.573a7.891,7.891,0,0,0-7.879,7.883" transform="translate(-304.47 -50.462)" fill="#fff"/>
        <path id="Trazado_887697-2" data-name="Trazado 887697" d="M331.693,437.114v27.617a7.891,7.891,0,0,0,7.879,7.883H400.39a7.891,7.891,0,0,0,7.879-7.883V437.461Z" transform="translate(-304.47 -295.842)" fill="#debefb"/>
        <path id="Trazado_887698-2" data-name="Trazado 887698" d="M439.263,455.439c-1.942-5.7-8.559-5.421-13.125-3.424s-6.277,11.128,0,15.407,17.4.571,13.125-11.983" transform="translate(-365.622 -305.047)" fill="#12263f"/>
        <path id="Trazado_887707-2" data-name="Trazado 887707" d="M423.256,287.807c-.055-.024-.055-.02,0,0" transform="translate(-349.036 -194.779)" fill="#f2a298"/>
        <path id="Trazado_887716-2" data-name="Trazado 887716" d="M331.693,82.442V98.32l76.576.348V82.442a7.891,7.891,0,0,0-7.879-7.883H377.763a3.859,3.859,0,0,0-3.86,3.86v.061a3.923,3.923,0,1,1-7.845,0v-.061a3.858,3.858,0,0,0-3.86-3.86H339.573a7.891,7.891,0,0,0-7.879,7.883" transform="translate(-304.47 -50.462)" fill="#debefb"/>
        <path id="Trazado_887720-2" data-name="Trazado 887720" d="M230.451,12.811c.341,6.472,1.022,12.945,4.088,18.736.341.341,0,1.022.341,1.363,3.022,4.7,6.425,8.487,11.242,11.242a21.1,21.1,0,0,1,4.633,14.955c-.116,1.357-.236,1.669-.208,1.669,8.189,2.759,16.212,2.033,24.905,1.369.029,0-.7-2.994-1.056-4.367-2.725-8.857-6.473-16.692-10.56-24.868-1.55-2.793-2.82-5.583-5.093-7.6-.4-.354-.731-.6-1.158-.92-6.948-5.28-14.217-9.664-16.232-18.729-.341-1.7-.681-3.747-2.385-5.11a2.883,2.883,0,0,0-3.613.183c-.341.341-.475.5-.816.839-3.066,3.066-4.088,7.154-4.088,11.242" transform="translate(-138.933 0)" fill="#fcd1b8"/>
        <path id="Trazado_887721-2" data-name="Trazado 887721" d="M.369,440.582c1.073,1.789,19.336,22.2,19.336,22.2s.675-.126,1.884-.477A61.046,61.046,0,0,0,36.5,455.448a80.169,80.169,0,0,0,16.845-14.185,57.535,57.535,0,0,0,7.934-10.778,76.514,76.514,0,0,0,7.041-16.829c.726-2.544,1.029-4.115,1.029-4.115-1.789-.358-9.528-4.091-17.775-6.915C45.359,400.5,36.891,390.451,34.026,388.3s-5.011-2.15-5.369-.715c-.373,1.47,2.327,13.2-6.592,29.014-4.023,7-10.644,15.542-17.782,19.254A13.729,13.729,0,0,1,1.442,437a2.57,2.57,0,0,0-1.073,3.58" transform="translate(141.651 -261.646)" fill="#a854f3"/>
        <path id="Trazado_887722-2" data-name="Trazado 887722" d="M564.381,203.039s0,0,.007,0c1.618.9,6.268,3.223,10.959,5.321,0,0,0,0,.007,0h0c4.7,2.105,9.436,3.982,11.224,3.982a2.476,2.476,0,0,0,.824-.14c3.015-1.025,4.384-7.593,3.114-11.252a8.613,8.613,0,0,0-3.124-3.233c-.381-.272-.787-.552-1.209-.828-.136-.089-.276-.181-.416-.269l0,0a105.9,105.9,0,0,0-12.1-6.292c-.174-.079-.33-.147-.46-.2-.337-.15-.525-.232-.525-.232a9.33,9.33,0,0,0-3.2-.293,4.018,4.018,0,0,0-3.539,2.337c-1.57,3.58-4.793,9.307-1.57,11.1" transform="translate(-561.952 -128.3)" fill="#fcd1b8"/>
        <path id="Trazado_887723-2" data-name="Trazado 887723" d="M563.849,242.11a3.857,3.857,0,0,0,.405.5,7.58,7.58,0,0,0,1.877,1.38c3.587,1.955,9.981,3.039,15.568,3.877a23.3,23.3,0,0,0,4.548.286c.337-.017.658-.041.964-.079h0c3.434-.415,5.045-2.119,4.626-4.861-.453-2.984-2.753-5.556-3.839-6.629-.347-.344-.572-.531-.572-.531s-.807-.463-2.1-1.2c-4.936-2.821-16.921-9.674-17.772-10.189-.579-.351-1.526.6-2.32,2.085-.01.017-.02.037-.031.058a12.863,12.863,0,0,0-.858,2.044,11.248,11.248,0,0,0-.5,2.371c-.307,3.4-2.2,7.7,0,10.894" transform="translate(-562.798 -152.001)" fill="#fcd1b8"/>
        <path id="Trazado_887724-2" data-name="Trazado 887724" d="M557.384,282.213s-2.939,1.611-3.529,3.044a13.2,13.2,0,0,0,0,6.982c.664,1.611,1.022,2.506,5.856,4.118s17.187,4.655,18.977,4.655,6.266-2.506,6.266-5.55-4.124-6.355-6.266-7.34-16.113-5.908-16.113-5.908Z" transform="translate(-552.805 -191.004)" fill="#fcd1b8"/>
        <path id="Trazado_887725-2" data-name="Trazado 887725" d="M553.055,150.124a10.083,10.083,0,0,0,2.34,2.824,14.139,14.139,0,0,0,1.152.886,22.22,22.22,0,0,0,2.623,1.54c1.363.695,2.776,1.3,4.1,1.9l.988.988.034.034a14.64,14.64,0,0,0,5.226,2.3,8.525,8.525,0,0,0,1.247.157,7.337,7.337,0,0,0,3.747-.756c3.406-1.7,3.437-6.033,2.562-9.372-.48-1.833-15.415-15.135-17.523-14.679a6.727,6.727,0,0,0-3.066,1.369,20.927,20.927,0,0,0-3.434,12.8" transform="translate(-545.288 -92.006)" fill="#fcd1b8"/>
        <path id="Trazado_887726-2" data-name="Trazado 887726" d="M266.2,343.35l.034,6.089a24.625,24.625,0,0,0,4.422,2.96,19.47,19.47,0,0,0,4.446,1.615c3.274.77,6.943.767,9.406-1.012a.291.291,0,0,0-.068-.525c-2.068-.5-4.248-.375-6.347-.766a19.446,19.446,0,0,1-3.574-1.043,24.171,24.171,0,0,1-2.483-1.155,18.118,18.118,0,0,1-4.878-3.819,8.722,8.722,0,0,1-.957-2.345" transform="translate(-159.676 -232.382)" fill="#fcc19f"/>
        <path id="Trazado_887727-2" data-name="Trazado 887727" d="M220.427,395.985c-2.814,3.415-5.939,6.553-8.682,10.032q-2.135,2.709-4.049,5.583c-1.246,1.869-2.146,4.013-3.478,5.809a.815.815,0,0,1-1.406-.822,36.5,36.5,0,0,1,3.851-5.931q1.893-2.733,3.985-5.321a49.75,49.75,0,0,1,9.584-9.6c.158-.112.3.121.194.251" transform="translate(-74.984 -267.815)" fill="#fcc19f"/>
        <path id="Trazado_887728-2" data-name="Trazado 887728" d="M576.677,230.885c.12-2.045-1.49-2.916-3.309-3.746q-2.5-1.139-5.071-2.088a2.485,2.485,0,0,0-1.069-.22c-.787.073-1.37.864-1.784,1.45a3.889,3.889,0,0,0-.739,2.267c.017,1.676,1.122,2.148,2.155,2.569,2.153.877,4.172,2.215,6.46,2.632a4.319,4.319,0,0,0,2.8-.854,5.831,5.831,0,0,0,.554-2.01" transform="translate(-548.193 -152.164)" fill="#fcece3"/>
        <path id="Trazado_887729-2" data-name="Trazado 887729" d="M563.278,180.138a2.614,2.614,0,0,0-1.234-.369,2.472,2.472,0,0,0-1.7,1.175,10.84,10.84,0,0,0-1.453,2.634.811.811,0,0,0,.245,1.1q1.068,1.029,2.183,2a11.129,11.129,0,0,0,3.513,2.3,4.081,4.081,0,0,0,3.944-.513c1.081-.9,1.1-3.453.225-4.591a47.444,47.444,0,0,0-5.724-3.737" transform="translate(-539.221 -121.668)" fill="#fcece3"/>
        <path id="Trazado_887730-2" data-name="Trazado 887730" d="M575.124,271.74,571.1,270.5a3.19,3.19,0,0,0-2.057-.157c-1.2.463-1.365,2.057-1.339,3.338a2.228,2.228,0,0,0,.378,1.462,2.127,2.127,0,0,0,.947.528,27.252,27.252,0,0,0,3.446.933,7.48,7.48,0,0,0,2.769.158,3.093,3.093,0,0,0,2.241-1.493,2.4,2.4,0,0,0-.106-2.346c-.441-.691-2.257-1.187-2.257-1.187" transform="translate(-550.222 -182.892)" fill="#fcece3"/>
        <path id="Trazado_887731-2" data-name="Trazado 887731" d="M562.864,313.314a17.4,17.4,0,0,0-4.871-.764,1.263,1.263,0,0,0-.513.067,1.318,1.318,0,0,0-.559.624,5.714,5.714,0,0,0-.729,1.708,1.934,1.934,0,0,0,.446,1.735,2.8,2.8,0,0,0,1.529.6q2.357.405,4.741.612a3.2,3.2,0,0,0,1.672-.162,2.012,2.012,0,0,0,.794-2.593c-.417-.911-2.51-1.831-2.51-1.831" transform="translate(-534.301 -211.535)" fill="#fcece3"/>
        <path id="Trazado_887732-2" data-name="Trazado 887732" d="M293.352,74.168a11.917,11.917,0,0,0,3.124-3.406,3.047,3.047,0,0,0,.674-2.1c-.446-.334-.892-.664-1.335-.995a.653.653,0,0,0-.3.566c.126,1.986-2.626,3.032-3.41,4.691a.918.918,0,0,0,1.243,1.247" transform="translate(-180.546 -45.796)" fill="#fcc19f"/>
        <path id="Trazado_887733-2" data-name="Trazado 887733" d="M283.851,79.556a9.313,9.313,0,0,0,2.078-3.182c-.222-.2-.456-.388-.7-.572l-.46-.347a19.622,19.622,0,0,1-2.323,2.695.994.994,0,0,0,1.4,1.407" transform="translate(-166.119 -51.068)" fill="#fcc19f"/>
        <path id="Trazado_887734-2" data-name="Trazado 887734" d="M302.842,130.359a16.239,16.239,0,0,0,2.541,1.008,17.449,17.449,0,0,0,5.665.542c.886-.048,1.107,1.417.215,1.567a14.478,14.478,0,0,1-4.469.082Z" transform="translate(-198.71 -88.228)" fill="#fcc19f"/>
        <path id="Trazado_887735-2" data-name="Trazado 887735" d="M312.7,208.919c-.143.542-.262,1.1-.358,1.656s-.174,1.117-.228,1.679a42.349,42.349,0,0,0-.177,4.926q.026,2.029.242,4.044a45.369,45.369,0,0,0,1.547,7.91,1.259,1.259,0,0,0,1.959.637,1.089,1.089,0,0,0,.443-1.3,43.389,43.389,0,0,1-2.081-11.293c-.133-3.025.286-6.029.385-9.034Z" transform="translate(-206.01 -140.875)" fill="#fcc19f"/>
        <path id="Trazado_887736-2" data-name="Trazado 887736" d="M333.715,12.855a.585.585,0,0,1-.8.707,5.138,5.138,0,0,1-1.232-.812,12.737,12.737,0,0,1-3.7-4.939c-.768-1.931-.235-4.579.447-6.542,1.4.2,1.986,2.031,2.67,3.274a25.743,25.743,0,0,1,2.612,8.312" transform="translate(-228.624 -0.859)" fill="#fcece3"/>
        <path id="Trazado_887737-2" data-name="Trazado 887737" d="M576.351,282.627c.9.4,1.874.695,2.654.967a39.582,39.582,0,0,0,6.5,1.669,68.648,68.648,0,0,0,13.388,1.117.027.027,0,0,0,.017,0c.262-.027.334-.443.051-.5-.119-.024-.239-.044-.358-.065-.7-.129-1.4-.242-2.1-.347-3.441-.507-6.912-.8-10.319-1.574A53.888,53.888,0,0,1,580,282.16q-1-.358-1.989-.76c-.446-.181-.889-.368-1.325-.566-.385-.174-.712-.351-1.042-.487Z" transform="translate(-574.191 -189.741)" fill="#fcc19f"/>
        <path id="Trazado_887738-2" data-name="Trazado 887738" d="M573.908,233.485c.862.548,1.8.991,2.514,1.376a67.163,67.163,0,0,0,6.418,3.015,47.356,47.356,0,0,0,7.348,2.422,24.855,24.855,0,0,0,7.236.961.4.4,0,0,0,.14-.038.49.49,0,0,0,.252-.671.407.407,0,0,0-.167-.126,22.626,22.626,0,0,0-2.759-.937c-1.291-.354-2.606-.657-3.866-1.053-1.758-.552-3.522-1.1-5.26-1.727,0,0,0,0-.007,0q-.6-.215-1.2-.44a62.856,62.856,0,0,1-6.8-3.073,27.64,27.64,0,0,1-2.8-1.615c-.065-.045-.126-.089-.187-.136a12.892,12.892,0,0,0-.858,2.044" transform="translate(-572.36 -156.641)" fill="#fcc19f"/>
        <path id="Trazado_887739-2" data-name="Trazado 887739" d="M573.53,188.924a11.289,11.289,0,0,0,2.947,2.337,52.133,52.133,0,0,0,4.926,2.947c1.591.831,3.212,1.581,4.878,2.252,1.578.634,3.4,1.274,5.066.637a.327.327,0,0,0,.089-.051.412.412,0,0,0,.037-.671.424.424,0,0,0-.126-.048c-.518-.1-1.029-.228-1.536-.378l0,0a26.564,26.564,0,0,1-4.841-2.065c-1.138-.6-2.248-1.243-3.335-1.863-.589-.341-1.175-.682-1.758-1.029q-1.094-.649-2.163-1.335c-.157-.1-.313-.2-.467-.3-.388-.252-.763-.528-1.144-.79a14.092,14.092,0,0,0,1.151.886l-.525-.232a9.33,9.33,0,0,0-3.2-.293" transform="translate(-565.991 -127.621)" fill="#fcc19f"/>
        <path id="Trazado_887740-2" data-name="Trazado 887740" d="M593.777,168.327c-.91-.075-1.419,1.051-1.783,1.731a17.977,17.977,0,0,0-1.018,2.29.986.986,0,1,1-1.81-.763c.735-1.416,2.673-5.084,4.771-3.853.259.152.165.622-.161.595" transform="translate(-573.459 -113.354)" fill="#fcba95"/>
        <path id="Trazado_887741-2" data-name="Trazado 887741" d="M606.682,221.887a5.381,5.381,0,0,0-1.32,1.954,4.13,4.13,0,0,0,.065,2.265c.149.745-.949,1.338-1.313.554-.868-1.866.271-4.706,2.32-5.2a.257.257,0,0,1,.249.427" transform="translate(-590.905 -149.88)" fill="#fcba95"/>
        <path id="Trazado_887742-2" data-name="Trazado 887742" d="M605.776,269.257c-.2.065.027,1.614.043,1.829a7.287,7.287,0,0,1,0,1.943.692.692,0,0,1-1.324,0c-.126-.671-.231-5.428,1.368-4.414a.356.356,0,0,1-.084.642" transform="translate(-590.375 -181.705)" fill="#fcba95"/>
        <path id="Trazado_887743-2" data-name="Trazado 887743" d="M593.736,315.312c-.006.142.06.268.054.418-.009.209-.038.424-.052.634a2.5,2.5,0,0,0,.08,1.251c.631,1.267-1.551,1.694-1.517.411a5.505,5.505,0,0,1,.214-1.828,2.463,2.463,0,0,1,.417-.686c.2-.254.293-.208.542-.353a.177.177,0,0,1,.264.152" transform="translate(-574.359 -213.288)" fill="#fcba95"/>
        <path id="Trazado_887744-2" data-name="Trazado 887744" d="M117.262,435.657c1.56-1.09,3.314-1.865,4.861-2.983a46.353,46.353,0,0,0,4.767-3.948c2.875-2.732,5.437-5.842,8.034-8.835a50.665,50.665,0,0,0,11.3-21.387c1.022-4.229,2.11-8.812.823-13.1-.648-2.156,2.568-2.968,3.326-.917,1.5,4.064,1.106,8.5.335,12.67a56.738,56.738,0,0,1-3.888,12.858,51.7,51.7,0,0,1-7.2,11.439,79.367,79.367,0,0,1-9.027,9.649,33.532,33.532,0,0,1-5.987,4.4c-2.053,1.122-4.353,2.341-6.747,2.355a1.192,1.192,0,0,1-.6-2.2" transform="translate(21.889 -259.422)" fill="#3a1d71"/>
      </g>
    </g>
    <g id="Grupo_1101870" data-name="Grupo 1101870" transform="translate(731 2755)">
      <g id="Enmascarar_grupo_1101869" data-name="Enmascarar grupo 1101869" clip-path="url(#clip-path-3)">
        <path id="Trazado_887745" data-name="Trazado 887745" d="M159.344,385.145l-130.856-.078A28.5,28.5,0,0,1,0,356.558L.064,28.5A28.5,28.5,0,0,1,28.586,0L159.442.077a28.5,28.5,0,0,1,28.487,28.51l-.064,328.059a28.5,28.5,0,0,1-28.521,28.5" fill="#263238"/>
        <path id="Trazado_887746" data-name="Trazado 887746" d="M159.3,11.68l-25.371-.015a6.3,6.3,0,0,0-6.161,6.437l0,4.6a6.3,6.3,0,0,1-6.161,6.437l-49.453-.03A6.309,6.309,0,0,1,66,22.667v-4.6a6.307,6.307,0,0,0-6.16-6.443l-8.922-.006L28.708,11.6A19.963,19.963,0,0,0,8.734,31.563L8.671,351.772A19.964,19.964,0,0,0,28.622,371.74l130.595.076a19.964,19.964,0,0,0,19.974-19.959l.063-320.21A19.963,19.963,0,0,0,159.3,11.68" fill="#fff"/>
        <path id="Trazado_887747" data-name="Trazado 887747" d="M179.254,31.647A19.964,19.964,0,0,0,159.3,11.68l-25.371-.015a6.3,6.3,0,0,0-6.161,6.437l0,4.6a6.3,6.3,0,0,1-6.161,6.437l-49.454-.029A6.309,6.309,0,0,1,66,22.668v-4.6a6.308,6.308,0,0,0-6.16-6.444l-8.922-.006L28.708,11.6A19.963,19.963,0,0,0,8.734,31.563l-.063,30.62h170.58Z" fill="#f5f5f5"/>
        <path id="Trazado_887748" data-name="Trazado 887748" d="M165.374,42.9a67.74,67.74,0,0,1-6.826.229,67.9,67.9,0,0,1-6.83-.116,67.379,67.379,0,0,1,6.827-.229,67.187,67.187,0,0,1,6.829.116" fill="#263238"/>
        <path id="Trazado_887749" data-name="Trazado 887749" d="M165.4,46.392a67.74,67.74,0,0,1-6.826.229,67.9,67.9,0,0,1-6.83-.116,67.38,67.38,0,0,1,6.827-.229,67.9,67.9,0,0,1,6.829.116" fill="#263238"/>
        <path id="Trazado_887750" data-name="Trazado 887750" d="M165.432,49.886a67.391,67.391,0,0,1-6.826.229,67.894,67.894,0,0,1-6.83-.116,67.732,67.732,0,0,1,6.827-.229,67.538,67.538,0,0,1,6.829.116" fill="#263238"/>
      </g>
    </g>
    <path id="Trazado_887966" data-name="Trazado 887966" d="M0,0H119V38H0Z" transform="translate(766 2868)" fill="#f0c518"/>
    <path id="Trazado_887751" data-name="Trazado 887751" d="M30-.113V26H0Z" transform="translate(796 2921) rotate(180)" fill="#f0c518"/>
    <path id="Trazado_887967" data-name="Trazado 887967" d="M11.663,0H8.6V-5.344H4.052V0H.967V-12.8H4.052v5.08H8.6V-12.8h3.067ZM13.1-4.843a5.613,5.613,0,0,1,.554-2.536,3.96,3.96,0,0,1,1.591-1.709,4.791,4.791,0,0,1,2.435-.6A4.373,4.373,0,0,1,21.05-8.363a5.076,5.076,0,0,1,1.23,3.6v.105a4.925,4.925,0,0,1-1.235,3.529A4.384,4.384,0,0,1,17.7.176,4.434,4.434,0,0,1,14.44-1.042a4.761,4.761,0,0,1-1.327-3.3Zm2.962.185a3.538,3.538,0,0,0,.413,1.934,1.376,1.376,0,0,0,1.222.615q1.582,0,1.617-2.435v-.3q0-2.558-1.635-2.558-1.485,0-1.608,2.206ZM26.71,0H23.739V-13.5H26.71Zm7.181,0a3.344,3.344,0,0,1-.281-.853A2.754,2.754,0,0,1,31.324.176a3.374,3.374,0,0,1-2.285-.813,2.588,2.588,0,0,1-.94-2.043,2.66,2.66,0,0,1,1.143-2.338,5.821,5.821,0,0,1,3.322-.791h.914v-.5q0-1.316-1.134-1.316a.927.927,0,0,0-1.055,1.042H28.327A2.655,2.655,0,0,1,29.5-8.825a4.931,4.931,0,0,1,2.993-.86,4.323,4.323,0,0,1,2.874.888,3.086,3.086,0,0,1,1.081,2.435v4.21a4.311,4.311,0,0,0,.4,2V0ZM32.036-1.934a1.652,1.652,0,0,0,.918-.237,1.487,1.487,0,0,0,.523-.536V-4.228h-.861q-1.547,0-1.547,1.389a.848.848,0,0,0,.272.655A.986.986,0,0,0,32.036-1.934ZM45.51-4.052h-2.4L42.732-12.8h3.155ZM42.645-1.327a1.364,1.364,0,0,1,.47-1.068,1.7,1.7,0,0,1,1.173-.417,1.7,1.7,0,0,1,1.173.417,1.364,1.364,0,0,1,.47,1.068,1.364,1.364,0,0,1-.47,1.068,1.7,1.7,0,0,1-1.173.417,1.7,1.7,0,0,1-1.173-.417A1.364,1.364,0,0,1,42.645-1.327Z" transform="translate(802 2895)" fill="#12263f"/>
    <path id="Trazado_887968" data-name="Trazado 887968" d="M8,0H244a8,8,0,0,1,8,8V54a8,8,0,0,1-8,8H8a8,8,0,0,1-8-8V8A8,8,0,0,1,8,0Z" transform="translate(453 3009)" fill="#cefff9"/>
    <path id="Trazado_887969" data-name="Trazado 887969" d="M8,0H244a8,8,0,0,1,8,8V54a8,8,0,0,1-8,8H8a8,8,0,0,1-8-8V8A8,8,0,0,1,8,0Z" transform="translate(945 3009)" fill="#f2e5fd"/>
    <path id="Trazado_887970" data-name="Trazado 887970" d="M9.893-6.035H4.5v3.4h6.367V0H1.074V-14.219h9.814v2.646H4.5v3H9.893Zm5.332-4.531.107,1.24a3.633,3.633,0,0,1,3.018-1.436A2.675,2.675,0,0,1,21.055-9.17a3.517,3.517,0,0,1,3.105-1.592q3.213,0,3.3,3.887V0h-3.3V-6.67a2.014,2.014,0,0,0-.273-1.182,1.164,1.164,0,0,0-1-.371,1.559,1.559,0,0,0-1.455.869l.01.137V0h-3.3V-6.65a2.117,2.117,0,0,0-.264-1.2,1.161,1.161,0,0,0-1.006-.371,1.578,1.578,0,0,0-1.445.869V0H12.139V-10.566ZM32.813,0h-3.3V-10.566h3.3Zm-3.5-13.3a1.482,1.482,0,0,1,.508-1.159,1.909,1.909,0,0,1,1.318-.452,1.909,1.909,0,0,1,1.318.452,1.482,1.482,0,0,1,.508,1.159,1.482,1.482,0,0,1-.508,1.159,1.909,1.909,0,0,1-1.318.452,1.909,1.909,0,0,1-1.318-.452A1.482,1.482,0,0,1,29.316-13.3ZM40.371-2.969a.76.76,0,0,0-.439-.674,6.685,6.685,0,0,0-1.67-.527,7.615,7.615,0,0,1-2.031-.718A3.4,3.4,0,0,1,35.01-5.967a2.577,2.577,0,0,1-.42-1.455,2.92,2.92,0,0,1,1.2-2.4,4.948,4.948,0,0,1,3.145-.942,5.482,5.482,0,0,1,3.359.947,2.962,2.962,0,0,1,1.27,2.49h-3.3q0-1.27-1.338-1.27a1.326,1.326,0,0,0-.869.288.892.892,0,0,0-.352.718.819.819,0,0,0,.43.713,4.06,4.06,0,0,0,1.372.449,11.857,11.857,0,0,1,1.655.42,3.007,3.007,0,0,1,2.383,2.939A2.767,2.767,0,0,1,42.261-.713,5.632,5.632,0,0,1,38.936.2a5.747,5.747,0,0,1-2.422-.488,4.05,4.05,0,0,1-1.66-1.328,3.007,3.007,0,0,1-.6-1.768h3.076a1.272,1.272,0,0,0,.488,1.069,2.009,2.009,0,0,0,1.2.337,1.58,1.58,0,0,0,1.011-.273A.875.875,0,0,0,40.371-2.969Zm4.3-2.412A6.236,6.236,0,0,1,45.283-8.2a4.4,4.4,0,0,1,1.768-1.9,5.323,5.323,0,0,1,2.705-.664,4.858,4.858,0,0,1,3.74,1.47,5.64,5.64,0,0,1,1.367,4v.117a5.472,5.472,0,0,1-1.372,3.921A4.871,4.871,0,0,1,49.775.2a4.927,4.927,0,0,1-3.623-1.353,5.29,5.29,0,0,1-1.475-3.667Zm3.291.205a3.932,3.932,0,0,0,.459,2.148,1.529,1.529,0,0,0,1.357.684q1.758,0,1.8-2.705v-.332q0-2.842-1.816-2.842-1.65,0-1.787,2.451ZM62.705-7.588l-1.084-.078a1.947,1.947,0,0,0-1.992.977V0H56.338V-10.566h3.086l.107,1.357a2.548,2.548,0,0,1,2.314-1.553,3.209,3.209,0,0,1,.918.117Z" transform="translate(552 3038)" fill="#12263f"/>
    <path id="Trazado_887971" data-name="Trazado 887971" d="M6.357-5.029H4.5V0H1.074V-14.219h5.6A6.246,6.246,0,0,1,10.625-13.1a3.8,3.8,0,0,1,1.426,3.17,4.616,4.616,0,0,1-.6,2.458,4.263,4.263,0,0,1-1.88,1.58L12.539-.147V0H8.867ZM4.5-7.666H6.67A1.946,1.946,0,0,0,8.14-8.18a1.987,1.987,0,0,0,.493-1.434,2.01,2.01,0,0,0-.5-1.444,1.928,1.928,0,0,0-1.465-.524H4.5ZM19.082.2a5.432,5.432,0,0,1-3.936-1.45,5.008,5.008,0,0,1-1.5-3.774V-5.3a6.489,6.489,0,0,1,.6-2.861A4.395,4.395,0,0,1,16-10.083a5.292,5.292,0,0,1,2.734-.679A4.574,4.574,0,0,1,22.246-9.38a5.43,5.43,0,0,1,1.289,3.853v1.279H16.992a2.372,2.372,0,0,0,.771,1.4,2.3,2.3,0,0,0,1.543.508,2.958,2.958,0,0,0,2.441-1.094l1.5,1.777A4.2,4.2,0,0,1,21.509-.308,5.891,5.891,0,0,1,19.082.2Zm-.371-8.418q-1.445,0-1.719,1.914h3.32v-.254a1.63,1.63,0,0,0-.4-1.226A1.593,1.593,0,0,0,18.711-8.223ZM29.326-2.344A1.464,1.464,0,0,0,30.4-2.72a1.379,1.379,0,0,0,.371-1.05h3.086A3.653,3.653,0,0,1,32.612-.918,4.631,4.631,0,0,1,29.4.2,4.689,4.689,0,0,1,25.771-1.25a5.7,5.7,0,0,1-1.328-4v-.137a6.436,6.436,0,0,1,.591-2.827,4.3,4.3,0,0,1,1.7-1.885,5.081,5.081,0,0,1,2.637-.659,4.573,4.573,0,0,1,3.271,1.143,4.053,4.053,0,0,1,1.211,3.1H30.771a1.807,1.807,0,0,0-.4-1.26A1.382,1.382,0,0,0,29.3-8.223q-1.279,0-1.494,1.631a11.508,11.508,0,0,0-.068,1.426,4.52,4.52,0,0,0,.381,2.207A1.319,1.319,0,0,0,29.326-2.344ZM40.361.2a5.432,5.432,0,0,1-3.936-1.45,5.008,5.008,0,0,1-1.5-3.774V-5.3a6.489,6.489,0,0,1,.6-2.861,4.395,4.395,0,0,1,1.753-1.919,5.292,5.292,0,0,1,2.734-.679A4.574,4.574,0,0,1,43.525-9.38a5.43,5.43,0,0,1,1.289,3.853v1.279H38.271a2.372,2.372,0,0,0,.771,1.4,2.3,2.3,0,0,0,1.543.508,2.958,2.958,0,0,0,2.441-1.094l1.5,1.777A4.2,4.2,0,0,1,42.788-.308,5.891,5.891,0,0,1,40.361.2ZM39.99-8.223q-1.445,0-1.719,1.914h3.32v-.254a1.63,1.63,0,0,0-.4-1.226A1.593,1.593,0,0,0,39.99-8.223ZM55.947-5.205a6.372,6.372,0,0,1-1.108,3.931A3.554,3.554,0,0,1,51.846.2,3.046,3.046,0,0,1,49.453-.869V4.063H46.162V-10.566h3.076l.1.977a3.046,3.046,0,0,1,2.49-1.172,3.582,3.582,0,0,1,3.037,1.44,6.45,6.45,0,0,1,1.084,3.96ZM52.656-5.41q0-2.812-1.641-2.812a1.549,1.549,0,0,0-1.562.84v4.16a1.6,1.6,0,0,0,1.582.879q1.572,0,1.621-2.715Zm8.574-7.783v2.627h1.738v2.285H61.23v4.834a1.234,1.234,0,0,0,.215.83,1.152,1.152,0,0,0,.85.234,4.828,4.828,0,0,0,.82-.059V-.088A6.074,6.074,0,0,1,61.26.2a3.448,3.448,0,0,1-2.51-.8,3.282,3.282,0,0,1-.811-2.432V-8.281H56.592v-2.285h1.348v-2.627Zm2.324,7.813A6.236,6.236,0,0,1,64.17-8.2a4.4,4.4,0,0,1,1.768-1.9,5.323,5.323,0,0,1,2.705-.664,4.858,4.858,0,0,1,3.74,1.47,5.64,5.64,0,0,1,1.367,4v.117a5.472,5.472,0,0,1-1.372,3.921A4.871,4.871,0,0,1,68.662.2a4.927,4.927,0,0,1-3.623-1.353,5.29,5.29,0,0,1-1.475-3.667Zm3.291.205A3.932,3.932,0,0,0,67.3-3.027a1.529,1.529,0,0,0,1.357.684q1.758,0,1.8-2.705v-.332q0-2.842-1.816-2.842-1.65,0-1.787,2.451ZM81.592-7.588l-1.084-.078a1.947,1.947,0,0,0-1.992.977V0H75.225V-10.566h3.086l.107,1.357a2.548,2.548,0,0,1,2.314-1.553,3.209,3.209,0,0,1,.918.117Z" transform="translate(1023 3038)" fill="#12263f"/>
    <path id="Trazado_887972" data-name="Trazado 887972" d="M8,0H244a8,8,0,0,1,8,8V54a8,8,0,0,1-8,8H8a8,8,0,0,1-8-8V8A8,8,0,0,1,8,0Z" transform="translate(697 2662)" fill="#dee4f0"/>
    <path id="Trazado_887973" data-name="Trazado 887973" d="M12.578-4.814a5.193,5.193,0,0,1-.8,2.622A4.833,4.833,0,0,1,9.722-.43,7,7,0,0,1,6.7.2,5.584,5.584,0,0,1,2.285-1.631,7.54,7.54,0,0,1,.674-6.787v-.7A8.607,8.607,0,0,1,1.4-11.147,5.513,5.513,0,0,1,3.5-13.569a5.844,5.844,0,0,1,3.164-.854,6.129,6.129,0,0,1,4.16,1.362,5.383,5.383,0,0,1,1.787,3.755H9.189a2.547,2.547,0,0,0-.654-1.865,2.691,2.691,0,0,0-1.875-.566,2.048,2.048,0,0,0-1.875.957A6.151,6.151,0,0,0,4.16-7.725v1.006a6.806,6.806,0,0,0,.571,3.252A2.091,2.091,0,0,0,6.7-2.49a2.632,2.632,0,0,0,1.807-.557A2.363,2.363,0,0,0,9.17-4.814Zm1.055-.566A6.236,6.236,0,0,1,14.248-8.2a4.4,4.4,0,0,1,1.768-1.9,5.323,5.323,0,0,1,2.705-.664,4.858,4.858,0,0,1,3.74,1.47,5.64,5.64,0,0,1,1.367,4v.117a5.472,5.472,0,0,1-1.372,3.921A4.871,4.871,0,0,1,18.74.2a4.927,4.927,0,0,1-3.623-1.353,5.29,5.29,0,0,1-1.475-3.667Zm3.291.205a3.932,3.932,0,0,0,.459,2.148,1.529,1.529,0,0,0,1.357.684q1.758,0,1.8-2.705v-.332q0-2.842-1.816-2.842-1.65,0-1.787,2.451ZM19.17-15h3.477l-2.715,3.066-2.686,0Zm5.693,9.639a6.455,6.455,0,0,1,1.084-3.955,3.568,3.568,0,0,1,3.027-1.445,3.035,3.035,0,0,1,2.383,1.113V-15h3.3V0H31.7l-.166-1.133A3.116,3.116,0,0,1,28.955.2,3.562,3.562,0,0,1,25.967-1.25,6.659,6.659,0,0,1,24.863-5.361Zm3.291.205q0,2.813,1.641,2.813a1.62,1.62,0,0,0,1.563-.918V-7.285a1.576,1.576,0,0,0-1.543-.937q-1.523,0-1.65,2.461ZM40,0H36.7V-10.566H40ZM36.5-13.3a1.482,1.482,0,0,1,.508-1.159,1.909,1.909,0,0,1,1.318-.452,1.909,1.909,0,0,1,1.318.452,1.482,1.482,0,0,1,.508,1.159,1.482,1.482,0,0,1-.508,1.159,1.909,1.909,0,0,1-1.318.452,1.909,1.909,0,0,1-1.318-.452A1.482,1.482,0,0,1,36.5-13.3Zm5.137,7.939a7.134,7.134,0,0,1,.527-2.832,4.245,4.245,0,0,1,1.514-1.9,3.99,3.99,0,0,1,2.295-.669,3.173,3.173,0,0,1,2.578,1.113l.117-.918H51.66V-.4a4.455,4.455,0,0,1-.649,2.427,4.167,4.167,0,0,1-1.88,1.582,6.91,6.91,0,0,1-2.852.552,5.961,5.961,0,0,1-2.251-.439,4.063,4.063,0,0,1-1.665-1.143L43.74.645a3.018,3.018,0,0,0,2.422,1.084A1.96,1.96,0,0,0,48.35-.518V-.85A3.09,3.09,0,0,1,45.957.2a3.819,3.819,0,0,1-3.125-1.479,6.13,6.13,0,0,1-1.191-3.96Zm3.3.205A3.759,3.759,0,0,0,45.43-3.1a1.541,1.541,0,0,0,1.367.757,1.748,1.748,0,0,0,1.553-.713V-7.5a1.7,1.7,0,0,0-1.533-.723,1.551,1.551,0,0,0-1.377.786A4.287,4.287,0,0,0,44.941-5.156Zm8.174-.225A6.236,6.236,0,0,1,53.73-8.2,4.4,4.4,0,0,1,55.5-10.1a5.323,5.323,0,0,1,2.705-.664,4.858,4.858,0,0,1,3.74,1.47,5.64,5.64,0,0,1,1.367,4v.117a5.472,5.472,0,0,1-1.372,3.921A4.871,4.871,0,0,1,58.223.2,4.927,4.927,0,0,1,54.6-1.157a5.29,5.29,0,0,1-1.475-3.667Zm3.291.205a3.932,3.932,0,0,0,.459,2.148,1.529,1.529,0,0,0,1.357.684q1.758,0,1.8-2.705v-.332q0-2.842-1.816-2.842-1.65,0-1.787,2.451Z" transform="translate(791 2691)" fill="#12263f"/>
    <path id="Trazado_887974" data-name="Trazado 887974" d="M8,0H244a8,8,0,0,1,8,8V54a8,8,0,0,1-8,8H8a8,8,0,0,1-8-8V8A8,8,0,0,1,8,0Z" transform="translate(697 2934)" fill="#fff0b5"/>
    <path id="Trazado_887975" data-name="Trazado 887975" d="M5.576-14.219,8.75-4.326l3.164-9.893h4.512V0H12.988V-3.32l.332-6.8L9.883,0H7.617L4.17-10.127,4.5-3.32V0H1.074V-14.219ZM23.564.2a5.432,5.432,0,0,1-3.936-1.45,5.008,5.008,0,0,1-1.5-3.774V-5.3a6.489,6.489,0,0,1,.6-2.861,4.395,4.395,0,0,1,1.753-1.919,5.292,5.292,0,0,1,2.734-.679A4.574,4.574,0,0,1,26.729-9.38a5.43,5.43,0,0,1,1.289,3.853v1.279H21.475a2.372,2.372,0,0,0,.771,1.4,2.3,2.3,0,0,0,1.543.508A2.958,2.958,0,0,0,26.23-3.437l1.5,1.777A4.2,4.2,0,0,1,25.991-.308,5.891,5.891,0,0,1,23.564.2Zm-.371-8.418q-1.445,0-1.719,1.914h3.32v-.254a1.63,1.63,0,0,0-.4-1.226A1.593,1.593,0,0,0,23.193-8.223Zm9.17-2.344.107,1.24a3.583,3.583,0,0,1,3.018-1.436,3.015,3.015,0,0,1,2.466.986A4.7,4.7,0,0,1,38.8-6.807V0H35.5V-6.67a1.783,1.783,0,0,0-.322-1.177A1.491,1.491,0,0,0,34-8.223a1.569,1.569,0,0,0-1.436.762V0H29.277V-10.566Zm13.789,7.6a.76.76,0,0,0-.439-.674,6.685,6.685,0,0,0-1.67-.527,7.615,7.615,0,0,1-2.031-.718,3.4,3.4,0,0,1-1.221-1.079,2.577,2.577,0,0,1-.42-1.455,2.92,2.92,0,0,1,1.2-2.4,4.948,4.948,0,0,1,3.145-.942,5.482,5.482,0,0,1,3.359.947,2.962,2.962,0,0,1,1.27,2.49h-3.3q0-1.27-1.338-1.27a1.326,1.326,0,0,0-.869.288.892.892,0,0,0-.352.718.819.819,0,0,0,.43.713,4.06,4.06,0,0,0,1.372.449,11.857,11.857,0,0,1,1.655.42,3.007,3.007,0,0,1,2.383,2.939A2.767,2.767,0,0,1,48.042-.713,5.632,5.632,0,0,1,44.717.2a5.747,5.747,0,0,1-2.422-.488,4.05,4.05,0,0,1-1.66-1.328,3.007,3.007,0,0,1-.6-1.768h3.076A1.272,1.272,0,0,0,43.6-2.319a2.009,2.009,0,0,0,1.2.337,1.58,1.58,0,0,0,1.011-.273A.875.875,0,0,0,46.152-2.969ZM56.816,0A3.716,3.716,0,0,1,56.5-.947,3.06,3.06,0,0,1,53.965.2a3.749,3.749,0,0,1-2.539-.9,2.875,2.875,0,0,1-1.045-2.271,2.955,2.955,0,0,1,1.27-2.6,6.468,6.468,0,0,1,3.691-.879h1.016v-.559q0-1.462-1.26-1.462a1.03,1.03,0,0,0-1.172,1.158H50.635a2.95,2.95,0,0,1,1.3-2.487,5.479,5.479,0,0,1,3.325-.956,4.8,4.8,0,0,1,3.193.986,3.429,3.429,0,0,1,1.2,2.705v4.678a4.79,4.79,0,0,0,.449,2.227V0ZM54.756-2.148a1.836,1.836,0,0,0,1.021-.264,1.653,1.653,0,0,0,.581-.6V-4.7H55.4q-1.719,0-1.719,1.543a.942.942,0,0,0,.3.728A1.1,1.1,0,0,0,54.756-2.148ZM65.02-10.566V.361a3.836,3.836,0,0,1-1.074,2.891,4.127,4.127,0,0,1-2.969,1.016A7.009,7.009,0,0,1,59.424,4.1V1.611a6.3,6.3,0,0,0,.928.088A1.2,1.2,0,0,0,61.719.342V-10.566ZM61.475-13.3a1.482,1.482,0,0,1,.508-1.159,1.909,1.909,0,0,1,1.318-.452,1.909,1.909,0,0,1,1.318.452,1.482,1.482,0,0,1,.508,1.159,1.482,1.482,0,0,1-.508,1.159,1.909,1.909,0,0,1-1.318.452,1.909,1.909,0,0,1-1.318-.452A1.482,1.482,0,0,1,61.475-13.3ZM71.992.2a5.432,5.432,0,0,1-3.936-1.45,5.008,5.008,0,0,1-1.5-3.774V-5.3a6.489,6.489,0,0,1,.6-2.861,4.395,4.395,0,0,1,1.753-1.919,5.292,5.292,0,0,1,2.734-.679A4.574,4.574,0,0,1,75.156-9.38a5.43,5.43,0,0,1,1.289,3.853v1.279H69.9a2.372,2.372,0,0,0,.771,1.4,2.3,2.3,0,0,0,1.543.508,2.958,2.958,0,0,0,2.441-1.094l1.5,1.777A4.2,4.2,0,0,1,74.419-.308,5.891,5.891,0,0,1,71.992.2Zm-.371-8.418q-1.445,0-1.719,1.914h3.32v-.254a1.63,1.63,0,0,0-.4-1.226A1.593,1.593,0,0,0,71.621-8.223Z" transform="translate(785 2972)" fill="#12263f"/>
    <path id="Trazado_887752" data-name="Trazado 887752" d="M-8171.5-8688v69" transform="translate(8997 11684)" fill="none" stroke="#f0c518" stroke-width="3"/>
    <path id="Trazado_887976" data-name="Trazado 887976" d="M8,0H244a8,8,0,0,1,8,8V54a8,8,0,0,1-8,8H8a8,8,0,0,1-8-8V8A8,8,0,0,1,8,0Z" transform="translate(697 3084)" fill="#ffe5b5"/>
    <path id="Trazado_887977" data-name="Trazado 887977" d="M12.578-4.814a5.193,5.193,0,0,1-.8,2.622A4.833,4.833,0,0,1,9.722-.43,7,7,0,0,1,6.7.2,5.584,5.584,0,0,1,2.285-1.631,7.54,7.54,0,0,1,.674-6.787v-.7A8.607,8.607,0,0,1,1.4-11.147,5.513,5.513,0,0,1,3.5-13.569a5.844,5.844,0,0,1,3.164-.854,6.129,6.129,0,0,1,4.16,1.362,5.383,5.383,0,0,1,1.787,3.755H9.189a2.547,2.547,0,0,0-.654-1.865,2.691,2.691,0,0,0-1.875-.566,2.048,2.048,0,0,0-1.875.957A6.151,6.151,0,0,0,4.16-7.725v1.006a6.806,6.806,0,0,0,.571,3.252A2.091,2.091,0,0,0,6.7-2.49a2.632,2.632,0,0,0,1.807-.557A2.363,2.363,0,0,0,9.17-4.814ZM20,0a3.716,3.716,0,0,1-.312-.947A3.06,3.06,0,0,1,17.148.2a3.749,3.749,0,0,1-2.539-.9,2.875,2.875,0,0,1-1.045-2.271,2.955,2.955,0,0,1,1.27-2.6,6.468,6.468,0,0,1,3.691-.879h1.016v-.559q0-1.462-1.26-1.462a1.03,1.03,0,0,0-1.172,1.158H13.818a2.95,2.95,0,0,1,1.3-2.487,5.479,5.479,0,0,1,3.325-.956,4.8,4.8,0,0,1,3.193.986,3.429,3.429,0,0,1,1.2,2.705v4.678a4.79,4.79,0,0,0,.449,2.227V0ZM17.939-2.148a1.836,1.836,0,0,0,1.021-.264,1.653,1.653,0,0,0,.581-.6V-4.7h-.957q-1.719,0-1.719,1.543a.942.942,0,0,0,.3.728A1.1,1.1,0,0,0,17.939-2.148Zm9.746-8.418.107,1.24a3.583,3.583,0,0,1,3.018-1.436,3.015,3.015,0,0,1,2.466.986,4.7,4.7,0,0,1,.845,2.969V0h-3.3V-6.67A1.783,1.783,0,0,0,30.5-7.847a1.491,1.491,0,0,0-1.172-.376,1.569,1.569,0,0,0-1.436.762V0H24.6V-10.566ZM41.895,0a3.716,3.716,0,0,1-.312-.947A3.06,3.06,0,0,1,39.043.2a3.749,3.749,0,0,1-2.539-.9,2.875,2.875,0,0,1-1.045-2.271,2.955,2.955,0,0,1,1.27-2.6,6.468,6.468,0,0,1,3.691-.879h1.016v-.559q0-1.462-1.26-1.462A1.03,1.03,0,0,0,39-7.319H35.713a2.95,2.95,0,0,1,1.3-2.487,5.479,5.479,0,0,1,3.325-.956,4.8,4.8,0,0,1,3.193.986,3.429,3.429,0,0,1,1.2,2.705v4.678a4.79,4.79,0,0,0,.449,2.227V0ZM39.834-2.148a1.836,1.836,0,0,0,1.021-.264,1.653,1.653,0,0,0,.581-.6V-4.7h-.957q-1.719,0-1.719,1.543a.942.942,0,0,0,.3.728A1.1,1.1,0,0,0,39.834-2.148ZM50.029,0h-3.3V-15h3.3Z" transform="translate(800 3110)" fill="#12263f"/>
    <path id="Trazado_887978" data-name="Trazado 887978" d="M9.328-11.375v7.734A3.628,3.628,0,0,1,8.316-1.008,4.077,4.077,0,0,1,5.594.141L5.2.156A4.258,4.258,0,0,1,2.219-.852,3.6,3.6,0,0,1,1.094-3.625v-7.75H2.578v7.7a2.6,2.6,0,0,0,.68,1.918A2.612,2.612,0,0,0,5.2-1.07a2.63,2.63,0,0,0,1.949-.68A2.6,2.6,0,0,0,7.82-3.664v-7.711Zm3.508,2.922.047,1.063a3.08,3.08,0,0,1,2.531-1.219q2.68,0,2.7,3.023V0H16.672V-5.594a1.946,1.946,0,0,0-.418-1.352,1.675,1.675,0,0,0-1.277-.437,2.086,2.086,0,0,0-1.234.375,2.546,2.546,0,0,0-.828.984V0H11.469V-8.453ZM25.516,0a3.036,3.036,0,0,1-.2-.891A3.225,3.225,0,0,1,22.906.156a2.984,2.984,0,0,1-2.051-.707,2.287,2.287,0,0,1-.8-1.793,2.39,2.39,0,0,1,1-2.051,4.733,4.733,0,0,1,2.824-.73h1.406v-.664A1.623,1.623,0,0,0,24.836-7,1.821,1.821,0,0,0,23.5-7.445a2.108,2.108,0,0,0-1.3.391,1.151,1.151,0,0,0-.523.945H20.227a2,2,0,0,1,.449-1.223,3.066,3.066,0,0,1,1.219-.934,4.1,4.1,0,0,1,1.691-.344,3.342,3.342,0,0,1,2.289.73,2.635,2.635,0,0,1,.859,2.012v3.891a4.757,4.757,0,0,0,.3,1.852V0Zm-2.4-1.1a2.54,2.54,0,0,0,1.289-.352,2.127,2.127,0,0,0,.883-.914V-4.1H24.156Q21.5-4.1,21.5-2.547a1.316,1.316,0,0,0,.453,1.063A1.742,1.742,0,0,0,23.117-1.1ZM40.1-4.133a5.062,5.062,0,0,1-.883,3.109A2.829,2.829,0,0,1,36.828.156,3.1,3.1,0,0,1,34.406-.82V3.25H32.961v-11.7h1.32l.07.938A2.977,2.977,0,0,1,36.8-8.609a2.882,2.882,0,0,1,2.41,1.148,5.117,5.117,0,0,1,.887,3.2ZM38.656-4.3a3.735,3.735,0,0,0-.609-2.258,1.963,1.963,0,0,0-1.672-.828,2.125,2.125,0,0,0-1.969,1.164V-2.18a2.129,2.129,0,0,0,1.984,1.156,1.954,1.954,0,0,0,1.652-.824A4.077,4.077,0,0,0,38.656-4.3ZM45.445.156a3.693,3.693,0,0,1-2.8-1.129,4.19,4.19,0,0,1-1.078-3.02v-.266a5.073,5.073,0,0,1,.48-2.246,3.748,3.748,0,0,1,1.344-1.547,3.378,3.378,0,0,1,1.871-.559,3.166,3.166,0,0,1,2.563,1.086,4.7,4.7,0,0,1,.914,3.109v.6H43.016a3,3,0,0,0,.73,2.02,2.3,2.3,0,0,0,1.777.77,2.517,2.517,0,0,0,1.3-.312,3.259,3.259,0,0,0,.93-.828l.883.688A3.55,3.55,0,0,1,45.445.156Zm-.18-7.578a1.928,1.928,0,0,0-1.469.637A3.1,3.1,0,0,0,43.063-5H47.3v-.109A2.753,2.753,0,0,0,46.7-6.816,1.815,1.815,0,0,0,45.266-7.422Zm9.234.266a4.331,4.331,0,0,0-.711-.055A1.9,1.9,0,0,0,51.859-6V0H50.414V-8.453H51.82l.023.977a2.251,2.251,0,0,1,2.016-1.133A1.477,1.477,0,0,1,54.5-8.5Zm6.25,4.914a1.064,1.064,0,0,0-.441-.91,4.249,4.249,0,0,0-1.539-.559,7.277,7.277,0,0,1-1.742-.562,2.479,2.479,0,0,1-.953-.781,1.869,1.869,0,0,1-.309-1.078,2.193,2.193,0,0,1,.879-1.758,3.432,3.432,0,0,1,2.246-.719,3.532,3.532,0,0,1,2.332.742,2.357,2.357,0,0,1,.895,1.9H60.664a1.3,1.3,0,0,0-.5-1.023,1.888,1.888,0,0,0-1.27-.43,1.976,1.976,0,0,0-1.234.344,1.082,1.082,0,0,0-.445.9.877.877,0,0,0,.414.789,5.1,5.1,0,0,0,1.5.508,7.8,7.8,0,0,1,1.754.578,2.558,2.558,0,0,1,1,.809A1.988,1.988,0,0,1,62.2-2.344a2.163,2.163,0,0,1-.906,1.816,3.8,3.8,0,0,1-2.352.684,4.257,4.257,0,0,1-1.8-.359,2.922,2.922,0,0,1-1.223-1A2.42,2.42,0,0,1,55.477-2.6h1.445A1.5,1.5,0,0,0,57.5-1.449a2.258,2.258,0,0,0,1.434.426,2.331,2.331,0,0,0,1.316-.332A1.02,1.02,0,0,0,60.75-2.242ZM63.7-4.3a4.993,4.993,0,0,1,.488-2.234A3.643,3.643,0,0,1,65.543-8.07a3.7,3.7,0,0,1,1.988-.539,3.565,3.565,0,0,1,2.793,1.2,4.6,4.6,0,0,1,1.066,3.18v.1a5.036,5.036,0,0,1-.473,2.215A3.589,3.589,0,0,1,69.566-.391a3.743,3.743,0,0,1-2.02.547,3.556,3.556,0,0,1-2.785-1.2A4.575,4.575,0,0,1,63.7-4.2Zm1.453.172A3.616,3.616,0,0,0,65.8-1.875a2.088,2.088,0,0,0,1.746.852,2.075,2.075,0,0,0,1.75-.863A3.955,3.955,0,0,0,69.945-4.3a3.61,3.61,0,0,0-.66-2.254,2.1,2.1,0,0,0-1.754-.863A2.075,2.075,0,0,0,65.8-6.57,3.925,3.925,0,0,0,65.148-4.133Zm9.422-4.32.047,1.063a3.08,3.08,0,0,1,2.531-1.219q2.68,0,2.7,3.023V0H78.406V-5.594a1.946,1.946,0,0,0-.418-1.352,1.675,1.675,0,0,0-1.277-.437,2.086,2.086,0,0,0-1.234.375,2.546,2.546,0,0,0-.828.984V0H73.2V-8.453ZM87.25,0a3.036,3.036,0,0,1-.2-.891A3.225,3.225,0,0,1,84.641.156,2.984,2.984,0,0,1,82.59-.551a2.288,2.288,0,0,1-.8-1.793,2.39,2.39,0,0,1,1-2.051,4.733,4.733,0,0,1,2.824-.73h1.406v-.664A1.623,1.623,0,0,0,86.57-7a1.821,1.821,0,0,0-1.336-.449,2.108,2.108,0,0,0-1.3.391,1.151,1.151,0,0,0-.523.945H81.961a2,2,0,0,1,.449-1.223,3.066,3.066,0,0,1,1.219-.934,4.1,4.1,0,0,1,1.691-.344,3.342,3.342,0,0,1,2.289.73,2.635,2.635,0,0,1,.859,2.012v3.891a4.757,4.757,0,0,0,.3,1.852V0Zm-2.4-1.1a2.54,2.54,0,0,0,1.289-.352,2.127,2.127,0,0,0,.883-.914V-4.1H85.891q-2.656,0-2.656,1.555a1.316,1.316,0,0,0,.453,1.063A1.742,1.742,0,0,0,84.852-1.1Zm9.492-3.2a4.961,4.961,0,0,1,.914-3.152,2.962,2.962,0,0,1,2.453-1.16A2.96,2.96,0,0,1,100.078-7.6l.063-.852h1.328V3.25h-1.445V-.781A3.033,3.033,0,0,1,97.7.156a2.915,2.915,0,0,1-2.441-1.191,5.072,5.072,0,0,1-.91-3.16Zm1.445.164A3.761,3.761,0,0,0,96.4-1.852a1.951,1.951,0,0,0,1.652.828,2.164,2.164,0,0,0,1.969-1.141V-6.3A2.171,2.171,0,0,0,98.07-7.422a1.965,1.965,0,0,0-1.664.832A4.094,4.094,0,0,0,95.789-4.133Zm13.219,3.3a3.07,3.07,0,0,1-2.477.992,2.628,2.628,0,0,1-2.059-.785,3.4,3.4,0,0,1-.715-2.324v-5.5H105.2v5.461q0,1.922,1.563,1.922a2.163,2.163,0,0,0,2.2-1.234V-8.453h1.445V0h-1.375Zm7.109.992a3.693,3.693,0,0,1-2.8-1.129,4.19,4.19,0,0,1-1.078-3.02v-.266a5.073,5.073,0,0,1,.48-2.246,3.748,3.748,0,0,1,1.344-1.547,3.378,3.378,0,0,1,1.871-.559A3.166,3.166,0,0,1,118.5-7.523a4.7,4.7,0,0,1,.914,3.109v.6h-5.727a3,3,0,0,0,.73,2.02,2.3,2.3,0,0,0,1.777.77,2.517,2.517,0,0,0,1.3-.312,3.259,3.259,0,0,0,.93-.828l.883.688A3.55,3.55,0,0,1,116.117.156Zm-.18-7.578a1.928,1.928,0,0,0-1.469.637A3.1,3.1,0,0,0,113.734-5h4.234v-.109a2.753,2.753,0,0,0-.594-1.707A1.815,1.815,0,0,0,115.938-7.422Zm14.031,5.18a1.064,1.064,0,0,0-.441-.91,4.249,4.249,0,0,0-1.539-.559,7.277,7.277,0,0,1-1.742-.562,2.479,2.479,0,0,1-.953-.781,1.869,1.869,0,0,1-.309-1.078,2.193,2.193,0,0,1,.879-1.758,3.432,3.432,0,0,1,2.246-.719,3.532,3.532,0,0,1,2.332.742,2.357,2.357,0,0,1,.895,1.9h-1.453a1.3,1.3,0,0,0-.5-1.023,1.888,1.888,0,0,0-1.27-.43,1.976,1.976,0,0,0-1.234.344,1.082,1.082,0,0,0-.445.9.877.877,0,0,0,.414.789,5.1,5.1,0,0,0,1.5.508,7.8,7.8,0,0,1,1.754.578,2.558,2.558,0,0,1,1,.809,1.988,1.988,0,0,1,.324,1.152,2.163,2.163,0,0,1-.906,1.816,3.8,3.8,0,0,1-2.352.684,4.257,4.257,0,0,1-1.8-.359,2.922,2.922,0,0,1-1.223-1A2.42,2.42,0,0,1,124.7-2.6h1.445a1.5,1.5,0,0,0,.582,1.152,2.258,2.258,0,0,0,1.434.426,2.331,2.331,0,0,0,1.316-.332A1.02,1.02,0,0,0,129.969-2.242ZM138.516,0a3.036,3.036,0,0,1-.2-.891A3.225,3.225,0,0,1,135.906.156a2.984,2.984,0,0,1-2.051-.707,2.287,2.287,0,0,1-.8-1.793,2.39,2.39,0,0,1,1-2.051,4.733,4.733,0,0,1,2.824-.73h1.406v-.664A1.623,1.623,0,0,0,137.836-7a1.821,1.821,0,0,0-1.336-.449,2.107,2.107,0,0,0-1.3.391,1.151,1.151,0,0,0-.523.945h-1.453a2,2,0,0,1,.449-1.223,3.066,3.066,0,0,1,1.219-.934,4.1,4.1,0,0,1,1.691-.344,3.342,3.342,0,0,1,2.289.73,2.635,2.635,0,0,1,.859,2.012v3.891a4.757,4.757,0,0,0,.3,1.852V0Zm-2.4-1.1a2.54,2.54,0,0,0,1.289-.352,2.127,2.127,0,0,0,.883-.914V-4.1h-1.133q-2.656,0-2.656,1.555a1.316,1.316,0,0,0,.453,1.063A1.742,1.742,0,0,0,136.117-1.1ZM143.57,0h-1.445V-12h1.445ZM151.1-.836a3.07,3.07,0,0,1-2.477.992,2.628,2.628,0,0,1-2.059-.785,3.4,3.4,0,0,1-.715-2.324v-5.5H147.3v5.461q0,1.922,1.563,1.922a2.163,2.163,0,0,0,2.2-1.234V-8.453h1.445V0h-1.375Zm3.25-3.461a4.952,4.952,0,0,1,.922-3.129,2.915,2.915,0,0,1,2.414-1.184,2.932,2.932,0,0,1,2.352,1.016V-12h1.445V0h-1.328l-.07-.906A2.943,2.943,0,0,1,157.672.156a2.887,2.887,0,0,1-2.395-1.2,5.008,5.008,0,0,1-.926-3.141Zm1.445.164a3.749,3.749,0,0,0,.594,2.25,1.919,1.919,0,0,0,1.641.813A2.108,2.108,0,0,0,160.039-2.3V-6.187a2.125,2.125,0,0,0-1.992-1.2,1.929,1.929,0,0,0-1.656.82A4.128,4.128,0,0,0,155.8-4.133ZM168.945,0a3.036,3.036,0,0,1-.2-.891A3.225,3.225,0,0,1,166.336.156a2.984,2.984,0,0,1-2.051-.707,2.287,2.287,0,0,1-.8-1.793,2.39,2.39,0,0,1,1-2.051,4.733,4.733,0,0,1,2.824-.73h1.406v-.664A1.623,1.623,0,0,0,168.266-7a1.821,1.821,0,0,0-1.336-.449,2.107,2.107,0,0,0-1.3.391,1.151,1.151,0,0,0-.523.945h-1.453a2,2,0,0,1,.449-1.223,3.066,3.066,0,0,1,1.219-.934,4.1,4.1,0,0,1,1.691-.344,3.342,3.342,0,0,1,2.289.73,2.635,2.635,0,0,1,.859,2.012v3.891a4.757,4.757,0,0,0,.3,1.852V0Zm-2.4-1.1a2.54,2.54,0,0,0,1.289-.352,2.127,2.127,0,0,0,.883-.914V-4.1h-1.133q-2.656,0-2.656,1.555a1.316,1.316,0,0,0,.453,1.063A1.742,1.742,0,0,0,166.547-1.1ZM181.609,0a3.036,3.036,0,0,1-.2-.891A3.225,3.225,0,0,1,179,.156a2.984,2.984,0,0,1-2.051-.707,2.287,2.287,0,0,1-.8-1.793,2.39,2.39,0,0,1,1-2.051,4.733,4.733,0,0,1,2.824-.73h1.406v-.664A1.623,1.623,0,0,0,180.93-7a1.821,1.821,0,0,0-1.336-.449,2.107,2.107,0,0,0-1.3.391,1.151,1.151,0,0,0-.523.945H176.32a2,2,0,0,1,.449-1.223,3.066,3.066,0,0,1,1.219-.934,4.1,4.1,0,0,1,1.691-.344,3.342,3.342,0,0,1,2.289.73,2.635,2.635,0,0,1,.859,2.012v3.891a4.757,4.757,0,0,0,.3,1.852V0Zm-2.4-1.1a2.54,2.54,0,0,0,1.289-.352,2.127,2.127,0,0,0,.883-.914V-4.1H180.25q-2.656,0-2.656,1.555a1.316,1.316,0,0,0,.453,1.063A1.742,1.742,0,0,0,179.211-1.1Zm9.461-3.2a4.993,4.993,0,0,1,.488-2.234A3.642,3.642,0,0,1,190.52-8.07a3.7,3.7,0,0,1,1.988-.539,3.565,3.565,0,0,1,2.793,1.2,4.6,4.6,0,0,1,1.066,3.18v.1a5.036,5.036,0,0,1-.473,2.215,3.589,3.589,0,0,1-1.352,1.527,3.743,3.743,0,0,1-2.02.547,3.556,3.556,0,0,1-2.785-1.2A4.575,4.575,0,0,1,188.672-4.2Zm1.453.172a3.616,3.616,0,0,0,.652,2.258,2.088,2.088,0,0,0,1.746.852,2.075,2.075,0,0,0,1.75-.863,3.954,3.954,0,0,0,.648-2.418,3.61,3.61,0,0,0-.66-2.254,2.1,2.1,0,0,0-1.754-.863,2.075,2.075,0,0,0-1.727.852A3.925,3.925,0,0,0,190.125-4.133ZM200.141-10.5v2.047h1.578v1.117h-1.578v5.249a1.173,1.173,0,0,0,.211.763.888.888,0,0,0,.719.254,3.5,3.5,0,0,0,.688-.094V0a4.215,4.215,0,0,1-1.109.155,1.8,1.8,0,0,1-1.461-.586,2.517,2.517,0,0,1-.492-1.664V-7.336h-1.539V-8.453H198.7V-10.5Zm7.352,3.344a4.331,4.331,0,0,0-.711-.055A1.9,1.9,0,0,0,204.852-6V0h-1.445V-8.453h1.406l.023.977a2.251,2.251,0,0,1,2.016-1.133,1.477,1.477,0,0,1,.641.109ZM213.727,0a3.036,3.036,0,0,1-.2-.891A3.225,3.225,0,0,1,211.117.156a2.984,2.984,0,0,1-2.051-.707,2.287,2.287,0,0,1-.8-1.793,2.39,2.39,0,0,1,1-2.051,4.733,4.733,0,0,1,2.824-.73H213.5v-.664A1.623,1.623,0,0,0,213.047-7a1.821,1.821,0,0,0-1.336-.449,2.107,2.107,0,0,0-1.3.391,1.151,1.151,0,0,0-.523.945h-1.453a2,2,0,0,1,.449-1.223,3.066,3.066,0,0,1,1.219-.934,4.1,4.1,0,0,1,1.691-.344,3.342,3.342,0,0,1,2.289.73,2.635,2.635,0,0,1,.859,2.012v3.891a4.757,4.757,0,0,0,.3,1.852V0Zm-2.4-1.1a2.54,2.54,0,0,0,1.289-.352,2.127,2.127,0,0,0,.883-.914V-4.1h-1.133q-2.656,0-2.656,1.555a1.316,1.316,0,0,0,.453,1.063A1.742,1.742,0,0,0,211.328-1.1Z" transform="translate(469 3061)" fill="#12263f"/>
    <path id="Trazado_887979" data-name="Trazado 887979" d="M9.328-11.375v7.734A3.628,3.628,0,0,1,8.316-1.008,4.077,4.077,0,0,1,5.594.141L5.2.156A4.258,4.258,0,0,1,2.219-.852,3.6,3.6,0,0,1,1.094-3.625v-7.75H2.578v7.7a2.6,2.6,0,0,0,.68,1.918A2.612,2.612,0,0,0,5.2-1.07a2.63,2.63,0,0,0,1.949-.68A2.6,2.6,0,0,0,7.82-3.664v-7.711Zm3.508,2.922.047,1.063a3.08,3.08,0,0,1,2.531-1.219q2.68,0,2.7,3.023V0H16.672V-5.594a1.946,1.946,0,0,0-.418-1.352,1.675,1.675,0,0,0-1.277-.437,2.086,2.086,0,0,0-1.234.375,2.546,2.546,0,0,0-.828.984V0H11.469V-8.453ZM25.516,0a3.036,3.036,0,0,1-.2-.891A3.225,3.225,0,0,1,22.906.156a2.984,2.984,0,0,1-2.051-.707,2.287,2.287,0,0,1-.8-1.793,2.39,2.39,0,0,1,1-2.051,4.733,4.733,0,0,1,2.824-.73h1.406v-.664A1.623,1.623,0,0,0,24.836-7,1.821,1.821,0,0,0,23.5-7.445a2.108,2.108,0,0,0-1.3.391,1.151,1.151,0,0,0-.523.945H20.227a2,2,0,0,1,.449-1.223,3.066,3.066,0,0,1,1.219-.934,4.1,4.1,0,0,1,1.691-.344,3.342,3.342,0,0,1,2.289.73,2.635,2.635,0,0,1,.859,2.012v3.891a4.757,4.757,0,0,0,.3,1.852V0Zm-2.4-1.1a2.54,2.54,0,0,0,1.289-.352,2.127,2.127,0,0,0,.883-.914V-4.1H24.156Q21.5-4.1,21.5-2.547a1.316,1.316,0,0,0,.453,1.063A1.742,1.742,0,0,0,23.117-1.1ZM40.1-4.133a5.062,5.062,0,0,1-.883,3.109A2.829,2.829,0,0,1,36.828.156,3.1,3.1,0,0,1,34.406-.82V3.25H32.961v-11.7h1.32l.07.938A2.977,2.977,0,0,1,36.8-8.609a2.882,2.882,0,0,1,2.41,1.148,5.117,5.117,0,0,1,.887,3.2ZM38.656-4.3a3.735,3.735,0,0,0-.609-2.258,1.963,1.963,0,0,0-1.672-.828,2.125,2.125,0,0,0-1.969,1.164V-2.18a2.129,2.129,0,0,0,1.984,1.156,1.954,1.954,0,0,0,1.652-.824A4.077,4.077,0,0,0,38.656-4.3ZM45.445.156a3.693,3.693,0,0,1-2.8-1.129,4.19,4.19,0,0,1-1.078-3.02v-.266a5.073,5.073,0,0,1,.48-2.246,3.748,3.748,0,0,1,1.344-1.547,3.378,3.378,0,0,1,1.871-.559,3.166,3.166,0,0,1,2.563,1.086,4.7,4.7,0,0,1,.914,3.109v.6H43.016a3,3,0,0,0,.73,2.02,2.3,2.3,0,0,0,1.777.77,2.517,2.517,0,0,0,1.3-.312,3.259,3.259,0,0,0,.93-.828l.883.688A3.55,3.55,0,0,1,45.445.156Zm-.18-7.578a1.928,1.928,0,0,0-1.469.637A3.1,3.1,0,0,0,43.063-5H47.3v-.109A2.753,2.753,0,0,0,46.7-6.816,1.815,1.815,0,0,0,45.266-7.422Zm9.234.266a4.331,4.331,0,0,0-.711-.055A1.9,1.9,0,0,0,51.859-6V0H50.414V-8.453H51.82l.023.977a2.251,2.251,0,0,1,2.016-1.133A1.477,1.477,0,0,1,54.5-8.5Zm6.25,4.914a1.064,1.064,0,0,0-.441-.91,4.249,4.249,0,0,0-1.539-.559,7.277,7.277,0,0,1-1.742-.562,2.479,2.479,0,0,1-.953-.781,1.869,1.869,0,0,1-.309-1.078,2.193,2.193,0,0,1,.879-1.758,3.432,3.432,0,0,1,2.246-.719,3.532,3.532,0,0,1,2.332.742,2.357,2.357,0,0,1,.895,1.9H60.664a1.3,1.3,0,0,0-.5-1.023,1.888,1.888,0,0,0-1.27-.43,1.976,1.976,0,0,0-1.234.344,1.082,1.082,0,0,0-.445.9.877.877,0,0,0,.414.789,5.1,5.1,0,0,0,1.5.508,7.8,7.8,0,0,1,1.754.578,2.558,2.558,0,0,1,1,.809A1.988,1.988,0,0,1,62.2-2.344a2.163,2.163,0,0,1-.906,1.816,3.8,3.8,0,0,1-2.352.684,4.257,4.257,0,0,1-1.8-.359,2.922,2.922,0,0,1-1.223-1A2.42,2.42,0,0,1,55.477-2.6h1.445A1.5,1.5,0,0,0,57.5-1.449a2.258,2.258,0,0,0,1.434.426,2.331,2.331,0,0,0,1.316-.332A1.02,1.02,0,0,0,60.75-2.242ZM63.7-4.3a4.993,4.993,0,0,1,.488-2.234A3.643,3.643,0,0,1,65.543-8.07a3.7,3.7,0,0,1,1.988-.539,3.565,3.565,0,0,1,2.793,1.2,4.6,4.6,0,0,1,1.066,3.18v.1a5.036,5.036,0,0,1-.473,2.215A3.589,3.589,0,0,1,69.566-.391a3.743,3.743,0,0,1-2.02.547,3.556,3.556,0,0,1-2.785-1.2A4.575,4.575,0,0,1,63.7-4.2Zm1.453.172A3.616,3.616,0,0,0,65.8-1.875a2.088,2.088,0,0,0,1.746.852,2.075,2.075,0,0,0,1.75-.863A3.955,3.955,0,0,0,69.945-4.3a3.61,3.61,0,0,0-.66-2.254,2.1,2.1,0,0,0-1.754-.863A2.075,2.075,0,0,0,65.8-6.57,3.925,3.925,0,0,0,65.148-4.133Zm9.422-4.32.047,1.063a3.08,3.08,0,0,1,2.531-1.219q2.68,0,2.7,3.023V0H78.406V-5.594a1.946,1.946,0,0,0-.418-1.352,1.675,1.675,0,0,0-1.277-.437,2.086,2.086,0,0,0-1.234.375,2.546,2.546,0,0,0-.828.984V0H73.2V-8.453ZM87.25,0a3.036,3.036,0,0,1-.2-.891A3.225,3.225,0,0,1,84.641.156,2.984,2.984,0,0,1,82.59-.551a2.288,2.288,0,0,1-.8-1.793,2.39,2.39,0,0,1,1-2.051,4.733,4.733,0,0,1,2.824-.73h1.406v-.664A1.623,1.623,0,0,0,86.57-7a1.821,1.821,0,0,0-1.336-.449,2.108,2.108,0,0,0-1.3.391,1.151,1.151,0,0,0-.523.945H81.961a2,2,0,0,1,.449-1.223,3.066,3.066,0,0,1,1.219-.934,4.1,4.1,0,0,1,1.691-.344,3.342,3.342,0,0,1,2.289.73,2.635,2.635,0,0,1,.859,2.012v3.891a4.757,4.757,0,0,0,.3,1.852V0Zm-2.4-1.1a2.54,2.54,0,0,0,1.289-.352,2.127,2.127,0,0,0,.883-.914V-4.1H85.891q-2.656,0-2.656,1.555a1.316,1.316,0,0,0,.453,1.063A1.742,1.742,0,0,0,84.852-1.1Zm9.492-3.2a4.961,4.961,0,0,1,.914-3.152,2.962,2.962,0,0,1,2.453-1.16A2.96,2.96,0,0,1,100.078-7.6l.063-.852h1.328V3.25h-1.445V-.781A3.033,3.033,0,0,1,97.7.156a2.915,2.915,0,0,1-2.441-1.191,5.072,5.072,0,0,1-.91-3.16Zm1.445.164A3.761,3.761,0,0,0,96.4-1.852a1.951,1.951,0,0,0,1.652.828,2.164,2.164,0,0,0,1.969-1.141V-6.3A2.171,2.171,0,0,0,98.07-7.422a1.965,1.965,0,0,0-1.664.832A4.094,4.094,0,0,0,95.789-4.133Zm13.219,3.3a3.07,3.07,0,0,1-2.477.992,2.628,2.628,0,0,1-2.059-.785,3.4,3.4,0,0,1-.715-2.324v-5.5H105.2v5.461q0,1.922,1.563,1.922a2.163,2.163,0,0,0,2.2-1.234V-8.453h1.445V0h-1.375Zm7.109.992a3.693,3.693,0,0,1-2.8-1.129,4.19,4.19,0,0,1-1.078-3.02v-.266a5.073,5.073,0,0,1,.48-2.246,3.748,3.748,0,0,1,1.344-1.547,3.378,3.378,0,0,1,1.871-.559A3.166,3.166,0,0,1,118.5-7.523a4.7,4.7,0,0,1,.914,3.109v.6h-5.727a3,3,0,0,0,.73,2.02,2.3,2.3,0,0,0,1.777.77,2.517,2.517,0,0,0,1.3-.312,3.259,3.259,0,0,0,.93-.828l.883.688A3.55,3.55,0,0,1,116.117.156Zm-.18-7.578a1.928,1.928,0,0,0-1.469.637A3.1,3.1,0,0,0,113.734-5h4.234v-.109a2.753,2.753,0,0,0-.594-1.707A1.815,1.815,0,0,0,115.938-7.422Zm13.2.266a4.331,4.331,0,0,0-.711-.055A1.9,1.9,0,0,0,126.492-6V0h-1.445V-8.453h1.406l.023.977a2.251,2.251,0,0,1,2.016-1.133,1.477,1.477,0,0,1,.641.109ZM133.82.156a3.693,3.693,0,0,1-2.8-1.129,4.19,4.19,0,0,1-1.078-3.02v-.266a5.073,5.073,0,0,1,.48-2.246,3.748,3.748,0,0,1,1.344-1.547,3.378,3.378,0,0,1,1.871-.559A3.166,3.166,0,0,1,136.2-7.523a4.7,4.7,0,0,1,.914,3.109v.6h-5.727a3,3,0,0,0,.73,2.02,2.3,2.3,0,0,0,1.777.77,2.517,2.517,0,0,0,1.3-.312,3.258,3.258,0,0,0,.93-.828l.883.688A3.55,3.55,0,0,1,133.82.156Zm-.18-7.578a1.928,1.928,0,0,0-1.469.637A3.1,3.1,0,0,0,131.438-5h4.234v-.109a2.753,2.753,0,0,0-.594-1.707A1.815,1.815,0,0,0,133.641-7.422Zm8.539,6.4a2.082,2.082,0,0,0,1.352-.469,1.649,1.649,0,0,0,.641-1.172h1.367a2.621,2.621,0,0,1-.5,1.383,3.293,3.293,0,0,1-1.23,1.047,3.55,3.55,0,0,1-1.629.391A3.482,3.482,0,0,1,139.434-1a4.59,4.59,0,0,1-1.02-3.152v-.242a5.089,5.089,0,0,1,.453-2.2,3.451,3.451,0,0,1,1.3-1.492,3.7,3.7,0,0,1,2-.531,3.39,3.39,0,0,1,2.363.852,3.043,3.043,0,0,1,1,2.211h-1.367a1.992,1.992,0,0,0-.621-1.348,1.932,1.932,0,0,0-1.379-.527,2.023,2.023,0,0,0-1.707.793,3.724,3.724,0,0,0-.605,2.293v.273a3.65,3.65,0,0,0,.6,2.25A2.033,2.033,0,0,0,142.18-1.023ZM148.734,0h-1.445V-8.453h1.445Zm-1.562-10.7a.863.863,0,0,1,.215-.594.807.807,0,0,1,.637-.242.819.819,0,0,1,.641.242.854.854,0,0,1,.219.594.826.826,0,0,1-.219.586.834.834,0,0,1-.641.234.821.821,0,0,1-.637-.234A.834.834,0,0,1,147.172-10.7ZM158.2-4.133a5.026,5.026,0,0,1-.891,3.113A2.846,2.846,0,0,1,154.922.156a2.947,2.947,0,0,1-2.477-1.133l-.07.977h-1.328V-12h1.445v4.477a2.93,2.93,0,0,1,2.414-1.086,2.863,2.863,0,0,1,2.418,1.164,5.177,5.177,0,0,1,.879,3.188ZM156.758-4.3a3.906,3.906,0,0,0-.57-2.281,1.888,1.888,0,0,0-1.641-.8,2.122,2.122,0,0,0-2.055,1.328V-2.4a2.181,2.181,0,0,0,2.07,1.328,1.878,1.878,0,0,0,1.617-.8A4.153,4.153,0,0,0,156.758-4.3ZM163.531.156a3.693,3.693,0,0,1-2.8-1.129,4.19,4.19,0,0,1-1.078-3.02v-.266a5.073,5.073,0,0,1,.48-2.246,3.748,3.748,0,0,1,1.344-1.547,3.378,3.378,0,0,1,1.871-.559,3.166,3.166,0,0,1,2.563,1.086,4.7,4.7,0,0,1,.914,3.109v.6H161.1a3,3,0,0,0,.73,2.02,2.3,2.3,0,0,0,1.777.77,2.517,2.517,0,0,0,1.3-.312,3.258,3.258,0,0,0,.93-.828l.883.688A3.55,3.55,0,0,1,163.531.156Zm-.18-7.578a1.928,1.928,0,0,0-1.469.637A3.1,3.1,0,0,0,161.148-5h4.234v-.109a2.753,2.753,0,0,0-.594-1.707A1.815,1.815,0,0,0,163.352-7.422ZM175.969.156a3.693,3.693,0,0,1-2.8-1.129,4.19,4.19,0,0,1-1.078-3.02v-.266a5.073,5.073,0,0,1,.48-2.246,3.748,3.748,0,0,1,1.344-1.547,3.378,3.378,0,0,1,1.871-.559,3.166,3.166,0,0,1,2.563,1.086,4.7,4.7,0,0,1,.914,3.109v.6h-5.727a3,3,0,0,0,.73,2.02,2.3,2.3,0,0,0,1.777.77,2.517,2.517,0,0,0,1.3-.312,3.258,3.258,0,0,0,.93-.828l.883.688A3.55,3.55,0,0,1,175.969.156Zm-.18-7.578a1.928,1.928,0,0,0-1.469.637A3.1,3.1,0,0,0,173.586-5h4.234v-.109a2.753,2.753,0,0,0-.594-1.707A1.815,1.815,0,0,0,175.789-7.422ZM182.508,0h-1.445V-12h1.445Zm11.2-2.242a1.064,1.064,0,0,0-.441-.91,4.249,4.249,0,0,0-1.539-.559,7.277,7.277,0,0,1-1.742-.562,2.479,2.479,0,0,1-.953-.781,1.869,1.869,0,0,1-.309-1.078,2.193,2.193,0,0,1,.879-1.758,3.432,3.432,0,0,1,2.246-.719,3.532,3.532,0,0,1,2.332.742,2.357,2.357,0,0,1,.895,1.9h-1.453a1.3,1.3,0,0,0-.5-1.023,1.888,1.888,0,0,0-1.27-.43,1.976,1.976,0,0,0-1.234.344,1.082,1.082,0,0,0-.445.9.877.877,0,0,0,.414.789,5.1,5.1,0,0,0,1.5.508,7.8,7.8,0,0,1,1.754.578,2.558,2.558,0,0,1,1,.809,1.988,1.988,0,0,1,.324,1.152,2.163,2.163,0,0,1-.906,1.816,3.8,3.8,0,0,1-2.352.684,4.257,4.257,0,0,1-1.8-.359,2.922,2.922,0,0,1-1.223-1A2.42,2.42,0,0,1,188.43-2.6h1.445a1.5,1.5,0,0,0,.582,1.152,2.258,2.258,0,0,0,1.434.426,2.331,2.331,0,0,0,1.316-.332A1.02,1.02,0,0,0,193.7-2.242ZM202.25,0a3.036,3.036,0,0,1-.2-.891A3.225,3.225,0,0,1,199.641.156a2.984,2.984,0,0,1-2.051-.707,2.287,2.287,0,0,1-.8-1.793,2.39,2.39,0,0,1,1-2.051,4.733,4.733,0,0,1,2.824-.73h1.406v-.664A1.623,1.623,0,0,0,201.57-7a1.821,1.821,0,0,0-1.336-.449,2.107,2.107,0,0,0-1.3.391,1.151,1.151,0,0,0-.523.945h-1.453a2,2,0,0,1,.449-1.223,3.066,3.066,0,0,1,1.219-.934,4.1,4.1,0,0,1,1.691-.344,3.342,3.342,0,0,1,2.289.73,2.635,2.635,0,0,1,.859,2.012v3.891a4.757,4.757,0,0,0,.3,1.852V0Zm-2.4-1.1a2.54,2.54,0,0,0,1.289-.352,2.127,2.127,0,0,0,.883-.914V-4.1h-1.133q-2.656,0-2.656,1.555a1.316,1.316,0,0,0,.453,1.063A1.742,1.742,0,0,0,199.852-1.1ZM207.3,0h-1.445V-12H207.3Zm7.531-.836a3.07,3.07,0,0,1-2.477.992A2.628,2.628,0,0,1,210.3-.629a3.4,3.4,0,0,1-.715-2.324v-5.5h1.445v5.461q0,1.922,1.563,1.922A2.163,2.163,0,0,0,214.8-2.3V-8.453h1.445V0h-1.375Zm3.25-3.461a4.952,4.952,0,0,1,.922-3.129,2.915,2.915,0,0,1,2.414-1.184,2.932,2.932,0,0,1,2.352,1.016V-12h1.445V0h-1.328l-.07-.906A2.943,2.943,0,0,1,221.406.156a2.887,2.887,0,0,1-2.395-1.2,5.008,5.008,0,0,1-.926-3.141Zm1.445.164a3.749,3.749,0,0,0,.594,2.25,1.919,1.919,0,0,0,1.641.813A2.108,2.108,0,0,0,223.773-2.3V-6.187a2.125,2.125,0,0,0-1.992-1.2,1.929,1.929,0,0,0-1.656.82A4.128,4.128,0,0,0,219.531-4.133Zm7.547-.172a4.993,4.993,0,0,1,.488-2.234,3.642,3.642,0,0,1,1.359-1.531,3.7,3.7,0,0,1,1.988-.539,3.565,3.565,0,0,1,2.793,1.2,4.6,4.6,0,0,1,1.066,3.18v.1a5.036,5.036,0,0,1-.473,2.215,3.589,3.589,0,0,1-1.352,1.527,3.743,3.743,0,0,1-2.02.547,3.556,3.556,0,0,1-2.785-1.2A4.575,4.575,0,0,1,227.078-4.2Zm1.453.172a3.616,3.616,0,0,0,.652,2.258,2.088,2.088,0,0,0,1.746.852,2.075,2.075,0,0,0,1.75-.863,3.954,3.954,0,0,0,.648-2.418,3.61,3.61,0,0,0-.66-2.254,2.1,2.1,0,0,0-1.754-.863,2.075,2.075,0,0,0-1.727.852A3.925,3.925,0,0,0,228.531-4.133Z" transform="translate(954 3061)" fill="#12263f"/>
    <path id="Trazado_887980" data-name="Trazado 887980" d="M7.75-5.258H2.82v4.031H8.547V0H1.32V-11.375H8.469v1.227H2.82v3.664H7.75ZM11.758,0H10.313V-12h1.445ZM19.6,0H18.156V-8.453H19.6ZM18.039-10.7a.863.863,0,0,1,.215-.594.807.807,0,0,1,.637-.242.819.819,0,0,1,.641.242.854.854,0,0,1,.219.594.826.826,0,0,1-.219.586.834.834,0,0,1-.641.234.821.821,0,0,1-.637-.234A.834.834,0,0,1,18.039-10.7Zm3.523,6.4a4.952,4.952,0,0,1,.922-3.129A2.915,2.915,0,0,1,24.9-8.609,2.932,2.932,0,0,1,27.25-7.594V-12H28.7V0H27.367L27.3-.906A2.943,2.943,0,0,1,24.883.156a2.887,2.887,0,0,1-2.395-1.2,5.008,5.008,0,0,1-.926-3.141Zm1.445.164a3.749,3.749,0,0,0,.594,2.25,1.92,1.92,0,0,0,1.641.813A2.108,2.108,0,0,0,27.25-2.3V-6.187a2.125,2.125,0,0,0-1.992-1.2,1.929,1.929,0,0,0-1.656.82A4.128,4.128,0,0,0,23.008-4.133ZM32.508,0H31.063V-8.453h1.445ZM30.945-10.7a.863.863,0,0,1,.215-.594.807.807,0,0,1,.637-.242.819.819,0,0,1,.641.242.854.854,0,0,1,.219.594.826.826,0,0,1-.219.586.834.834,0,0,1-.641.234.821.821,0,0,1-.637-.234A.834.834,0,0,1,30.945-10.7ZM34.438-4.3a4.993,4.993,0,0,1,.488-2.234A3.643,3.643,0,0,1,36.285-8.07a3.7,3.7,0,0,1,1.988-.539,3.565,3.565,0,0,1,2.793,1.2,4.6,4.6,0,0,1,1.066,3.18v.1a5.036,5.036,0,0,1-.473,2.215A3.589,3.589,0,0,1,40.309-.391a3.743,3.743,0,0,1-2.02.547,3.556,3.556,0,0,1-2.785-1.2A4.575,4.575,0,0,1,34.438-4.2Zm1.453.172a3.616,3.616,0,0,0,.652,2.258,2.088,2.088,0,0,0,1.746.852,2.075,2.075,0,0,0,1.75-.863A3.955,3.955,0,0,0,40.688-4.3a3.61,3.61,0,0,0-.66-2.254,2.1,2.1,0,0,0-1.754-.863,2.075,2.075,0,0,0-1.727.852A3.925,3.925,0,0,0,35.891-4.133ZM45.3-8.453l.039.938a3.122,3.122,0,0,1,2.508-1.094A2.417,2.417,0,0,1,50.266-7.25a3.2,3.2,0,0,1,1.1-.984,3.242,3.242,0,0,1,1.6-.375q2.781,0,2.828,2.945V0H54.344V-5.578a1.941,1.941,0,0,0-.414-1.355,1.823,1.823,0,0,0-1.391-.449A1.917,1.917,0,0,0,51.2-6.9a1.949,1.949,0,0,0-.617,1.293V0H49.133V-5.539a1.613,1.613,0,0,0-1.8-1.844,1.934,1.934,0,0,0-1.945,1.211V0H43.938V-8.453ZM63.188,0a3.036,3.036,0,0,1-.2-.891A3.225,3.225,0,0,1,60.578.156a2.984,2.984,0,0,1-2.051-.707,2.287,2.287,0,0,1-.8-1.793,2.39,2.39,0,0,1,1-2.051,4.733,4.733,0,0,1,2.824-.73h1.406v-.664A1.623,1.623,0,0,0,62.508-7a1.821,1.821,0,0,0-1.336-.449,2.107,2.107,0,0,0-1.3.391,1.151,1.151,0,0,0-.523.945H57.9a2,2,0,0,1,.449-1.223,3.066,3.066,0,0,1,1.219-.934,4.1,4.1,0,0,1,1.691-.344,3.342,3.342,0,0,1,2.289.73,2.635,2.635,0,0,1,.859,2.012v3.891a4.757,4.757,0,0,0,.3,1.852V0Zm-2.4-1.1a2.54,2.54,0,0,0,1.289-.352,2.127,2.127,0,0,0,.883-.914V-4.1H61.828q-2.656,0-2.656,1.555a1.316,1.316,0,0,0,.453,1.063A1.742,1.742,0,0,0,60.789-1.1ZM74.141.156a3.693,3.693,0,0,1-2.8-1.129,4.19,4.19,0,0,1-1.078-3.02v-.266a5.073,5.073,0,0,1,.48-2.246A3.748,3.748,0,0,1,72.09-8.051a3.378,3.378,0,0,1,1.871-.559,3.166,3.166,0,0,1,2.563,1.086,4.7,4.7,0,0,1,.914,3.109v.6H71.711a3,3,0,0,0,.73,2.02,2.3,2.3,0,0,0,1.777.77,2.517,2.517,0,0,0,1.3-.312,3.259,3.259,0,0,0,.93-.828l.883.688A3.55,3.55,0,0,1,74.141.156Zm-.18-7.578a1.928,1.928,0,0,0-1.469.637A3.1,3.1,0,0,0,71.758-5h4.234v-.109A2.753,2.753,0,0,0,75.4-6.816,1.815,1.815,0,0,0,73.961-7.422Zm10.07,5.18a1.064,1.064,0,0,0-.441-.91,4.249,4.249,0,0,0-1.539-.559,7.277,7.277,0,0,1-1.742-.562,2.479,2.479,0,0,1-.953-.781,1.869,1.869,0,0,1-.309-1.078,2.193,2.193,0,0,1,.879-1.758,3.432,3.432,0,0,1,2.246-.719,3.532,3.532,0,0,1,2.332.742,2.357,2.357,0,0,1,.895,1.9H83.945a1.3,1.3,0,0,0-.5-1.023,1.888,1.888,0,0,0-1.27-.43,1.976,1.976,0,0,0-1.234.344,1.082,1.082,0,0,0-.445.9.877.877,0,0,0,.414.789,5.1,5.1,0,0,0,1.5.508,7.8,7.8,0,0,1,1.754.578,2.558,2.558,0,0,1,1,.809,1.988,1.988,0,0,1,.324,1.152A2.163,2.163,0,0,1,84.57-.527a3.8,3.8,0,0,1-2.352.684,4.257,4.257,0,0,1-1.8-.359,2.922,2.922,0,0,1-1.223-1A2.42,2.42,0,0,1,78.758-2.6H80.2a1.5,1.5,0,0,0,.582,1.152,2.258,2.258,0,0,0,1.434.426,2.331,2.331,0,0,0,1.316-.332A1.02,1.02,0,0,0,84.031-2.242ZM94.5-4.133a5.062,5.062,0,0,1-.883,3.109A2.829,2.829,0,0,1,91.227.156,3.1,3.1,0,0,1,88.8-.82V3.25H87.359v-11.7h1.32l.07.938A2.977,2.977,0,0,1,91.2-8.609a2.882,2.882,0,0,1,2.41,1.148,5.117,5.117,0,0,1,.887,3.2ZM93.055-4.3a3.735,3.735,0,0,0-.609-2.258,1.963,1.963,0,0,0-1.672-.828A2.125,2.125,0,0,0,88.8-6.219V-2.18a2.129,2.129,0,0,0,1.984,1.156,1.954,1.954,0,0,0,1.652-.824A4.077,4.077,0,0,0,93.055-4.3Zm8.5,4.3a3.036,3.036,0,0,1-.2-.891A3.225,3.225,0,0,1,98.945.156a2.984,2.984,0,0,1-2.051-.707,2.288,2.288,0,0,1-.8-1.793,2.39,2.39,0,0,1,1-2.051,4.733,4.733,0,0,1,2.824-.73h1.406v-.664A1.623,1.623,0,0,0,100.875-7a1.821,1.821,0,0,0-1.336-.449,2.108,2.108,0,0,0-1.3.391,1.151,1.151,0,0,0-.523.945H96.266a2,2,0,0,1,.449-1.223,3.066,3.066,0,0,1,1.219-.934,4.1,4.1,0,0,1,1.691-.344,3.342,3.342,0,0,1,2.289.73,2.635,2.635,0,0,1,.859,2.012v3.891a4.757,4.757,0,0,0,.3,1.852V0Zm-2.4-1.1a2.54,2.54,0,0,0,1.289-.352,2.127,2.127,0,0,0,.883-.914V-4.1H100.2q-2.656,0-2.656,1.555a1.316,1.316,0,0,0,.453,1.063A1.742,1.742,0,0,0,99.156-1.1Zm7.25-7.352.047,1.063a3.08,3.08,0,0,1,2.531-1.219q2.68,0,2.7,3.023V0h-1.445V-5.594a1.946,1.946,0,0,0-.418-1.352,1.675,1.675,0,0,0-1.277-.437,2.086,2.086,0,0,0-1.234.375,2.546,2.546,0,0,0-.828.984V0h-1.445V-8.453Zm4.781-3.3a1.942,1.942,0,0,1-.48,1.367,1.561,1.561,0,0,1-1.2.523,1.76,1.76,0,0,1-.555-.078,2.993,2.993,0,0,1-.613-.32,2.656,2.656,0,0,0-.547-.293,1.338,1.338,0,0,0-.387-.051.717.717,0,0,0-.547.246.892.892,0,0,0-.227.629l-.969-.055a2.039,2.039,0,0,1,.473-1.383,1.516,1.516,0,0,1,1.2-.547,1.457,1.457,0,0,1,.492.078,3.587,3.587,0,0,1,.594.3,3.494,3.494,0,0,0,.574.3,1.319,1.319,0,0,0,.441.07.7.7,0,0,0,.559-.266.932.932,0,0,0,.223-.617Zm2.3,7.445a4.993,4.993,0,0,1,.488-2.234,3.643,3.643,0,0,1,1.359-1.531,3.7,3.7,0,0,1,1.988-.539,3.565,3.565,0,0,1,2.793,1.2,4.6,4.6,0,0,1,1.066,3.18v.1a5.036,5.036,0,0,1-.473,2.215,3.589,3.589,0,0,1-1.352,1.527,3.743,3.743,0,0,1-2.02.547,3.556,3.556,0,0,1-2.785-1.2A4.575,4.575,0,0,1,113.484-4.2Zm1.453.172a3.616,3.616,0,0,0,.652,2.258,2.088,2.088,0,0,0,1.746.852,2.075,2.075,0,0,0,1.75-.863,3.955,3.955,0,0,0,.648-2.418,3.61,3.61,0,0,0-.66-2.254,2.1,2.1,0,0,0-1.754-.863,2.075,2.075,0,0,0-1.727.852A3.925,3.925,0,0,0,114.938-4.133ZM124.563,0h-1.445V-12h1.445Z" transform="translate(760 2714)" fill="#12263f"/>
    <path id="Trazado_887981" data-name="Trazado 887981" d="M7.75-5.258H2.82v4.031H8.547V0H1.32V-11.375H8.469v1.227H2.82v3.664H7.75ZM11.758,0H10.313V-12h1.445Zm8.234-10.5v2.047H21.57v1.117H19.992v5.249a1.173,1.173,0,0,0,.211.763.888.888,0,0,0,.719.254,3.5,3.5,0,0,0,.688-.094V0A4.215,4.215,0,0,1,20.5.156,1.8,1.8,0,0,1,19.039-.43a2.517,2.517,0,0,1-.492-1.664V-7.336H17.008V-8.453h1.539V-10.5ZM26.766.156a3.693,3.693,0,0,1-2.8-1.129,4.19,4.19,0,0,1-1.078-3.02v-.266a5.073,5.073,0,0,1,.48-2.246,3.748,3.748,0,0,1,1.344-1.547,3.378,3.378,0,0,1,1.871-.559,3.166,3.166,0,0,1,2.563,1.086,4.7,4.7,0,0,1,.914,3.109v.6H24.336a3,3,0,0,0,.73,2.02,2.3,2.3,0,0,0,1.777.77,2.517,2.517,0,0,0,1.3-.312,3.259,3.259,0,0,0,.93-.828l.883.688A3.55,3.55,0,0,1,26.766.156Zm-.18-7.578a1.928,1.928,0,0,0-1.469.637A3.1,3.1,0,0,0,24.383-5h4.234v-.109a2.753,2.753,0,0,0-.594-1.707A1.815,1.815,0,0,0,26.586-7.422ZM33.3,0H31.859V-12H33.3Zm5.82.156a3.693,3.693,0,0,1-2.8-1.129,4.19,4.19,0,0,1-1.078-3.02v-.266A5.073,5.073,0,0,1,35.73-6.5a3.748,3.748,0,0,1,1.344-1.547,3.378,3.378,0,0,1,1.871-.559,3.166,3.166,0,0,1,2.563,1.086,4.7,4.7,0,0,1,.914,3.109v.6H36.7a3,3,0,0,0,.73,2.02,2.3,2.3,0,0,0,1.777.77,2.517,2.517,0,0,0,1.3-.312,3.259,3.259,0,0,0,.93-.828l.883.688A3.55,3.55,0,0,1,39.125.156Zm-.18-7.578a1.928,1.928,0,0,0-1.469.637A3.1,3.1,0,0,0,36.742-5h4.234v-.109a2.753,2.753,0,0,0-.594-1.707A1.815,1.815,0,0,0,38.945-7.422Zm.7-4.562H41.4L39.3-9.687l-1.164,0ZM44.8,0V-7.336H43.469V-8.453H44.8V-9.32a2.878,2.878,0,0,1,.727-2.1,2.745,2.745,0,0,1,2.055-.742,3.816,3.816,0,0,1,.992.132L48.5-10.867a4.151,4.151,0,0,0-.781-.07,1.41,1.41,0,0,0-1.086.411,1.669,1.669,0,0,0-.383,1.18v.893h1.8v1.117h-1.8V0Zm4.461-4.3a4.993,4.993,0,0,1,.488-2.234A3.643,3.643,0,0,1,51.113-8.07,3.7,3.7,0,0,1,53.1-8.609a3.565,3.565,0,0,1,2.793,1.2,4.6,4.6,0,0,1,1.066,3.18v.1a5.036,5.036,0,0,1-.473,2.215A3.589,3.589,0,0,1,55.137-.391a3.743,3.743,0,0,1-2.02.547,3.556,3.556,0,0,1-2.785-1.2A4.575,4.575,0,0,1,49.266-4.2Zm1.453.172a3.616,3.616,0,0,0,.652,2.258,2.088,2.088,0,0,0,1.746.852,2.075,2.075,0,0,0,1.75-.863A3.955,3.955,0,0,0,55.516-4.3a3.61,3.61,0,0,0-.66-2.254A2.1,2.1,0,0,0,53.1-7.422a2.075,2.075,0,0,0-1.727.852A3.925,3.925,0,0,0,50.719-4.133Zm9.422-4.32.047,1.063a3.08,3.08,0,0,1,2.531-1.219q2.68,0,2.7,3.023V0H63.977V-5.594a1.946,1.946,0,0,0-.418-1.352,1.675,1.675,0,0,0-1.277-.437,2.086,2.086,0,0,0-1.234.375,2.546,2.546,0,0,0-.828.984V0H58.773V-8.453ZM67.219-4.3a4.993,4.993,0,0,1,.488-2.234A3.643,3.643,0,0,1,69.066-8.07a3.7,3.7,0,0,1,1.988-.539,3.565,3.565,0,0,1,2.793,1.2,4.6,4.6,0,0,1,1.066,3.18v.1a5.036,5.036,0,0,1-.473,2.215A3.589,3.589,0,0,1,73.09-.391a3.743,3.743,0,0,1-2.02.547,3.556,3.556,0,0,1-2.785-1.2A4.575,4.575,0,0,1,67.219-4.2Zm1.453.172a3.616,3.616,0,0,0,.652,2.258,2.088,2.088,0,0,0,1.746.852,2.075,2.075,0,0,0,1.75-.863A3.955,3.955,0,0,0,73.469-4.3a3.61,3.61,0,0,0-.66-2.254,2.1,2.1,0,0,0-1.754-.863,2.075,2.075,0,0,0-1.727.852A3.925,3.925,0,0,0,68.672-4.133Z" transform="translate(785 3136)" fill="#12263f"/>
    <path id="Trazado_887982" data-name="Trazado 887982" d="M14.5,0,29,25H0Z" transform="translate(839 3090) rotate(180)" fill="#f0c518"/>
  </g>
</svg>
