<svg xmlns="http://www.w3.org/2000/svg" xmlns:xlink="http://www.w3.org/1999/xlink" width="190" height="123" viewBox="0 0 190 123">
  <defs>
    <clipPath id="clip-path">
      <rect id="Rectángulo_403603" data-name="Rectángulo 403603" width="79" height="75.65" fill="none"/>
    </clipPath>
  </defs>
  <g id="Grupo_1101878" data-name="Grupo 1101878" transform="translate(-1230 -975)">
    <g id="Grupo_1101625" data-name="Grupo 1101625" transform="translate(1050 -4007)">
      <rect id="Rectángulo_403324" data-name="Rectángulo 403324" width="190" height="123" transform="translate(180 4982)" fill="#debefb"/>
    </g>
    <g id="Grupo_1101864" data-name="Grupo 1101864" transform="translate(1285.5 995.15)">
      <g id="Grupo_1101863" data-name="Grupo 1101863" transform="translate(0 0)" clip-path="url(#clip-path)">
        <path id="Trazado_887663" data-name="Trazado 887663" d="M1.733,16.043H15.054a1.332,1.332,0,0,1,1.333,1.33v7.982a1.33,1.33,0,0,1-1.333,1.328H1.733A1.33,1.33,0,0,1,.4,25.356V17.373a1.332,1.332,0,0,1,1.333-1.33" transform="translate(0.47 18.832)" fill="#f2f3f4"/>
        <path id="Trazado_887664" data-name="Trazado 887664" d="M15.523,28.026H2.2a2.2,2.2,0,0,1-2.2-2.2V17.842a2.2,2.2,0,0,1,2.2-2.2H15.523a2.2,2.2,0,0,1,2.2,2.2v7.982a2.207,2.207,0,0,1-2.2,2.2M2.2,17.383a.461.461,0,0,0-.461.459v7.982a.461.461,0,0,0,.461.461H15.523a.463.463,0,0,0,.463-.461V17.842a.462.462,0,0,0-.463-.459Z" transform="translate(0 18.361)"/>
        <path id="Trazado_887665" data-name="Trazado 887665" d="M10.231,26.259H2.238l1.333-5.321H8.9Z" transform="translate(2.627 24.577)" fill="#8722e2"/>
        <path id="Trazado_887666" data-name="Trazado 887666" d="M10.7,27.6H2.707a.872.872,0,0,1-.685-.337.856.856,0,0,1-.157-.746L3.2,21.194a.868.868,0,0,1,.843-.656H9.37a.865.865,0,0,1,.841.659l1.333,5.321a.861.861,0,0,1-.159.743.872.872,0,0,1-.685.337M3.822,25.857H9.585l-.9-3.578H4.72Z" transform="translate(2.158 24.108)"/>
        <path id="Trazado_887667" data-name="Trazado 887667" d="M29.921,15.431H43.242a1.332,1.332,0,0,1,1.333,1.33v7.982a1.33,1.33,0,0,1-1.333,1.328H29.921a1.33,1.33,0,0,1-1.333-1.328V16.761a1.332,1.332,0,0,1,1.333-1.33" transform="translate(33.556 18.113)" fill="#f2f3f4"/>
        <path id="Trazado_887668" data-name="Trazado 887668" d="M43.712,27.414H30.391a2.206,2.206,0,0,1-2.2-2.2V17.232a2.205,2.205,0,0,1,2.2-2.2H43.712a2.2,2.2,0,0,1,2.2,2.2v7.98a2.2,2.2,0,0,1-2.2,2.2M30.391,16.771a.463.463,0,0,0-.463.461v7.982a.462.462,0,0,0,.463.459H43.712a.461.461,0,0,0,.461-.461v-7.98a.461.461,0,0,0-.461-.461Z" transform="translate(33.086 17.643)"/>
        <path id="Trazado_887669" data-name="Trazado 887669" d="M38.419,25.648H30.426l1.333-5.321h5.328Z" transform="translate(35.714 23.859)" fill="#8722e2"/>
        <path id="Trazado_887670" data-name="Trazado 887670" d="M38.889,26.989H30.9a.873.873,0,0,1-.685-.337.86.86,0,0,1-.157-.743l1.33-5.324a.868.868,0,0,1,.843-.659h5.328a.868.868,0,0,1,.841.656l1.335,5.324a.873.873,0,0,1-.843,1.083m-6.878-1.741h5.761l-.9-3.58H32.907Z" transform="translate(35.246 23.389)"/>
        <path id="Trazado_887671" data-name="Trazado 887671" d="M1.733,27.058H15.054a1.332,1.332,0,0,1,1.333,1.33v7.982A1.33,1.33,0,0,1,15.054,37.7H1.733A1.33,1.33,0,0,1,.4,36.371V28.388a1.332,1.332,0,0,1,1.333-1.33" transform="translate(0.47 31.761)" fill="#f2f3f4"/>
        <path id="Trazado_887672" data-name="Trazado 887672" d="M15.523,39.041H2.2a2.2,2.2,0,0,1-2.2-2.2v-7.98a2.2,2.2,0,0,1,2.2-2.2H15.523a2.205,2.205,0,0,1,2.2,2.2v7.98a2.207,2.207,0,0,1-2.2,2.2M2.2,28.4a.461.461,0,0,0-.461.461v7.98A.461.461,0,0,0,2.2,37.3H15.523a.463.463,0,0,0,.463-.461v-7.98a.463.463,0,0,0-.463-.461Z" transform="translate(0 31.29)"/>
        <path id="Trazado_887673" data-name="Trazado 887673" d="M10.231,37.274H2.238l1.333-5.321H8.9Z" transform="translate(2.627 37.506)" fill="#8722e2"/>
        <path id="Trazado_887674" data-name="Trazado 887674" d="M10.7,38.613H2.707a.872.872,0,0,1-.685-.337.856.856,0,0,1-.157-.746L3.2,32.209a.868.868,0,0,1,.843-.656H9.37a.865.865,0,0,1,.841.659l1.333,5.321a.861.861,0,0,1-.159.743.872.872,0,0,1-.685.337M3.822,36.872H9.585l-.9-3.578H4.72Z" transform="translate(2.158 37.037)"/>
        <path id="Trazado_887675" data-name="Trazado 887675" d="M29.921,27.058H43.242a1.332,1.332,0,0,1,1.333,1.33v7.982A1.33,1.33,0,0,1,43.242,37.7H29.921a1.33,1.33,0,0,1-1.333-1.328V28.388a1.332,1.332,0,0,1,1.333-1.33" transform="translate(33.556 31.761)" fill="#f2f3f4"/>
        <path id="Trazado_887676" data-name="Trazado 887676" d="M43.712,39.041H30.391a2.207,2.207,0,0,1-2.2-2.2v-7.98a2.205,2.205,0,0,1,2.2-2.2H43.712a2.2,2.2,0,0,1,2.2,2.2v7.98a2.2,2.2,0,0,1-2.2,2.2M30.391,28.4a.463.463,0,0,0-.463.461v7.98a.463.463,0,0,0,.463.461H43.712a.461.461,0,0,0,.461-.461v-7.98a.461.461,0,0,0-.461-.461Z" transform="translate(33.086 31.29)"/>
        <path id="Trazado_887677" data-name="Trazado 887677" d="M38.419,37.274H30.426l1.333-5.321h5.328Z" transform="translate(35.714 37.506)" fill="#8722e2"/>
        <path id="Trazado_887678" data-name="Trazado 887678" d="M38.889,38.613H30.9a.873.873,0,0,1-.685-.337.86.86,0,0,1-.157-.743l1.33-5.321a.868.868,0,0,1,.843-.659h5.328a.868.868,0,0,1,.841.656l1.335,5.321a.873.873,0,0,1-.843,1.083m-6.878-1.741h5.761l-.9-3.578H32.907Z" transform="translate(35.246 37.037)"/>
        <path id="Trazado_887679" data-name="Trazado 887679" d="M11.009.4h33.6a1.049,1.049,0,0,1,1.05,1.048V25.567a1.049,1.049,0,0,1-1.05,1.048h-33.6a1.049,1.049,0,0,1-1.05-1.048V1.449A1.049,1.049,0,0,1,11.009.4" transform="translate(11.69 0.471)" fill="#f2f3f4"/>
        <path id="Trazado_887680" data-name="Trazado 887680" d="M45.08,27.957H11.48a1.925,1.925,0,0,1-1.922-1.919V1.919A1.925,1.925,0,0,1,11.48,0h33.6A1.925,1.925,0,0,1,47,1.919V26.038a1.925,1.925,0,0,1-1.922,1.919M11.48,1.741a.178.178,0,0,0-.18.178V26.038a.178.178,0,0,0,.18.178h33.6a.178.178,0,0,0,.18-.178V1.919a.178.178,0,0,0-.18-.178Z" transform="translate(11.219 0)"/>
        <path id="Trazado_887681" data-name="Trazado 887681" d="M9.959,10.53h35.7v3.145a1.047,1.047,0,0,1-1.05,1.048h-33.6a1.047,1.047,0,0,1-1.05-1.048Z" transform="translate(11.69 12.36)" fill="#00ffdf"/>
        <path id="Trazado_887682" data-name="Trazado 887682" d="M45.08,16.067H11.48a1.925,1.925,0,0,1-1.922-1.919V11a.873.873,0,0,1,.872-.872h35.7A.873.873,0,0,1,47,11v3.145a1.925,1.925,0,0,1-1.922,1.919M11.3,11.871v2.276a.178.178,0,0,0,.18.178h33.6a.178.178,0,0,0,.18-.178V11.871Z" transform="translate(11.219 11.891)"/>
        <rect id="Rectángulo_403601" data-name="Rectángulo 403601" width="6.856" height="7.341" transform="translate(36.072 27.085)" fill="#8722e2"/>
        <path id="Trazado_887683" data-name="Trazado 887683" d="M23.921,21.142H17.065a.873.873,0,0,1-.872-.872V12.93a.871.871,0,0,1,.872-.87h6.856a.869.869,0,0,1,.87.87V20.27a.871.871,0,0,1-.87.872M17.934,19.4h5.117V13.8H17.934Z" transform="translate(19.007 14.156)"/>
        <line id="Línea_553" data-name="Línea 553" x2="22.305" transform="translate(28.347 34.426)" fill="#88cca6"/>
        <rect id="Rectángulo_403602" data-name="Rectángulo 403602" width="22.307" height="1.741" transform="translate(28.346 33.557)"/>
        <path id="Trazado_887684" data-name="Trazado 887684" d="M19.775,28.009H11.021V26.268h7.884V17.879h1.739v9.26a.871.871,0,0,1-.87.87" transform="translate(12.936 20.987)"/>
        <path id="Trazado_887685" data-name="Trazado 887685" d="M24.465,43.9H11.02V42.16H23.6V17.981h1.739V43.032a.871.871,0,0,1-.87.87" transform="translate(12.935 21.106)"/>
        <path id="Trazado_887686" data-name="Trazado 887686" d="M31.593,28.009H22.837a.873.873,0,0,1-.872-.87v-9.26h1.741v8.389h7.887Z" transform="translate(25.782 20.987)"/>
        <path id="Trazado_887687" data-name="Trazado 887687" d="M34.123,43.9H20.679a.872.872,0,0,1-.87-.87V17.981H21.55V42.16H34.123Z" transform="translate(23.252 21.106)"/>
      </g>
    </g>
  </g>
</svg>
