<svg xmlns="http://www.w3.org/2000/svg" width="57.632" height="57.632" viewBox="0 0 57.632 57.632">
  <path id="Trazado_887755" data-name="Trazado 887755" d="M28.816,136.54a28.816,28.816,0,1,0,28.816,28.816A28.816,28.816,0,0,0,28.816,136.54m17.422,21.069c-4.469,5.045-8.791,10.221-13.023,15.466q-2.11,2.616-4.191,5.256-.6.765-1.2,1.532l-.448.577.532-.689c-1.065,1.379-3.187,2.559-4.867,1.276-4.419-3.374-7.813-7.983-11.713-11.915a3.557,3.557,0,0,1,5.031-5.031c2.066,2.083,4.026,4.264,6.01,6.425.684.745,1.368,1.492,2.071,2.221,5.4-6.872,10.975-13.611,16.768-20.149a3.573,3.573,0,0,1,5.031,0,3.614,3.614,0,0,1,0,5.03" transform="translate(0 -136.54)" fill="#00ffdf"/>
</svg>
