<svg xmlns="http://www.w3.org/2000/svg" width="57.632" height="57.632" viewBox="0 0 57.632 57.632">
  <path id="Trazado_887756" data-name="Trazado 887756" d="M2264.2,0a28.816,28.816,0,1,0,28.816,28.816A28.816,28.816,0,0,0,2264.2,0m15.917,43.414a3.408,3.408,0,0,1-4.624,1.212,11.769,11.769,0,0,1-1.358-1.032c-3.62-3-6.988-6.36-10.315-9.724q-5.081,5.149-10.12,10.34c-3.039,3.133-7.813-1.651-4.779-4.779l.29-.3q4.9-5.048,9.844-10.058-5.143-5.122-10.243-10.287c-3.062-3.1,1.715-7.885,4.779-4.779l.217.219q4.983,5.045,10.006,10.049c2.125-2.133,4.259-4.257,6.424-6.349a33.081,33.081,0,0,1,5.146-4.559,3.38,3.38,0,0,1,3.412,5.836l-.028.017c-3.579,3.023-6.9,6.4-10.19,9.778q3.1,3.054,6.235,6.062c.995.948,1.993,1.894,3.016,2.811.331.3.664.593,1.007.877l.068.041a3.418,3.418,0,0,1,1.212,4.624" transform="translate(-2235.383 -0.001)" fill="#3a1d71"/>
</svg>
