<svg xmlns="http://www.w3.org/2000/svg" xmlns:xlink="http://www.w3.org/1999/xlink" width="718" height="264.817" viewBox="0 0 718 264.817">
  <defs>
    <clipPath id="clip-path">
      <rect id="Rectángulo_403305" data-name="Rectángulo 403305" width="73.23" height="47.538" fill="#8722e2"/>
    </clipPath>
    <clipPath id="clip-path-2">
      <rect id="Rectángulo_403317" data-name="Rectángulo 403317" width="95.488" height="57.468" fill="#a854f3"/>
    </clipPath>
  </defs>
  <g id="Grupo_1101971" data-name="Grupo 1101971" transform="translate(-475 -5786)">
    <g id="Grupo_1101882" data-name="Grupo 1101882" transform="translate(495 6003.279)">
      <g id="Grupo_1101573" data-name="Grupo 1101573" transform="translate(0 0)" clip-path="url(#clip-path)">
        <path id="Trazado_879211" data-name="Trazado 879211" d="M172.205,39.533H112.593V3.02A3.021,3.021,0,0,1,115.614,0h53.571a3.021,3.021,0,0,1,3.02,3.021Z" transform="translate(-105.784 0.001)" fill="#8722e2"/>
        <rect id="Rectángulo_403304" data-name="Rectángulo 403304" width="51.537" height="35.742" transform="translate(10.846 4.164)" fill="#fff"/>
        <path id="Trazado_879212" data-name="Trazado 879212" d="M70.73,690.267H2.5a2.469,2.469,0,0,1-2.219-2.393l-.27-2.3a1.222,1.222,0,0,1,1.02-1.473H72.2a1.222,1.222,0,0,1,1.02,1.473l-.27,2.3a2.469,2.469,0,0,1-2.219,2.393" transform="translate(0 -642.729)" fill="#8722e2"/>
        <path id="Trazado_879213" data-name="Trazado 879213" d="M525.1,724.066h-9.436a.759.759,0,0,1,0-1.518H525.1a.759.759,0,0,1,0,1.518" transform="translate(-483.772 -678.853)" fill="#fff"/>
      </g>
    </g>
    <g id="Grupo_1101883" data-name="Grupo 1101883" transform="translate(947.256 5993.349)">
      <g id="Grupo_1101613" data-name="Grupo 1101613" transform="translate(0 0)">
        <g id="Grupo_1101612" data-name="Grupo 1101612" clip-path="url(#clip-path-2)">
          <path id="Trazado_879256" data-name="Trazado 879256" d="M63.628,0H2.661A2.661,2.661,0,0,0,0,2.661V46.308a2.661,2.661,0,0,0,2.661,2.661H63.628a2.661,2.661,0,0,0,2.661-2.661V2.661A2.661,2.661,0,0,0,63.628,0m-.993,45.04H3.654V3.929h58.98Z" fill="#a854f3"/>
          <path id="Trazado_879257" data-name="Trazado 879257" d="M76.51,148.249v-.027H60.681v.027a2.722,2.722,0,0,1-2.722,2.722H53.478v3H83.712v-3H79.231a2.722,2.722,0,0,1-2.722-2.722" transform="translate(-34.897 -96.721)" fill="#a854f3"/>
          <path id="Trazado_879258" data-name="Trazado 879258" d="M221.825,13.059H200.353a2.663,2.663,0,0,0-2.663,2.663v47.6a2.663,2.663,0,0,0,2.663,2.663h21.472a2.663,2.663,0,0,0,2.663-2.663v-47.6a2.663,2.663,0,0,0-2.663-2.663M211.089,52.99a1.99,1.99,0,1,1,1.99-1.99,1.99,1.99,0,0,1-1.99,1.99M219.2,29.373a1.73,1.73,0,0,1-1.73,1.73H204.7a1.73,1.73,0,0,1-1.73-1.73v-.035a1.73,1.73,0,0,1,1.73-1.73h12.768a1.73,1.73,0,0,1,1.73,1.73Zm0-8.474a1.73,1.73,0,0,1-1.73,1.73H204.7a1.73,1.73,0,0,1-1.73-1.73v-.035a1.73,1.73,0,0,1,1.73-1.73h12.768a1.73,1.73,0,0,1,1.73,1.73Z" transform="translate(-129.001 -8.522)" fill="#a854f3"/>
        </g>
      </g>
      <rect id="Rectángulo_403318" data-name="Rectángulo 403318" width="60.012" height="42.009" transform="translate(3.001 3.275)" fill="#fff"/>
    </g>
    <path id="Trazado_887757" data-name="Trazado 887757" d="M-8465-5746.121v-99.262h186.367" transform="translate(8997 11675)" fill="none" stroke="#3a1d71" stroke-width="1.5"/>
    <path id="Trazado_887758" data-name="Trazado 887758" d="M-8315-5805.066v-40.316h-150" transform="translate(9315 11675)" fill="none" stroke="#3a1d71" stroke-width="1.5"/>
    <path id="Trazado_887967" data-name="Trazado 887967" d="M16,0h93a16,16,0,0,1,0,32H16A16,16,0,0,1,16,0Z" transform="translate(475 5944)" fill="#debefb"/>
    <path id="Trazado_887968" data-name="Trazado 887968" d="M10.063,0H8.555V-5.258H2.82V0H1.32V-11.375h1.5v4.891H8.555v-4.891h1.508Zm10.3-10.148H16.7V0H15.211V-10.148H11.563v-1.227h8.8Zm9.672,0H26.375V0H24.883V-10.148H21.234v-1.227h8.8Zm3.188,5.7V0h-1.5V-11.375h4.2a4.215,4.215,0,0,1,2.926.953A3.231,3.231,0,0,1,39.9-7.9a3.189,3.189,0,0,1-1.035,2.551,4.4,4.4,0,0,1-2.965.895Zm0-1.227h2.7a2.7,2.7,0,0,0,1.844-.567,2.075,2.075,0,0,0,.641-1.64,2.143,2.143,0,0,0-.641-1.628A2.525,2.525,0,0,0,36-10.148H33.219ZM52.3-8.406a2.641,2.641,0,0,1-.449,1.516,3.057,3.057,0,0,1-1.215,1.039,3.26,3.26,0,0,1,1.41,1.117,2.811,2.811,0,0,1,.52,1.664,2.972,2.972,0,0,1-1,2.352,3.827,3.827,0,0,1-2.621.875,3.81,3.81,0,0,1-2.629-.879,2.986,2.986,0,0,1-.988-2.348,2.9,2.9,0,0,1,.5-1.664,3.136,3.136,0,0,1,1.395-1.125,2.981,2.981,0,0,1-1.2-1.039,2.679,2.679,0,0,1-.437-1.508,2.94,2.94,0,0,1,.922-2.281,3.458,3.458,0,0,1,2.43-.844,3.461,3.461,0,0,1,2.426.844A2.934,2.934,0,0,1,52.3-8.406Zm-1.18,5.3a2.1,2.1,0,0,0-.605-1.555,2.147,2.147,0,0,0-1.582-.6,2.11,2.11,0,0,0-1.566.594,2.12,2.12,0,0,0-.59,1.563,2.019,2.019,0,0,0,.574,1.523,2.2,2.2,0,0,0,1.6.555,2.2,2.2,0,0,0,1.594-.559A2.014,2.014,0,0,0,51.117-3.1Zm-2.172-7.242a1.865,1.865,0,0,0-1.379.527,1.937,1.937,0,0,0-.527,1.434,1.928,1.928,0,0,0,.52,1.4,1.844,1.844,0,0,0,1.387.535,1.844,1.844,0,0,0,1.387-.535,1.928,1.928,0,0,0,.52-1.4A1.929,1.929,0,0,0,50.313-9.8,1.839,1.839,0,0,0,48.945-10.344Zm12.57,5.492a6.61,6.61,0,0,1-.867,3.773A3.084,3.084,0,0,1,57.938.156a3.107,3.107,0,0,1-2.7-1.207,6.274,6.274,0,0,1-.906-3.605v-1.93a6.463,6.463,0,0,1,.867-3.727,3.108,3.108,0,0,1,2.719-1.219,3.136,3.136,0,0,1,2.7,1.176,6.237,6.237,0,0,1,.891,3.629ZM60.07-6.828A5.3,5.3,0,0,0,59.555-9.5a1.775,1.775,0,0,0-1.633-.84,1.751,1.751,0,0,0-1.617.836,5.171,5.171,0,0,0-.523,2.57v2.313A5.381,5.381,0,0,0,56.316-1.9a1.771,1.771,0,0,0,1.621.879,1.747,1.747,0,0,0,1.59-.828,5.186,5.186,0,0,0,.543-2.609Z" transform="translate(506 5966)" fill="#12263f"/>
    <path id="Trazado_887969" data-name="Trazado 887969" d="M16,0H89a16,16,0,0,1,0,32H16A16,16,0,0,1,16,0Z" transform="translate(764 5944)" fill="#debefb"/>
    <path id="Trazado_887970" data-name="Trazado 887970" d="M9.18-10.148H5.523V0H4.031V-10.148H.383v-1.227h8.8Zm4.2,10.3a3.693,3.693,0,0,1-2.8-1.129A4.19,4.19,0,0,1,9.5-3.992v-.266A5.073,5.073,0,0,1,9.98-6.5a3.748,3.748,0,0,1,1.344-1.547A3.378,3.378,0,0,1,13.2-8.609a3.166,3.166,0,0,1,2.563,1.086,4.7,4.7,0,0,1,.914,3.109v.6H10.945a3,3,0,0,0,.73,2.02,2.3,2.3,0,0,0,1.777.77,2.517,2.517,0,0,0,1.3-.312,3.259,3.259,0,0,0,.93-.828l.883.688A3.55,3.55,0,0,1,13.375.156ZM13.2-7.422a1.928,1.928,0,0,0-1.469.637A3.1,3.1,0,0,0,10.992-5h4.234v-.109a2.753,2.753,0,0,0-.594-1.707A1.815,1.815,0,0,0,13.2-7.422ZM19.914,0H18.469V-12h1.445Zm3.68-8.453.047,1.063a3.08,3.08,0,0,1,2.531-1.219q2.68,0,2.7,3.023V0H27.43V-5.594a1.946,1.946,0,0,0-.418-1.352,1.675,1.675,0,0,0-1.277-.437,2.086,2.086,0,0,0-1.234.375,2.546,2.546,0,0,0-.828.984V0H22.227V-8.453ZM34.563.156a3.693,3.693,0,0,1-2.8-1.129,4.19,4.19,0,0,1-1.078-3.02v-.266a5.073,5.073,0,0,1,.48-2.246,3.748,3.748,0,0,1,1.344-1.547,3.378,3.378,0,0,1,1.871-.559,3.166,3.166,0,0,1,2.563,1.086,4.7,4.7,0,0,1,.914,3.109v.6H32.133a3,3,0,0,0,.73,2.02,2.3,2.3,0,0,0,1.777.77,2.517,2.517,0,0,0,1.3-.312,3.259,3.259,0,0,0,.93-.828l.883.688A3.55,3.55,0,0,1,34.563.156Zm-.18-7.578a1.928,1.928,0,0,0-1.469.637A3.1,3.1,0,0,0,32.18-5h4.234v-.109a2.753,2.753,0,0,0-.594-1.707A1.815,1.815,0,0,0,34.383-7.422ZM41.492-10.5v2.047H43.07v1.117H41.492v5.249a1.173,1.173,0,0,0,.211.763.888.888,0,0,0,.719.254,3.5,3.5,0,0,0,.688-.094V0A4.215,4.215,0,0,1,42,.156,1.8,1.8,0,0,1,40.539-.43a2.517,2.517,0,0,1-.492-1.664V-7.336H38.508V-8.453h1.539V-10.5ZM56.023,0H48.57V-1.039l3.938-4.375a9.355,9.355,0,0,0,1.207-1.613,2.693,2.693,0,0,0,.332-1.285,2.041,2.041,0,0,0-.539-1.461,1.885,1.885,0,0,0-1.437-.57,2.232,2.232,0,0,0-1.676.613,2.343,2.343,0,0,0-.6,1.707H48.352a3.355,3.355,0,0,1,1.012-2.539,3.751,3.751,0,0,1,2.707-.969,3.6,3.6,0,0,1,2.508.832A2.838,2.838,0,0,1,55.5-8.484q0,1.68-2.141,4l-3.047,3.3h5.711Zm3.633-6.391h1.086a2.387,2.387,0,0,0,1.609-.539,1.8,1.8,0,0,0,.586-1.414,1.764,1.764,0,0,0-1.992-2,2.072,2.072,0,0,0-1.5.535,1.873,1.873,0,0,0-.559,1.418H57.445a2.9,2.9,0,0,1,.988-2.246,3.6,3.6,0,0,1,2.512-.895,3.558,3.558,0,0,1,2.523.852,3.076,3.076,0,0,1,.914,2.367,2.5,2.5,0,0,1-.48,1.438,2.9,2.9,0,0,1-1.309,1.039,2.8,2.8,0,0,1,1.449.984,2.734,2.734,0,0,1,.512,1.68,3.1,3.1,0,0,1-1,2.43,3.745,3.745,0,0,1-2.6.9,3.844,3.844,0,0,1-2.605-.867,2.877,2.877,0,0,1-1-2.289H58.8a1.859,1.859,0,0,0,.586,1.438,2.229,2.229,0,0,0,1.57.539,2.187,2.187,0,0,0,1.6-.547,2.108,2.108,0,0,0,.555-1.57A1.912,1.912,0,0,0,62.5-4.664a2.655,2.655,0,0,0-1.758-.547H59.656Z" transform="translate(784 5966)" fill="#12263f"/>
    <path id="Trazado_887971" data-name="Trazado 887971" d="M16,0H79a16,16,0,0,1,0,32H16A16,16,0,0,1,16,0Z" transform="translate(915 5897)" fill="#debefb"/>
    <path id="Trazado_887972" data-name="Trazado 887972" d="M7.594-5.023H2.82V0H1.32V-11.375H8.367v1.227H2.82v3.9H7.594ZM18.18-10.148H14.523V0H13.031V-10.148H9.383v-1.227h8.8Zm3.188,5.7V0h-1.5V-11.375h4.2a4.215,4.215,0,0,1,2.926.953A3.231,3.231,0,0,1,28.047-7.9a3.189,3.189,0,0,1-1.035,2.551,4.4,4.4,0,0,1-2.965.895Zm0-1.227h2.7a2.7,2.7,0,0,0,1.844-.567,2.075,2.075,0,0,0,.641-1.64,2.143,2.143,0,0,0-.641-1.628,2.525,2.525,0,0,0-1.758-.634H21.367ZM41,0H33.547V-1.039l3.938-4.375a9.355,9.355,0,0,0,1.207-1.613,2.693,2.693,0,0,0,.332-1.285,2.041,2.041,0,0,0-.539-1.461,1.885,1.885,0,0,0-1.437-.57,2.232,2.232,0,0,0-1.676.613,2.343,2.343,0,0,0-.6,1.707H33.328a3.355,3.355,0,0,1,1.012-2.539,3.751,3.751,0,0,1,2.707-.969,3.6,3.6,0,0,1,2.508.832,2.838,2.838,0,0,1,.922,2.215q0,1.68-2.141,4l-3.047,3.3H41Zm6.281,0H45.828V-9.633l-2.914,1.07V-9.875l4.141-1.555h.227Z" transform="translate(937 5919)" fill="#12263f"/>
    <path id="Trazado_887973" data-name="Trazado 887973" d="M16,0H79a16,16,0,0,1,0,32H16A16,16,0,0,1,16,0Z" transform="translate(1091 5879)" fill="#debefb"/>
    <path id="Trazado_887974" data-name="Trazado 887974" d="M4.672-5.07A7.053,7.053,0,0,1,1.863-6.434a2.6,2.6,0,0,1-.879-2,2.751,2.751,0,0,1,1.074-2.223,4.269,4.269,0,0,1,2.793-.879,4.66,4.66,0,0,1,2.09.453,3.436,3.436,0,0,1,1.422,1.25,3.2,3.2,0,0,1,.5,1.742H7.359A2.08,2.08,0,0,0,6.7-9.713,2.669,2.669,0,0,0,4.852-10.3a2.732,2.732,0,0,0-1.73.489A1.632,1.632,0,0,0,2.5-8.458,1.468,1.468,0,0,0,3.09-7.28,5.785,5.785,0,0,0,5.1-6.4a9.316,9.316,0,0,1,2.219.88A3.367,3.367,0,0,1,8.5-4.4a2.861,2.861,0,0,1,.387,1.508A2.658,2.658,0,0,1,7.813-.676,4.6,4.6,0,0,1,4.93.156,5.347,5.347,0,0,1,2.742-.293a3.681,3.681,0,0,1-1.566-1.23A3,3,0,0,1,.625-3.3H2.133a1.959,1.959,0,0,0,.762,1.629,3.207,3.207,0,0,0,2.035.6,2.948,2.948,0,0,0,1.82-.484,1.573,1.573,0,0,0,.633-1.32A1.545,1.545,0,0,0,6.8-4.168,6.755,6.755,0,0,0,4.672-5.07Zm8.078-6.3,3.719,9.281,3.719-9.281h1.945V0h-1.5V-4.43l.141-4.781L17.039,0H15.891L12.164-9.187l.148,4.758V0h-1.5V-11.375Zm19.664,1.227H28.758V0H27.266V-10.148H23.617v-1.227h8.8Zm3.188,5.7V0H34.1V-11.375h4.2a4.215,4.215,0,0,1,2.926.953A3.231,3.231,0,0,1,42.281-7.9a3.189,3.189,0,0,1-1.035,2.551,4.4,4.4,0,0,1-2.965.895Zm0-1.227h2.7a2.7,2.7,0,0,0,1.844-.567,2.075,2.075,0,0,0,.641-1.64,2.143,2.143,0,0,0-.641-1.628,2.525,2.525,0,0,0-1.758-.634H35.6ZM55.234,0H47.781V-1.039l3.938-4.375a9.355,9.355,0,0,0,1.207-1.613,2.693,2.693,0,0,0,.332-1.285,2.041,2.041,0,0,0-.539-1.461,1.885,1.885,0,0,0-1.437-.57,2.232,2.232,0,0,0-1.676.613,2.343,2.343,0,0,0-.6,1.707H47.563a3.355,3.355,0,0,1,1.012-2.539,3.751,3.751,0,0,1,2.707-.969,3.6,3.6,0,0,1,2.508.832,2.838,2.838,0,0,1,.922,2.215q0,1.68-2.141,4l-3.047,3.3h5.711Zm2.2-5.7.578-5.672h5.828v1.336h-4.6l-.344,3.1a3.671,3.671,0,0,1,1.9-.492A3.138,3.138,0,0,1,63.258-6.4a4.026,4.026,0,0,1,.914,2.777,3.886,3.886,0,0,1-.949,2.77A3.46,3.46,0,0,1,60.57.156,3.6,3.6,0,0,1,58.109-.68a3.337,3.337,0,0,1-1.086-2.312h1.367a2.3,2.3,0,0,0,.7,1.473,2.162,2.162,0,0,0,1.484.5,1.95,1.95,0,0,0,1.582-.687,2.874,2.874,0,0,0,.574-1.9,2.638,2.638,0,0,0-.621-1.832,2.113,2.113,0,0,0-1.652-.691,2.383,2.383,0,0,0-1.484.414l-.383.313Z" transform="translate(1108 5901)" fill="#12263f"/>
    <path id="Trazado_887975" data-name="Trazado 887975" d="M16,0h93a16,16,0,0,1,0,32H16A16,16,0,0,1,16,0Z" transform="translate(1068 5953)" fill="#debefb"/>
    <path id="Trazado_887976" data-name="Trazado 887976" d="M10.063,0H8.555V-5.258H2.82V0H1.32V-11.375h1.5v4.891H8.555v-4.891h1.508Zm10.3-10.148H16.7V0H15.211V-10.148H11.563v-1.227h8.8Zm9.672,0H26.375V0H24.883V-10.148H21.234v-1.227h8.8Zm3.188,5.7V0h-1.5V-11.375h4.2a4.215,4.215,0,0,1,2.926.953A3.231,3.231,0,0,1,39.9-7.9a3.189,3.189,0,0,1-1.035,2.551,4.4,4.4,0,0,1-2.965.895Zm0-1.227h2.7a2.7,2.7,0,0,0,1.844-.567,2.075,2.075,0,0,0,.641-1.64,2.143,2.143,0,0,0-.641-1.628A2.525,2.525,0,0,0,36-10.148H33.219ZM52.3-8.406a2.641,2.641,0,0,1-.449,1.516,3.057,3.057,0,0,1-1.215,1.039,3.26,3.26,0,0,1,1.41,1.117,2.811,2.811,0,0,1,.52,1.664,2.972,2.972,0,0,1-1,2.352,3.827,3.827,0,0,1-2.621.875,3.81,3.81,0,0,1-2.629-.879,2.986,2.986,0,0,1-.988-2.348,2.9,2.9,0,0,1,.5-1.664,3.136,3.136,0,0,1,1.395-1.125,2.981,2.981,0,0,1-1.2-1.039,2.679,2.679,0,0,1-.437-1.508,2.94,2.94,0,0,1,.922-2.281,3.458,3.458,0,0,1,2.43-.844,3.461,3.461,0,0,1,2.426.844A2.934,2.934,0,0,1,52.3-8.406Zm-1.18,5.3a2.1,2.1,0,0,0-.605-1.555,2.147,2.147,0,0,0-1.582-.6,2.11,2.11,0,0,0-1.566.594,2.12,2.12,0,0,0-.59,1.563,2.019,2.019,0,0,0,.574,1.523,2.2,2.2,0,0,0,1.6.555,2.2,2.2,0,0,0,1.594-.559A2.014,2.014,0,0,0,51.117-3.1Zm-2.172-7.242a1.865,1.865,0,0,0-1.379.527,1.937,1.937,0,0,0-.527,1.434,1.928,1.928,0,0,0,.52,1.4,1.844,1.844,0,0,0,1.387.535,1.844,1.844,0,0,0,1.387-.535,1.928,1.928,0,0,0,.52-1.4A1.929,1.929,0,0,0,50.313-9.8,1.839,1.839,0,0,0,48.945-10.344Zm12.57,5.492a6.61,6.61,0,0,1-.867,3.773A3.084,3.084,0,0,1,57.938.156a3.107,3.107,0,0,1-2.7-1.207,6.274,6.274,0,0,1-.906-3.605v-1.93a6.463,6.463,0,0,1,.867-3.727,3.108,3.108,0,0,1,2.719-1.219,3.136,3.136,0,0,1,2.7,1.176,6.237,6.237,0,0,1,.891,3.629ZM60.07-6.828A5.3,5.3,0,0,0,59.555-9.5a1.775,1.775,0,0,0-1.633-.84,1.751,1.751,0,0,0-1.617.836,5.171,5.171,0,0,0-.523,2.57v2.313A5.381,5.381,0,0,0,56.316-1.9a1.771,1.771,0,0,0,1.621.879,1.747,1.747,0,0,0,1.59-.828,5.186,5.186,0,0,0,.543-2.609Z" transform="translate(1099 5975)" fill="#12263f"/>
    <path id="Trazado_887759" data-name="Trazado 887759" d="M-8055.527-5652.917H-8102v-63.036h-25.355" transform="translate(8997 11675)" fill="none" stroke="#3a1d71" stroke-width="1.5"/>
    <path id="Trazado_887760" data-name="Trazado 887760" d="M-8019.3-5684.435v-60.788" transform="translate(8997 11675)" fill="none" stroke="#3a1d71" stroke-width="1.5"/>
    <path id="Trazado_887761" data-name="Trazado 887761" d="M-7954.256-5652.917H-7872v-35.325" transform="translate(8997 11675)" fill="none" stroke="#3a1d71" stroke-width="1.5"/>
    <path id="Trazado_887762" data-name="Trazado 887762" d="M-7966.883-5681.651v-97.1h62.406" transform="translate(8997 11675)" fill="none" stroke="#3a1d71" stroke-width="1.5"/>
    <g id="Trazado_887966" data-name="Trazado 887966" transform="translate(-8252.07 -5911)" fill="none">
      <path d="M9022.1,11773.555l-16.578,3.949,4.28-13.664a40.417,40.417,0,1,1,12.3,9.715Z" stroke="none"/>
      <path d="M 9040.5693359375 11774.0009765625 C 9045.498046875 11774.0009765625 9050.2783203125 11773.0361328125 9054.775390625 11771.1337890625 C 9059.12109375 11769.2958984375 9063.0244140625 11766.6630859375 9066.3779296875 11763.3095703125 C 9069.7314453125 11759.9560546875 9072.36328125 11756.0517578125 9074.2021484375 11751.705078125 C 9076.103515625 11747.2080078125 9077.068359375 11742.4287109375 9077.068359375 11737.4990234375 C 9077.068359375 11732.5703125 9076.103515625 11727.7900390625 9074.2021484375 11723.29296875 C 9072.36328125 11718.947265625 9069.7314453125 11715.0439453125 9066.3779296875 11711.6904296875 C 9063.0244140625 11708.3369140625 9059.12109375 11705.705078125 9054.775390625 11703.8662109375 C 9050.2783203125 11701.96484375 9045.498046875 11701 9040.5693359375 11701 C 9035.640625 11701 9030.8603515625 11701.96484375 9026.36328125 11703.8662109375 C 9022.017578125 11705.705078125 9018.1142578125 11708.3369140625 9014.7607421875 11711.6904296875 C 9011.4072265625 11715.0439453125 9008.775390625 11718.947265625 9006.9365234375 11723.29296875 C 9005.03515625 11727.7900390625 9004.0703125 11732.5703125 9004.0703125 11737.4990234375 C 9004.0703125 11741.93359375 9004.85546875 11746.265625 9006.404296875 11750.3740234375 C 9007.9013671875 11754.34375 9010.0673828125 11757.9990234375 9012.841796875 11761.2373046875 L 9014.2841796875 11762.919921875 L 9011.4462890625 11771.9814453125 L 9022.61328125 11769.3212890625 L 9023.9287109375 11769.99609375 C 9026.4501953125 11771.2900390625 9029.12109375 11772.2861328125 9031.8681640625 11772.9580078125 C 9034.6982421875 11773.650390625 9037.6259765625 11774.0009765625 9040.5693359375 11774.0009765625 M 9040.5693359375 11778.0009765625 C 9033.9169921875 11778.0009765625 9027.640625 11776.396484375 9022.1025390625 11773.5546875 L 9005.5244140625 11777.50390625 L 9009.8046875 11763.83984375 C 9003.736328125 11756.7578125 9000.0703125 11747.556640625 9000.0703125 11737.4990234375 C 9000.0703125 11715.1318359375 9018.2021484375 11697 9040.5693359375 11697 C 9062.9365234375 11697 9081.068359375 11715.1318359375 9081.068359375 11737.4990234375 C 9081.068359375 11759.8662109375 9062.9365234375 11778.0009765625 9040.5693359375 11778.0009765625 Z" stroke="none" fill="#a854f3"/>
    </g>
  </g>
</svg>
