<svg xmlns="http://www.w3.org/2000/svg" xmlns:xlink="http://www.w3.org/1999/xlink" width="64" height="64" viewBox="0 0 64 64">
  <defs>
    <clipPath id="clip-path">
      <rect id="Rectángulo_403676" data-name="Rectángulo 403676" width="39.104" height="43.831" fill="none"/>
    </clipPath>
  </defs>
  <g id="Grupo_1101905" data-name="Grupo 1101905" transform="translate(-210 -7149)">
    <circle id="Elipse_11531" data-name="Elipse 11531" cx="32" cy="32" r="32" transform="translate(210 7149)" fill="#f7eefe"/>
    <g id="Grupo_1101889" data-name="Grupo 1101889" transform="translate(222.447 7159.584)">
      <g id="Grupo_1101888" data-name="Grupo 1101888" clip-path="url(#clip-path)">
        <path id="Trazado_887763" data-name="Trazado 887763" d="M38.346.758a2.588,2.588,0,0,0-4.4,2.148l-19.1,8.262L7.341,3.661a.729.729,0,0,0-1.212.3C4.472,9.253,5.509,15.415,8.743,20.84a7.578,7.578,0,0,0,1.423,8.725,7.711,7.711,0,0,0,.682.6l-7.9,10.014H.729A.729.729,0,0,0,0,40.911V43.1a.729.729,0,0,0,.729.729H22.845a.729.729,0,0,0,.729-.729v-2.19a.729.729,0,0,0-.729-.729H20.607l-2.47-8.868a7.625,7.625,0,0,0,1-.457,22.669,22.669,0,0,0,10.766,2.9,17.541,17.541,0,0,0,5.246-.78.729.729,0,0,0,.3-1.212l-7.508-7.508L36.2,5.157A2.585,2.585,0,0,0,39.1,2.59,2.574,2.574,0,0,0,38.346.758M33.3,4.777,20.876,17.2l-4.919-4.919Zm1.032,1.031-7.5,17.338-4.919-4.919ZM22.115,42.372H1.459v-.731H22.115Zm-3.023-2.19H4.806l7.275-9.221a7.417,7.417,0,0,0,4.646.727ZM17.11,30.115c-.02,0-.04,0-.061.01s-.027.011-.041.016A6.115,6.115,0,0,1,9.7,22.335a27.73,27.73,0,0,0,3.214,3.852,27.6,27.6,0,0,0,4.69,3.769q-.246.091-.5.159m-3.162-4.959C8.321,19.529,5.755,11.982,7.2,5.584L33.52,31.9c-6.4,1.446-13.945-1.12-19.572-6.747M37.314,3.39a1.132,1.132,0,1,1,0-1.6,1.133,1.133,0,0,1,0,1.6" transform="translate(0 0.001)" fill="#373d47"/>
        <path id="Trazado_887764" data-name="Trazado 887764" d="M142.483,37.467l-12.42,12.418-4.917-4.919Z" transform="translate(-109.187 -32.689)" fill="#ffc152"/>
        <path id="Trazado_887765" data-name="Trazado 887765" d="M184.22,45.545l-7.5,17.338L171.8,57.965Z" transform="translate(-149.892 -39.737)" fill="#ffc152"/>
        <path id="Trazado_887766" data-name="Trazado 887766" d="M32.1,326.541v.731H11.449v-.731H32.1Z" transform="translate(-9.989 -284.9)" fill="#9ca0af"/>
        <path id="Trazado_887767" data-name="Trazado 887767" d="M51.984,252.019H37.7l7.275-9.22a7.526,7.526,0,0,0,3.428.83,7.606,7.606,0,0,0,1.218-.1Z" transform="translate(-32.892 -211.837)" fill="#9ca0af"/>
        <path id="Trazado_887768" data-name="Trazado 887768" d="M81.982,182.775c-.164.062-.33.115-.5.16a.344.344,0,0,0-.062.011c-.015,0-.027.011-.04.015a6.114,6.114,0,0,1-7.306-7.805,27.874,27.874,0,0,0,7.9,7.62" transform="translate(-64.375 -152.819)" fill="#9ca0af"/>
        <path id="Trazado_887769" data-name="Trazado 887769" d="M80.079,70.105c-6.4,1.446-13.946-1.12-19.573-6.746s-8.192-13.175-6.746-19.573Z" transform="translate(-46.558 -38.202)" fill="#dfe1e5"/>
        <path id="Trazado_887770" data-name="Trazado 887770" d="M279.4,13.363a1.132,1.132,0,1,1,0-1.6,1.133,1.133,0,0,1,0,1.6" transform="translate(-242.085 -9.972)" fill="#d34f50"/>
      </g>
    </g>
  </g>
</svg>
