<svg xmlns="http://www.w3.org/2000/svg" xmlns:xlink="http://www.w3.org/1999/xlink" width="64" height="64" viewBox="0 0 64 64">
  <defs>
    <clipPath id="clip-path">
      <rect id="Rectángulo_403690" data-name="Rectángulo 403690" width="26.596" height="39.894" fill="none"/>
    </clipPath>
  </defs>
  <g id="Grupo_1101902" data-name="Grupo 1101902" transform="translate(-1151 -7149)">
    <circle id="Elipse_11534" data-name="Elipse 11534" cx="32" cy="32" r="32" transform="translate(1151 7149)" fill="#f7eefe"/>
    <g id="Grupo_1101897" data-name="Grupo 1101897" transform="translate(1169.702 7161.151)">
      <g id="Grupo_1101896" data-name="Grupo 1101896" clip-path="url(#clip-path)">
        <path id="Trazado_887815" data-name="Trazado 887815" d="M25.765,7.48a.832.832,0,0,0,.831-.831V4.156A4.165,4.165,0,0,0,22.44,0H4.154A4.166,4.166,0,0,0,0,4.154V6.648a.832.832,0,0,0,.831.831h.418V32.414H.831A.831.831,0,0,0,0,33.245v2.493a4.167,4.167,0,0,0,4.154,4.156H22.44A4.165,4.165,0,0,0,26.6,35.738V33.245a.831.831,0,0,0-.831-.831h-.417V7.48ZM23.686,33.246a.83.83,0,0,0,.81.83h.438v1.662a2.5,2.5,0,0,1-2.493,2.493H4.154a2.5,2.5,0,0,1-2.493-2.493V34.077H2.1a.83.83,0,0,0,.81-.83V6.649a.832.832,0,0,0-.831-.831H1.661V4.156A2.5,2.5,0,0,1,4.154,1.662H22.44a2.5,2.5,0,0,1,2.493,2.493V5.817H24.5a.83.83,0,0,0-.81.83Z" fill="#212121"/>
        <path id="Trazado_887816" data-name="Trazado 887816" d="M36.366,277.161H13.51v1.662A2.5,2.5,0,0,0,16,281.317H34.289a2.5,2.5,0,0,0,2.493-2.493v-1.662Zm-9.86,2.908H23.787a.831.831,0,0,1,0-1.662h2.718a.831.831,0,0,1,0,1.662" transform="translate(-11.849 -243.084)" fill="#6bc8c8"/>
        <path id="Trazado_887817" data-name="Trazado 887817" d="M23.67,85.773H44.445V60.84H23.67Zm14.886-11.3a4.229,4.229,0,0,1,1.135,2.6,4.8,4.8,0,0,1-.725,2.793,8.745,8.745,0,0,1-4.051,3.326.832.832,0,0,1-1.211-.74V74.706l-3.87,3.87A.831.831,0,0,1,28.658,77.4l4.094-4.094-4.1-4.1a.831.831,0,0,1,1.175-1.175L33.7,71.909V64.163a.831.831,0,0,1,1.211-.739,8.737,8.737,0,0,1,4.051,3.326,4.806,4.806,0,0,1,.724,2.792,4.221,4.221,0,0,1-1.134,2.6,7.049,7.049,0,0,1-1.538,1.17,7.075,7.075,0,0,1,1.537,1.169" transform="translate(-20.76 -53.36)" fill="#f2dfbd"/>
        <path id="Trazado_887818" data-name="Trazado 887818" d="M34.289,13.51H16A2.5,2.5,0,0,0,13.51,16v1.662H36.782V16a2.5,2.5,0,0,0-2.493-2.493m-5.818,2.91h-6.65a.831.831,0,1,1,0-1.662h6.65a.831.831,0,1,1,0,1.662" transform="translate(-11.849 -11.849)" fill="#5dc6c6"/>
        <path id="Trazado_887819" data-name="Trazado 887819" d="M27.7,48.151a.832.832,0,0,1-.831.831H2.28A.831.831,0,0,1,2.3,47.32H26.873a.832.832,0,0,1,.831.831" transform="translate(-1.289 -41.502)" fill="#212121"/>
        <path id="Trazado_887820" data-name="Trazado 887820" d="M27.7,264.471a.832.832,0,0,1-.831.831H2.3a.831.831,0,0,1,0-1.662H26.873a.831.831,0,0,1,.831.831" transform="translate(-1.289 -231.227)" fill="#212121"/>
        <path id="Trazado_887821" data-name="Trazado 887821" d="M82.662,24.491a.832.832,0,0,1-.831.831h-6.65a.831.831,0,1,1,0-1.662h6.65a.832.832,0,0,1,.831.831" transform="translate(-65.209 -20.751)" fill="#212121"/>
        <path id="Trazado_887822" data-name="Trazado 887822" d="M94.721,288.131a.832.832,0,0,1-.831.831H91.171a.831.831,0,0,1,0-1.662h2.718a.832.832,0,0,1,.831.831" transform="translate(-79.233 -251.978)" fill="#212121"/>
        <path id="Trazado_887823" data-name="Trazado 887823" d="M110.546,84.528a8.737,8.737,0,0,0-4.051-3.326.831.831,0,0,0-1.211.739v9.116a.017.017,0,0,0,0,.011v0a.811.811,0,0,0,.017.181.822.822,0,0,0,.5.6.676.676,0,0,0,.084.03.83.83,0,0,0,.4.016h0a7.039,7.039,0,0,0,3.853-1.983,4.221,4.221,0,0,0,1.134-2.6,4.806,4.806,0,0,0-.724-2.792m-.932,2.679a2.6,2.6,0,0,1-.706,1.59,4.7,4.7,0,0,1-1.962,1.2V83.307a6.285,6.285,0,0,1,2.177,2.072,3.167,3.167,0,0,1,.491,1.828" transform="translate(-92.338 -71.138)" fill="#212121"/>
        <path id="Trazado_887824" data-name="Trazado 887824" d="M111.267,160.076a4.229,4.229,0,0,0-1.135-2.6,7.05,7.05,0,0,0-3.852-1.983h0a.825.825,0,0,0-.182-.017.8.8,0,0,0-.218.033.452.452,0,0,0-.081.028.828.828,0,0,0-.519.743.017.017,0,0,0,0,.011.21.21,0,0,0,0,.028v9.132a.832.832,0,0,0,1.211.74,8.745,8.745,0,0,0,4.051-3.326,4.8,4.8,0,0,0,.725-2.793m-2.148,1.94a6.285,6.285,0,0,1-2.177,2.072v-6.694a4.7,4.7,0,0,1,1.963,1.2,2.6,2.6,0,0,1,.706,1.588,3.174,3.174,0,0,1-.492,1.829" transform="translate(-92.336 -136.363)" fill="#212121"/>
        <path id="Trazado_887825" data-name="Trazado 887825" d="M68.626,123.013a.814.814,0,0,1-.124.363.8.8,0,0,1-.111.141.834.834,0,0,1-1.175.011l-4.683-4.683a.831.831,0,0,1,1.175-1.175l4.683,4.683a.816.816,0,0,1,.112.143.807.807,0,0,1,.123.369.752.752,0,0,1,0,.149" transform="translate(-54.636 -102.993)" fill="#212121"/>
        <path id="Trazado_887826" data-name="Trazado 887826" d="M68.638,156.413a.819.819,0,0,1-.122.373.87.87,0,0,1-.112.141l-.213.213-4.47,4.47a.831.831,0,0,1-1.175-1.175l4.094-4.094.589-.589a.83.83,0,0,1,1.285.15s0,0,0,0a.815.815,0,0,1,.124.361.751.751,0,0,1,0,.149" transform="translate(-54.648 -136.394)" fill="#212121"/>
      </g>
    </g>
  </g>
</svg>
