<svg xmlns="http://www.w3.org/2000/svg" xmlns:xlink="http://www.w3.org/1999/xlink" width="64" height="64" viewBox="0 0 64 64">
  <defs>
    <clipPath id="clip-path">
      <rect id="Rect치ngulo_403680" data-name="Rect치ngulo 403680" width="45.248" height="42.869" fill="none"/>
    </clipPath>
  </defs>
  <g id="Grupo_1101906" data-name="Grupo 1101906" transform="translate(-532 -7250)">
    <circle id="Elipse_11535" data-name="Elipse 11535" cx="32" cy="32" r="32" transform="translate(532 7250)" fill="#f7eefe"/>
    <g id="Grupo_1101893" data-name="Grupo 1101893" transform="translate(541 7261)">
      <g id="Grupo_1101892" data-name="Grupo 1101892" clip-path="url(#clip-path)">
        <path id="Trazado_887783" data-name="Trazado 887783" d="M49,68.223H28.825a11.393,11.393,0,0,0-2.745.336V50.429a2.251,2.251,0,0,0-4.5,0v20.4a11.394,11.394,0,0,0-4.164,8.809.737.737,0,0,0,.737.737H19.9V84.1a.737.737,0,0,0,.737.737H57.192a.737.737,0,0,0,.737-.737V80.372h1.75a.737.737,0,0,0,.737-.737A11.425,11.425,0,0,0,49,68.223M23.051,50.429a.777.777,0,1,1,1.554,0V69.035a11.369,11.369,0,0,0-1.554.762Zm33.4,32.934H21.375V80.372H56.455Zm.737-4.466H18.914a9.951,9.951,0,0,1,9.911-9.2H49a9.951,9.951,0,0,1,9.911,9.2Z" transform="translate(-15.169 -41.969)" fill="#373d47"/>
        <path id="Trazado_887784" data-name="Trazado 887784" d="M34.194,35.255a.737.737,0,0,0,1.042,0,5.279,5.279,0,1,0-7.466,0,.737.737,0,0,0,1.042-1.042,3.805,3.805,0,1,1,5.381,0,.737.737,0,0,0,0,1.042" transform="translate(-22.844 -22.862)" fill="#373d47"/>
        <path id="Trazado_887785" data-name="Trazado 887785" d="M3.579,14.782a.737.737,0,0,0,0-1.042A7.185,7.185,0,0,1,13.74,3.579a7.185,7.185,0,0,1,0,10.161.737.737,0,0,0,1.042,1.042A8.659,8.659,0,0,0,2.536,2.536a8.659,8.659,0,0,0,0,12.246.737.737,0,0,0,1.042,0" fill="#373d47"/>
        <path id="Trazado_887786" data-name="Trazado 887786" d="M83.688,242.37A2.031,2.031,0,1,0,85.72,244.4a2.034,2.034,0,0,0-2.031-2.031m0,2.588a.557.557,0,1,1,.557-.557.558.558,0,0,1-.557.557" transform="translate(-71.133 -211.134)" fill="#373d47"/>
        <path id="Trazado_887787" data-name="Trazado 887787" d="M240.12,242.37a2.031,2.031,0,1,0,2.031,2.031,2.034,2.034,0,0,0-2.031-2.031m0,2.588a.557.557,0,1,1,.557-.557.558.558,0,0,1-.557.557" transform="translate(-207.405 -211.134)" fill="#373d47"/>
        <path id="Trazado_887788" data-name="Trazado 887788" d="M275.008,242.37a2.031,2.031,0,1,0,2.031,2.031,2.034,2.034,0,0,0-2.031-2.031m0,2.588a.557.557,0,1,1,.557-.557.558.558,0,0,1-.557.557" transform="translate(-237.797 -211.134)" fill="#373d47"/>
        <rect id="Rect치ngulo_403679" data-name="Rect치ngulo 403679" width="35.08" height="2.992" transform="translate(6.206 38.402)" fill="#dfe1e5"/>
        <path id="Trazado_887789" data-name="Trazado 887789" d="M62.721,60.383V78.988a11.543,11.543,0,0,0-1.553.763V60.383a.777.777,0,1,1,1.553,0" transform="translate(-53.285 -51.923)" fill="#9ca0af"/>
        <path id="Trazado_887790" data-name="Trazado 887790" d="M59.16,215.152H38.98a9.949,9.949,0,0,0-9.91,9.2h40a9.949,9.949,0,0,0-9.91-9.2m-21.281,7.57a2.032,2.032,0,1,1,2.031-2.031,2.034,2.034,0,0,1-2.031,2.031m20.159,0a2.032,2.032,0,1,1,2.032-2.031,2.033,2.033,0,0,1-2.032,2.031m4.5,0a2.032,2.032,0,1,1,2.031-2.031,2.034,2.034,0,0,1-2.031,2.031" transform="translate(-25.324 -187.424)" fill="#dfe1e5"/>
        <path id="Trazado_887791" data-name="Trazado 887791" d="M94.211,254.358a.557.557,0,1,1-.556-.558.558.558,0,0,1,.556.558" transform="translate(-81.098 -221.091)" fill="#d34f50"/>
        <path id="Trazado_887792" data-name="Trazado 887792" d="M250.644,254.358a.557.557,0,1,1-.558-.558.559.559,0,0,1,.558.558" transform="translate(-217.371 -221.091)" fill="#169360"/>
        <path id="Trazado_887793" data-name="Trazado 887793" d="M285.531,254.358a.557.557,0,1,1-.556-.558.558.558,0,0,1,.556.558" transform="translate(-247.762 -221.091)" fill="#169360"/>
      </g>
    </g>
  </g>
</svg>
