<svg xmlns="http://www.w3.org/2000/svg" xmlns:xlink="http://www.w3.org/1999/xlink" width="64" height="64" viewBox="0 0 64 64">
  <defs>
    <clipPath id="clip-path">
      <rect id="Rectángulo_403689" data-name="Rectángulo 403689" width="40.873" height="40.873" fill="none"/>
    </clipPath>
  </defs>
  <g id="Grupo_1101903" data-name="Grupo 1101903" transform="translate(-845 -7250)">
    <circle id="Elipse_11536" data-name="Elipse 11536" cx="32" cy="32" r="32" transform="translate(845 7250)" fill="#f7eefe"/>
    <g id="Grupo_1101895" data-name="Grupo 1101895" transform="translate(857 7260)">
      <g id="Grupo_1101894" data-name="Grupo 1101894" clip-path="url(#clip-path)">
        <path id="Trazado_887794" data-name="Trazado 887794" d="M283.188,278.791a.658.658,0,0,0,0,1.316,3.079,3.079,0,1,1-3.079,3.079.658.658,0,0,0-1.316,0,4.4,4.4,0,1,0,4.4-4.4" transform="translate(-246.71 -246.709)" fill="#373d47"/>
        <path id="Trazado_887795" data-name="Trazado 887795" d="M34.093,35.866a.657.657,0,0,0-.416.611,2.8,2.8,0,1,0,2.8-2.8.657.657,0,0,0-.611.416L33.393,28.26l4.173-4.173A.658.658,0,0,0,37.321,23,11.283,11.283,0,0,0,27.2,24.345L26.8,23.94l1.1-1.1a2.342,2.342,0,0,0,0-3.312l-.545-.545L39.8,6.535a.658.658,0,0,0,0-.931L37.093,2.9h0L34.387.192a.658.658,0,0,0-.931,0l-12.45,12.45-.545-.545a2.342,2.342,0,0,0-3.312,0l-.15.15A3.422,3.422,0,0,0,12.249,17l-.151.151a2.345,2.345,0,0,0,0,3.312l.545.545L.193,33.456a.658.658,0,0,0,0,.931L5.6,39.8a.658.658,0,0,0,.931,0l12.45-12.45.545.545a2.345,2.345,0,0,0,3.312,0l1.1-1.1.406.406A11.282,11.282,0,0,0,23,37.32a.658.658,0,0,0,1.086.246l4.173-4.173Zm1.84.724a.658.658,0,0,0,.606-.915l-.311-.732a.656.656,0,0,0,.25.05,1.485,1.485,0,1,1-1.485,1.485.655.655,0,0,0-.05-.25l.732.311a.656.656,0,0,0,.257.052m-1.241-1.9-5.426-2.3,3.124-3.124ZM24.643,16.279,28.017,12.9l1.775,1.775-3.374,3.374ZM29.617,5.894l1.775,1.775-3.374,3.374L26.242,9.268ZM32.322,8.6,34.1,10.375l-3.375,3.374-1.775-1.775Zm2.706.844L33.253,7.669l3.374-3.374L38.4,6.069ZM33.922,1.588,35.7,3.363,32.322,6.738,30.547,4.963ZM25.311,10.2l1.775,1.775-3.374,3.374-1.775-1.775ZM13.6,13.6a2.1,2.1,0,0,1,2.438-.39L13.21,16.037A2.109,2.109,0,0,1,13.6,13.6m1.749,10.112-3.374,3.374L10.2,25.31l3.374-3.374ZM10.375,34.1,8.6,32.322l3.374-3.374,1.775,1.775ZM7.669,31.391,5.894,29.616l3.374-3.374,1.775,1.775Zm-2.706-.844,1.775,1.775L3.364,35.7,1.589,33.921ZM6.07,38.4,4.295,36.627l3.374-3.374,1.775,1.775Zm8.611-8.611-1.775-1.775,3.374-3.374,1.775,1.775Zm7.231-2.83a1.027,1.027,0,0,1-1.45,0l-1.01-1.01h0L14.04,20.54h0l-1.01-1.01a1.027,1.027,0,0,1,0-1.451l5.051-5.051h0a1.025,1.025,0,0,1,1.45,0l1.01,1.01,5.412,5.412h0l1.01,1.01a1.025,1.025,0,0,1,0,1.45l-1.56,1.56,0,0,0,0-1.916,1.916,0,0,0,0Zm2.96-1.1.993-.993.291.291c-.175.154-.347.313-.513.48s-.325.338-.48.513Zm-.931,9.988A9.913,9.913,0,0,1,35.852,23.94l-3.7,3.7h0l-4.5,4.5h0Z" transform="translate(0 0)" fill="#373d47"/>
        <path id="Trazado_887796" data-name="Trazado 887796" d="M217.413,216.415q-.264.232-.513.48t-.48.513l-.291-.291.994-.992Z" transform="translate(-191.257 -191.254)" fill="#f5871f"/>
        <path id="Trazado_887797" data-name="Trazado 887797" d="M306.68,305.176a1.485,1.485,0,0,1-2.97,0,.666.666,0,0,0-.049-.25l.732.311a.657.657,0,0,0,.862-.862l-.309-.734a.627.627,0,0,0,.248.051,1.487,1.487,0,0,1,1.486,1.484" transform="translate(-268.717 -268.699)" fill="#d34f50"/>
        <path id="Trazado_887798" data-name="Trazado 887798" d="M259.745,259.726l-5.426-2.3,3.124-3.124Z" transform="translate(-225.053 -225.036)" fill="#ffc152"/>
        <path id="Trazado_887799" data-name="Trazado 887799" d="M217.954,206.02l-3.7,3.7s0,0,0,0l-4.5,4.5-3.7,3.7a9.911,9.911,0,0,1,11.911-11.912" transform="translate(-182.102 -182.08)" fill="#ffc152"/>
        <rect id="Rectángulo_403681" data-name="Rectángulo 403681" width="4.772" height="2.51" transform="translate(33.254 7.669) rotate(-45)" fill="#9ca0af"/>
        <path id="Trazado_887800" data-name="Trazado 887800" d="M256.709,76.507l-3.375,3.373-1.775-1.774,3.375-3.375Z" transform="translate(-222.611 -66.132)" fill="#9ca0af"/>
        <rect id="Rectángulo_403682" data-name="Rectángulo 403682" width="4.772" height="2.511" transform="translate(24.642 16.279) rotate(-45)" fill="#9ca0af"/>
        <path id="Trazado_887801" data-name="Trazado 887801" d="M117.3,215.912l-3.373,3.375-1.775-1.775,3.375-3.374Z" transform="translate(-99.248 -189.495)" fill="#9ca0af"/>
        <path id="Trazado_887802" data-name="Trazado 887802" d="M79.886,253.328,76.511,256.7l-1.775-1.775,3.375-3.373Z" transform="translate(-66.136 -222.607)" fill="#9ca0af"/>
        <rect id="Rectángulo_403683" data-name="Rectángulo 403683" width="4.772" height="2.511" transform="translate(4.295 36.626) rotate(-45)" fill="#9ca0af"/>
        <rect id="Rectángulo_403684" data-name="Rectángulo 403684" width="4.772" height="2.51" transform="translate(1.59 33.921) rotate(-45)" fill="#9ca0af"/>
        <rect id="Rectángulo_403685" data-name="Rectángulo 403685" width="4.772" height="2.511" transform="translate(5.894 29.616) rotate(-45)" fill="#9ca0af"/>
        <rect id="Rectángulo_403686" data-name="Rectángulo 403686" width="4.772" height="2.511" transform="translate(10.2 25.31) rotate(-45)" fill="#9ca0af"/>
        <path id="Trazado_887803" data-name="Trazado 887803" d="M195.784,90.406l-3.373,3.375L190.635,92l3.375-3.375Z" transform="translate(-168.698 -78.431)" fill="#9ca0af"/>
        <rect id="Rectángulo_403687" data-name="Rectángulo 403687" width="4.772" height="2.511" transform="translate(26.242 9.268) rotate(-45)" fill="#9ca0af"/>
        <rect id="Rectángulo_403688" data-name="Rectángulo 403688" width="4.772" height="2.511" transform="translate(30.548 4.962) rotate(-45)" fill="#9ca0af"/>
        <path id="Trazado_887804" data-name="Trazado 887804" d="M125.155,119.063a1.018,1.018,0,0,1-.3.726l-1.56,1.56,0,0s0,0,0,0l-1.917,1.917s0,0,0,0,0,0,0,0l-1.561,1.56a1.026,1.026,0,0,1-1.45,0l-1.01-1.01-5.412-5.412-1.01-1.01a1.028,1.028,0,0,1,0-1.451l5.051-5.049a1.023,1.023,0,0,1,1.45,0l7.432,7.432a1.014,1.014,0,0,1,.3.724" transform="translate(-97.892 -97.878)" fill="#f5871f"/>
        <path id="Trazado_887805" data-name="Trazado 887805" d="M115.893,113.047l-2.828,2.828a2.106,2.106,0,0,1,2.828-2.828" transform="translate(-99.854 -99.839)" fill="#f5871f"/>
      </g>
    </g>
  </g>
</svg>
