<svg xmlns="http://www.w3.org/2000/svg" width="64" height="64" viewBox="0 0 64 64">
  <g id="Grupo_1101952" data-name="Grupo 1101952" transform="translate(-525 -7803)">
    <circle id="Elipse_11532" data-name="Elipse 11532" cx="32" cy="32" r="32" transform="translate(525 7803)" fill="#f7eefe"/>
    <g id="reshot-icon-handheld-3d-scanner-GZHF27VYRJ" transform="translate(525.71 7853.933) rotate(-90)">
      <path id="Trazado_887859" data-name="Trazado 887859" d="M54.893,49.869v7.387l-4.017,0V48.265Z" transform="translate(-38.147 -32.273)" fill="#7c7b7a"/>
      <path id="Trazado_887860" data-name="Trazado 887860" d="M50.876,160.2h4.017v7.493l-4.017,1.6Z" transform="translate(-38.147 -122.64)" fill="#7c7b7a"/>
      <path id="Trazado_887861" data-name="Trazado 887861" d="M131.489,13.687V53.061a2.9,2.9,0,0,1-2.9,2.9h-1.383V42.41L125.059,41.4V25.352l2.152-1.013V10.792h1.383A2.9,2.9,0,0,1,131.489,13.687Z" transform="translate(-98.038 -2.02)" fill="#72c2e9"/>
      <path id="Trazado_887862" data-name="Trazado 887862" d="M61.688,24.338V10.792H46.794a2.9,2.9,0,0,0-2.9,2.9v3.133a.965.965,0,0,0,.607.9l.736.294,4.017,1.6L53.232,21.2a1.93,1.93,0,0,1,1.215,1.793v20.7a1.93,1.93,0,0,1-1.215,1.793L49.259,47.07l-4.017,1.6-.736.294a.965.965,0,0,0-.607.9v3.2a2.9,2.9,0,0,0,2.9,2.9H61.688V42.41L59.536,41.4V25.352Z" transform="translate(-32.514 -2.02)" fill="#afafaf"/>
      <path id="Trazado_887863" data-name="Trazado 887863" d="M114.172,61.193a.482.482,0,0,1-.482-.482v-.877a.482.482,0,1,1,.963,0v.877A.482.482,0,0,1,114.172,61.193Zm0-2.8a.482.482,0,0,1-.482-.482V50.941l-1.876-.883a.481.481,0,0,1-.276-.436V30.883a.482.482,0,0,1,.276-.436l1.876-.883v-9.77a.482.482,0,1,1,.963,0V29.869a.482.482,0,0,1-.276.436l-1.876.883V49.317l1.876.883a.481.481,0,0,1,.276.436v7.273A.482.482,0,0,1,114.172,58.39Z" transform="translate(-87.122 -8.898)" fill="#efefef"/>
      <path id="Trazado_887864" data-name="Trazado 887864" d="M6.124,77.547h1.33l1.407-3.017A1.955,1.955,0,1,1,12.4,76.183l-.637,1.365,7,0a2.729,2.729,0,0,1,2.727,2.729V87.4a2.729,2.729,0,0,1-2.729,2.729L6.124,90.119V77.547Z" transform="translate(-2.018 -52.566)" fill="#feb69f"/>
      <circle id="Elipse_11539" data-name="Elipse 11539" cx="0.482" cy="0.482" r="0.482" transform="translate(32.969 18.893)"/>
      <path id="Trazado_887865" data-name="Trazado 887865" d="M139.245,97.441v10.934a.482.482,0,0,0,.963,0V97.441a.482.482,0,1,0-.963,0Z" transform="translate(-109.49 -71.585)"/>
      <path id="Trazado_887866" data-name="Trazado 887866" d="M78.551,193.019a.481.481,0,1,0,.626.268A.488.488,0,0,0,78.551,193.019Z" transform="translate(-60.246 -149.111)"/>
      <path id="Trazado_887867" data-name="Trazado 887867" d="M16.746,37.076,4.107,37.07h0a.482.482,0,0,0,0,.963l8.141,0v8.289l-.435.173a1.441,1.441,0,0,0-.909,1.345v3.2a3.382,3.382,0,0,0,3.377,3.377H30.557a3.381,3.381,0,0,0,3.376-3.377V21.3a.482.482,0,1,0-.963,0v29.74a2.424,2.424,0,0,1-2.412,2.414h-.9V40.39a.482.482,0,0,0-.277-.435L27.5,39.071V23.638l1.875-.884a.482.482,0,0,0,.277-.435V9.253h.9a2.422,2.422,0,0,1,2.412,2.414v5.78a.482.482,0,0,0,.963,0v-5.78A3.381,3.381,0,0,0,30.557,8.29H14.28A3.382,3.382,0,0,0,10.9,11.667V14.8a1.441,1.441,0,0,0,.909,1.345l.435.174V24.5h-1.74l.317-.679a2.437,2.437,0,1,0-4.417-2.06L5.13,24.5H4.107a.482.482,0,1,0,0,.963h1.33a.482.482,0,0,0,.437-.278L7.28,22.168a1.473,1.473,0,1,1,2.671,1.244l-.637,1.365a.482.482,0,0,0,.436.686l6.992,0h.005a2.249,2.249,0,0,1,2.246,2.248v1.065H11.706a.482.482,0,0,0,0,.963h7.287V32.8H11.706a.482.482,0,1,0,0,.963h7.287v1.064A2.25,2.25,0,0,1,16.746,37.076Zm-3.535.963h3.053v6.684L13.21,45.942Zm3.053-20.117V24.5H13.21V16.7Zm.963,6.619V18.306l3.313,1.322a1.441,1.441,0,0,1,.911,1.345v20.7a1.443,1.443,0,0,1-.911,1.345l-.445.177a.483.483,0,0,0-.27.626.49.49,0,0,0,.626.27l.445-.177a2.418,2.418,0,0,0,1.518-2.241v-20.7A2.412,2.412,0,0,0,20.9,18.735l-8.726-3.485a.479.479,0,0,1-.3-.449V11.667A2.422,2.422,0,0,1,14.28,9.253H28.692V22.012l-1.877.884a.483.483,0,0,0-.276.435V39.377a.483.483,0,0,0,.276.435l1.877.884V53.455H14.28a2.422,2.422,0,0,1-2.414-2.414v-3.2a.481.481,0,0,1,.3-.449L12.9,47.1l.006,0,4.017-1.6a.482.482,0,0,0,.3-.447V38a3.213,3.213,0,0,0,2.729-3.171V27.712A3.213,3.213,0,0,0,17.227,24.541Z"/>
    </g>
  </g>
</svg>
