<svg xmlns="http://www.w3.org/2000/svg" width="64" height="64" viewBox="0 0 64 64">
  <g id="Grupo_1101949" data-name="Grupo 1101949" transform="translate(-841 -7974)">
    <g id="Grupo_1101914" data-name="Grupo 1101914" transform="translate(0 171)">
      <circle id="Elipse_11533" data-name="Elipse 11533" cx="32" cy="32" r="32" transform="translate(841 7803)" fill="#f7eefe"/>
    </g>
    <g id="reshot-icon-database-JVAEGXSWMP" transform="translate(798.315 7932.51)">
      <g id="Grupo_1101919" data-name="Grupo 1101919" transform="translate(59.39 79.532)">
        <path id="Trazado_887891" data-name="Trazado 887891" d="M91.956,166.154H62.608a.923.923,0,0,1-.923-.923v-6.6a.923.923,0,0,1,.923-.923H91.956a.923.923,0,0,1,.923.923v6.6A.923.923,0,0,1,91.956,166.154Z" transform="translate(-61.685 -157.709)" fill="#d5e6f7"/>
      </g>
      <g id="Grupo_1101920" data-name="Grupo 1101920" transform="translate(59.39 67.864)">
        <path id="Trazado_887892" data-name="Trazado 887892" d="M91.956,116.545H62.608a.923.923,0,0,1-.923-.923v-6.6a.923.923,0,0,1,.923-.923H91.956a.923.923,0,0,1,.923.923v6.6A.923.923,0,0,1,91.956,116.545Z" transform="translate(-61.685 -108.1)" fill="#d5e6f7"/>
      </g>
      <g id="Grupo_1101921" data-name="Grupo 1101921" transform="translate(59.39 56.195)">
        <path id="Trazado_887893" data-name="Trazado 887893" d="M91.956,66.934H62.608a.923.923,0,0,1-.923-.923v-6.6a.923.923,0,0,1,.923-.923H91.956a.923.923,0,0,1,.923.923v6.6A.923.923,0,0,1,91.956,66.934Z" transform="translate(-61.685 -58.489)" fill="#d5e6f7"/>
      </g>
      <g id="Grupo_1101922" data-name="Grupo 1101922" transform="translate(86.157 56.195)">
        <path id="Trazado_887894" data-name="Trazado 887894" d="M179,58.489h-3.5a.923.923,0,0,1,.923.923v6.6a.923.923,0,0,1-.923.923H179a.923.923,0,0,0,.923-.923v-6.6A.923.923,0,0,0,179,58.489Z" transform="translate(-175.493 -58.489)" fill="#a0d1f2"/>
      </g>
      <g id="Grupo_1101923" data-name="Grupo 1101923" transform="translate(86.157 67.864)">
        <path id="Trazado_887895" data-name="Trazado 887895" d="M179,108.1h-3.5a.923.923,0,0,1,.923.923v6.6a.923.923,0,0,1-.923.923H179a.923.923,0,0,0,.923-.923v-6.6A.923.923,0,0,0,179,108.1Z" transform="translate(-175.493 -108.1)" fill="#a0d1f2"/>
      </g>
      <g id="Grupo_1101924" data-name="Grupo 1101924" transform="translate(86.157 79.532)">
        <path id="Trazado_887896" data-name="Trazado 887896" d="M179,157.71h-3.5a.923.923,0,0,1,.923.923v6.6a.923.923,0,0,1-.923.923H179a.923.923,0,0,0,.923-.923v-6.6A.923.923,0,0,0,179,157.71Z" transform="translate(-175.493 -157.71)" fill="#a0d1f2"/>
      </g>
      <g id="Grupo_1101925" data-name="Grupo 1101925" transform="translate(62.885 58.959)">
        <circle id="Elipse_11544" data-name="Elipse 11544" cx="1.458" cy="1.458" r="1.458" transform="translate(0 0)" fill="#fd919f"/>
      </g>
      <g id="Grupo_1101926" data-name="Grupo 1101926" transform="translate(62.885 70.627)">
        <circle id="Elipse_11545" data-name="Elipse 11545" cx="1.458" cy="1.458" r="1.458" transform="translate(0 0)" fill="#fd919f"/>
      </g>
      <g id="Grupo_1101927" data-name="Grupo 1101927" transform="translate(62.885 82.296)">
        <circle id="Elipse_11546" data-name="Elipse 11546" cx="1.458" cy="1.458" r="1.458" fill="#fd919f"/>
      </g>
      <g id="Grupo_1101928" data-name="Grupo 1101928" transform="translate(70.434 58.959)">
        <path id="Trazado_887897" data-name="Trazado 887897" d="M123.839,73.157H110.1a1.459,1.459,0,0,1-1.458-1.458h0A1.458,1.458,0,0,1,110.1,70.24h13.738A1.459,1.459,0,0,1,125.3,71.7h0A1.459,1.459,0,0,1,123.839,73.157Z" transform="translate(-108.643 -70.24)" fill="#fd919f"/>
      </g>
      <g id="Grupo_1101929" data-name="Grupo 1101929" transform="translate(70.434 70.627)">
        <path id="Trazado_887898" data-name="Trazado 887898" d="M123.839,122.768H110.1a1.459,1.459,0,0,1-1.458-1.458h0a1.459,1.459,0,0,1,1.458-1.458h13.738a1.459,1.459,0,0,1,1.458,1.458h0A1.459,1.459,0,0,1,123.839,122.768Z" transform="translate(-108.643 -119.851)" fill="#fd919f"/>
      </g>
      <g id="Grupo_1101930" data-name="Grupo 1101930" transform="translate(70.434 82.296)">
        <path id="Trazado_887899" data-name="Trazado 887899" d="M123.839,172.378H110.1a1.459,1.459,0,0,1-1.458-1.458h0a1.458,1.458,0,0,1,1.458-1.458h13.738a1.459,1.459,0,0,1,1.458,1.458h0A1.459,1.459,0,0,1,123.839,172.378Z" transform="translate(-108.643 -169.461)" fill="#fd919f"/>
      </g>
      <g id="Grupo_1101931" data-name="Grupo 1101931" transform="translate(62.885 64.64)">
        <rect id="Rectángulo_403715" data-name="Rectángulo 403715" width="24.203" height="3.223" fill="#7babf3"/>
      </g>
      <g id="Grupo_1101932" data-name="Grupo 1101932" transform="translate(62.885 76.308)">
        <rect id="Rectángulo_403716" data-name="Rectángulo 403716" width="24.203" height="3.223" fill="#7babf3"/>
      </g>
      <g id="Grupo_1101933" data-name="Grupo 1101933" transform="translate(62.885 87.977)">
        <rect id="Rectángulo_403717" data-name="Rectángulo 403717" width="6.065" height="2.798" fill="#7babf3"/>
      </g>
      <g id="Grupo_1101934" data-name="Grupo 1101934" transform="translate(81.023 87.977)">
        <rect id="Rectángulo_403718" data-name="Rectángulo 403718" width="6.065" height="2.798" transform="translate(0)" fill="#7babf3"/>
      </g>
      <g id="Grupo_1101935" data-name="Grupo 1101935" transform="translate(58.684 55.49)">
        <path id="Trazado_887900" data-name="Trazado 887900" d="M89.661,65.346H60.313a1.631,1.631,0,0,1-1.629-1.629v-6.6a1.63,1.63,0,0,1,1.629-1.628H89.661a1.631,1.631,0,0,1,1.629,1.628v6.6A1.631,1.631,0,0,1,89.661,65.346ZM60.313,56.9a.218.218,0,0,0-.218.217v6.6a.218.218,0,0,0,.218.218H89.661a.218.218,0,0,0,.218-.218v-6.6a.218.218,0,0,0-.218-.217H60.313Z" transform="translate(-58.684 -55.49)"/>
      </g>
      <g id="Grupo_1101936" data-name="Grupo 1101936" transform="translate(58.684 78.826)">
        <path id="Trazado_887901" data-name="Trazado 887901" d="M89.661,164.565H60.313a1.631,1.631,0,0,1-1.629-1.629v-6.6a1.631,1.631,0,0,1,1.629-1.629H89.661a1.631,1.631,0,0,1,1.629,1.629v6.6A1.63,1.63,0,0,1,89.661,164.565ZM60.313,156.12a.218.218,0,0,0-.218.218v6.6a.218.218,0,0,0,.218.218H89.661a.218.218,0,0,0,.218-.218v-6.6a.218.218,0,0,0-.218-.218Z" transform="translate(-58.684 -154.709)" fill="#212121"/>
      </g>
      <g id="Grupo_1101937" data-name="Grupo 1101937" transform="translate(62.18 63.935)">
        <path id="Trazado_887902" data-name="Trazado 887902" d="M98.456,96.03h-24.2a.706.706,0,0,1-.706-.706V92.1a.706.706,0,0,1,.706-.706h24.2a.706.706,0,0,1,.706.706v3.223A.706.706,0,0,1,98.456,96.03Zm-23.5-1.411H97.75V92.806H74.958Z" transform="translate(-73.547 -91.395)"/>
      </g>
      <g id="Grupo_1101938" data-name="Grupo 1101938" transform="translate(62.18 75.603)">
        <path id="Trazado_887903" data-name="Trazado 887903" d="M98.456,145.64h-24.2a.706.706,0,0,1-.706-.706v-3.223a.706.706,0,0,1,.706-.706h24.2a.706.706,0,0,1,.706.706v3.223A.706.706,0,0,1,98.456,145.64Zm-23.5-1.411H97.75v-1.812H74.958Z" transform="translate(-73.547 -141.005)" fill="#242424"/>
      </g>
      <g id="Grupo_1101939" data-name="Grupo 1101939" transform="translate(58.684 67.158)">
        <path id="Trazado_887904" data-name="Trazado 887904" d="M89.661,114.956H60.313a1.631,1.631,0,0,1-1.629-1.629v-6.6a1.63,1.63,0,0,1,1.629-1.628H89.661a1.631,1.631,0,0,1,1.629,1.628v6.6A1.631,1.631,0,0,1,89.661,114.956Zm-29.348-8.445a.218.218,0,0,0-.218.217v6.6a.218.218,0,0,0,.218.218H89.661a.218.218,0,0,0,.218-.218v-6.6a.218.218,0,0,0-.218-.217Z" transform="translate(-58.684 -105.1)"/>
      </g>
      <g id="Grupo_1101940" data-name="Grupo 1101940" transform="translate(62.18 58.254)">
        <path id="Trazado_887905" data-name="Trazado 887905" d="M75.711,71.569a2.164,2.164,0,1,1,2.164-2.164A2.166,2.166,0,0,1,75.711,71.569Zm0-2.917a.753.753,0,1,0,.753.753A.754.754,0,0,0,75.711,68.652Z" transform="translate(-73.547 -67.241)" fill="#504774"/>
      </g>
      <g id="Grupo_1101941" data-name="Grupo 1101941" transform="translate(62.18 69.922)">
        <path id="Trazado_887906" data-name="Trazado 887906" d="M75.711,121.179a2.164,2.164,0,1,1,2.164-2.164A2.166,2.166,0,0,1,75.711,121.179Zm0-2.917a.753.753,0,1,0,.753.753A.754.754,0,0,0,75.711,118.262Z" transform="translate(-73.547 -116.851)" fill="#504774"/>
      </g>
      <g id="Grupo_1101942" data-name="Grupo 1101942" transform="translate(62.18 81.59)">
        <path id="Trazado_887907" data-name="Trazado 887907" d="M75.711,170.789a2.164,2.164,0,1,1,2.164-2.164A2.166,2.166,0,0,1,75.711,170.789Zm0-2.917a.753.753,0,1,0,.753.753A.754.754,0,0,0,75.711,167.872Z" transform="translate(-73.547 -166.461)" fill="#504774"/>
      </g>
      <g id="Grupo_1101943" data-name="Grupo 1101943" transform="translate(69.729 58.254)">
        <path id="Trazado_887908" data-name="Trazado 887908" d="M121.545,71.569H107.807a2.164,2.164,0,0,1,0-4.328h13.738a2.164,2.164,0,0,1,0,4.328Zm-13.738-2.917a.753.753,0,0,0,0,1.505h13.738a.753.753,0,0,0,0-1.505Z" transform="translate(-105.643 -67.241)" fill="#504774"/>
      </g>
      <g id="Grupo_1101944" data-name="Grupo 1101944" transform="translate(69.729 69.922)">
        <path id="Trazado_887909" data-name="Trazado 887909" d="M121.545,121.179H107.807a2.164,2.164,0,0,1,0-4.328h13.738a2.164,2.164,0,0,1,0,4.328Zm-13.738-2.917a.753.753,0,0,0,0,1.506h13.738a.753.753,0,0,0,0-1.506Z" transform="translate(-105.643 -116.851)" fill="#504774"/>
      </g>
      <g id="Grupo_1101945" data-name="Grupo 1101945" transform="translate(69.729 81.59)">
        <path id="Trazado_887910" data-name="Trazado 887910" d="M121.545,170.789H107.807a2.164,2.164,0,0,1,0-4.328h13.738a2.164,2.164,0,0,1,0,4.328Zm-13.738-2.917a.753.753,0,0,0,0,1.506h13.738a.753.753,0,0,0,0-1.506Z" transform="translate(-105.643 -166.461)" fill="#504774"/>
      </g>
      <g id="Grupo_1101946" data-name="Grupo 1101946" transform="translate(62.18 87.271)">
        <path id="Trazado_887911" data-name="Trazado 887911" d="M80.318,194.824H74.253a.706.706,0,0,1-.706-.706v-2.8a.706.706,0,0,1,.706-.706h6.065a.706.706,0,0,1,.706.706v2.8A.706.706,0,0,1,80.318,194.824Zm-5.36-1.411h4.654v-1.387H74.958Z" transform="translate(-73.547 -190.615)" fill="#313031"/>
      </g>
      <g id="Grupo_1101947" data-name="Grupo 1101947" transform="translate(80.317 87.271)">
        <path id="Trazado_887912" data-name="Trazado 887912" d="M157.435,194.824H151.37a.706.706,0,0,1-.706-.706v-2.8a.706.706,0,0,1,.706-.706h6.066a.706.706,0,0,1,.706.706v2.8A.706.706,0,0,1,157.435,194.824Zm-5.36-1.411h4.654v-1.387h-4.654Z" transform="translate(-150.664 -190.615)" fill="#313031"/>
      </g>
    </g>
  </g>
</svg>
