<svg xmlns="http://www.w3.org/2000/svg" width="64" height="64" viewBox="0 0 64 64">
  <g id="Grupo_1101948" data-name="Grupo 1101948" transform="translate(-1156 -7974)">
    <g id="Grupo_1101915" data-name="Grupo 1101915" transform="translate(315 171)">
      <circle id="Elipse_11533" data-name="Elipse 11533" cx="32" cy="32" r="32" transform="translate(841 7803)" fill="#f7eefe"/>
    </g>
    <g id="Maintenance_setting" data-name="Maintenance setting" transform="translate(1166.595 7985.403)">
      <path id="Trazado_887913" data-name="Trazado 887913" d="M39.541,7.808v17.77H4V7.808A3.808,3.808,0,0,1,6.539,4.222,3.681,3.681,0,0,1,7.808,4H35.733A3.808,3.808,0,0,1,39.541,7.808Z" transform="translate(-0.365 -0.365)" fill="#ccd3eb"/>
      <path id="Trazado_887914" data-name="Trazado 887914" d="M37.637,7.808v17.77H4V7.808A3.808,3.808,0,0,1,6.539,4.222,3.681,3.681,0,0,1,7.808,4H33.829A3.808,3.808,0,0,1,37.637,7.808Z" transform="translate(-0.365 -0.365)" fill="#f5f7ff"/>
      <path id="Trazado_887915" data-name="Trazado 887915" d="M39.541,37v2.539a3.808,3.808,0,0,1-3.808,3.808H7.808A3.808,3.808,0,0,1,4,39.539V37Z" transform="translate(-0.365 -12.422)" fill="#96a1c3"/>
      <path id="Trazado_887916" data-name="Trazado 887916" d="M34.771,54.616H21.71L24.325,47h7.832Z" transform="translate(-6.836 -16.075)" fill="#647499"/>
      <path id="Trazado_887917" data-name="Trazado 887917" d="M34.866,60.269H19.635a.635.635,0,1,1,0-1.269H34.866a.635.635,0,1,1,0,1.269Z" transform="translate(-5.846 -20.459)" fill="#0668cb"/>
      <path id="Trazado_887918" data-name="Trazado 887918" d="M19.635,20.443A.635.635,0,0,1,19,19.808V16.635a.635.635,0,0,1,1.269,0v3.173A.635.635,0,0,1,19.635,20.443Z" transform="translate(-5.846 -4.749)" fill="#b4cde1"/>
      <rect id="Rectángulo_403719" data-name="Rectángulo 403719" width="2" height="2" rx="1" transform="translate(13 14.81)" fill="#96a1c3"/>
      <path id="Trazado_887919" data-name="Trazado 887919" d="M19.269,21v1.269a.635.635,0,0,1-.635.635H18V21.635A.635.635,0,0,1,18.635,21Z" transform="translate(-5.48 -6.576)" fill="#ccd3eb"/>
      <path id="Trazado_887920" data-name="Trazado 887920" d="M20.808,25.635v3.072a2.031,2.031,0,0,1-1.269,1.9,1.669,1.669,0,0,1-.539.114,1.9,1.9,0,0,1-1.523-.635A1.853,1.853,0,0,1,17,28.808V25.635A.635.635,0,0,1,17.634,25h2.539A.635.635,0,0,1,20.808,25.635Z" transform="translate(-5.115 -8.038)" fill="#96a1c3"/>
      <path id="Trazado_887921" data-name="Trazado 887921" d="M19.538,25v3.072a2.031,2.031,0,0,1-1.269,1.9,1.669,1.669,0,0,1-.539.114,1.117,1.117,0,0,1-.254,0A1.853,1.853,0,0,1,17,28.808V25.635A.635.635,0,0,1,17.634,25Z" transform="translate(-5.115 -8.038)" fill="#ccd3eb"/>
      <path id="Trazado_887922" data-name="Trazado 887922" d="M41.6,16.347H40.67a.635.635,0,0,1-.635-.463,6.189,6.189,0,0,0-.343-.895.635.635,0,0,1,.1-.749l.635-.635a.635.635,0,0,0,0-.9l-.895-.895a.635.635,0,0,0-.9,0L38,12.443a.635.635,0,0,1-.749.1,6.188,6.188,0,0,0-.895-.374.635.635,0,0,1-.463-.635v-.9A.635.635,0,0,0,35.257,10H33.981a.635.635,0,0,0-.635.635v.927a.635.635,0,0,1-.463.635,6.188,6.188,0,0,0-.895.374.635.635,0,0,1-.749-.1l-.635-.635a.635.635,0,0,0-.9,0l-.895.895a.635.635,0,0,0,0,.9l.635.635a.635.635,0,0,1,.1.724,6.188,6.188,0,0,0-.374.895.635.635,0,0,1-.635.463h-.895a.635.635,0,0,0-.635.635v1.269a.635.635,0,0,0,.635.635h.927a.635.635,0,0,1,.635.463,6.187,6.187,0,0,0,.343.895.635.635,0,0,1-.1.749l-.635.635a.635.635,0,0,0,0,.9l.895.895a.635.635,0,0,0,.9,0l.635-.635a.635.635,0,0,1,.755-.1,6.188,6.188,0,0,0,.895.374.635.635,0,0,1,.463.635V24.6a.635.635,0,0,0,.635.635h1.269a.635.635,0,0,0,.635-.635V23.67a.635.635,0,0,1,.463-.635,6.188,6.188,0,0,0,.895-.343.635.635,0,0,1,.749.1l.635.635a.635.635,0,0,0,.9,0l.895-.895a.635.635,0,0,0,0-.9L39.788,21a.635.635,0,0,1-.1-.755,6.188,6.188,0,0,0,.374-.895.635.635,0,0,1,.635-.463H41.6a.635.635,0,0,0,.635-.635V16.981A.635.635,0,0,0,41.6,16.347Zm-4.754,3.662c-3.338,2.431-7.051-1.269-4.62-4.62a.679.679,0,0,1,.165-.165c3.338-2.431,7.051,1.269,4.62,4.62a.679.679,0,0,1-.165.165Z" transform="translate(-8.768 -2.557)" fill="#0074ff"/>
      <path id="Trazado_887923" data-name="Trazado 887923" d="M20.808,10.635V11.9a1.9,1.9,0,0,1-.482,1.269l-.076.083a1.9,1.9,0,0,1-1.485.552,1.809,1.809,0,0,1-.5-.108A2.018,2.018,0,0,1,17,11.8V10.635A.635.635,0,0,1,17.635,10h2.539a.635.635,0,0,1,.635.635Z" transform="translate(-5.115 -2.557)" fill="#96a1c3"/>
      <path id="Trazado_887924" data-name="Trazado 887924" d="M19.538,10.635V11.9a1.9,1.9,0,0,1-.482,1.269l-.076.083a1.8,1.8,0,0,1-.711.444A2.018,2.018,0,0,1,17,11.8V10.635A.635.635,0,0,1,17.635,10H18.9a.635.635,0,0,1,.635.635Z" transform="translate(-5.115 -2.557)" fill="#ccd3eb"/>
      <path id="Trazado_887925" data-name="Trazado 887925" d="M34.866,60.269H19.635a.635.635,0,1,1,0-1.269H34.866a.635.635,0,1,1,0,1.269Z" transform="translate(-5.846 -20.459)" fill="#033c59"/>
      <path id="Trazado_887926" data-name="Trazado 887926" d="M31.9,42H30.635a.635.635,0,0,0,0,1.269H31.9A.635.635,0,0,0,31.9,42Z" transform="translate(-9.864 -14.248)" fill="#033c59"/>
      <path id="Trazado_887927" data-name="Trazado 887927" d="M35.367,3H7.443A4.443,4.443,0,0,0,3,7.443V27.752a4.443,4.443,0,0,0,4.443,4.443H16.6l-2.323,6.778a.633.633,0,0,0,.6.838H27.936a.633.633,0,0,0,.6-.838l-2.323-6.778h9.158a4.443,4.443,0,0,0,4.443-4.443V7.443A4.443,4.443,0,0,0,35.367,3ZM7.443,4.269H35.367a3.173,3.173,0,0,1,3.173,3.173V24.578H4.269V7.443A3.173,3.173,0,0,1,7.443,4.269Zm19.6,34.271H15.763l2.177-6.347h6.93Zm8.32-7.616H7.443a3.173,3.173,0,0,1-3.173-3.173v-1.9H38.541v1.9a3.173,3.173,0,0,1-3.173,3.173Z" transform="translate(0)" fill="#033c59"/>
      <path id="Trazado_887928" data-name="Trazado 887928" d="M18.539,25.5a2.539,2.539,0,0,0,2.539-2.539V19.154a.635.635,0,0,0-.635-.635v-1.9a.635.635,0,0,0-.635-.635h-.635V13.988a2.539,2.539,0,0,0,1.9-2.45v-1.9A.635.635,0,0,0,20.443,9H16.635A.635.635,0,0,0,16,9.635v1.9a2.539,2.539,0,0,0,1.9,2.45v1.993h-.635a.635.635,0,0,0-.635.635v1.9a.635.635,0,0,0-.635.635v3.808A2.539,2.539,0,0,0,18.539,25.5ZM17.269,11.539V10.269h2.539v1.269a1.269,1.269,0,1,1-2.539,0Zm2.539,11.424a1.269,1.269,0,1,1-2.539,0V19.789h2.539Zm-1.9-5.712h1.269V18.52H17.9Z" transform="translate(-4.749 -2.192)" fill="#033c59"/>
      <path id="Trazado_887929" data-name="Trazado 887929" d="M27.269,19.154H28.2a6.613,6.613,0,0,0,.425,1.028l-.635.635a1.269,1.269,0,0,0,0,1.8l.895.895a1.269,1.269,0,0,0,1.8,0l.635-.635a6.613,6.613,0,0,0,1.028.425v.927A1.269,1.269,0,0,0,33.616,25.5h1.269a1.269,1.269,0,0,0,1.269-1.269v-.927a6.613,6.613,0,0,0,1.028-.425l.635.635a1.269,1.269,0,0,0,1.8,0l.895-.895a1.269,1.269,0,0,0,0-1.8l-.635-.635a6.613,6.613,0,0,0,.425-1.028h.927A1.269,1.269,0,0,0,42.5,17.885V16.616a1.269,1.269,0,0,0-1.269-1.269h-.927a6.613,6.613,0,0,0-.425-1.028l.635-.635a1.269,1.269,0,0,0,0-1.8l-.876-.914a1.269,1.269,0,0,0-1.8,0L37.2,11.6a6.613,6.613,0,0,0-1.047-.406v-.927A1.269,1.269,0,0,0,34.885,9H33.616a1.269,1.269,0,0,0-1.269,1.269V11.2a6.613,6.613,0,0,0-1.028.425l-.635-.635a1.269,1.269,0,0,0-1.8,0l-.914.876a1.269,1.269,0,0,0,0,1.8l.635.635a6.613,6.613,0,0,0-.406,1.047h-.927A1.269,1.269,0,0,0,26,16.616v1.269A1.269,1.269,0,0,0,27.269,19.154Zm0-2.539h1.409a.635.635,0,0,0,.228-.044l.07-.038.121-.083a.33.33,0,0,0,.063-.07l.076-.114.038-.083v-.063a5.217,5.217,0,0,1,.635-1.574.26.26,0,0,1,0-.051.679.679,0,0,0,.044-.121.362.362,0,0,0,0-.114.381.381,0,0,0,0-.121,1.028,1.028,0,0,0,0-.121.489.489,0,0,0-.044-.1.419.419,0,0,0-.076-.108.127.127,0,0,0,0-.051l-1-1,.895-.895,1,1h0a.685.685,0,0,0,.184.127h.051a.724.724,0,0,0,.209.038h0a.59.59,0,0,0,.209-.044h.127a5.217,5.217,0,0,1,1.574-.635.121.121,0,0,0,.051,0l.121-.051.1-.07a.546.546,0,0,0,.083-.089l.07-.1a.806.806,0,0,0,.038-.114.412.412,0,0,0,0-.127.152.152,0,0,0,0-.051V10.269h1.269v1.409a.152.152,0,0,0,0,.051.413.413,0,0,0,0,.127.806.806,0,0,0,.038.114l.07.1a.546.546,0,0,0,.083.089l.1.07.121.051a.121.121,0,0,0,.051,0,5.217,5.217,0,0,1,1.574.635h.127a.59.59,0,0,0,.209.044h0a.724.724,0,0,0,.209-.038h.051a.686.686,0,0,0,.184-.127h0l1-1,.895.895-.876,1.073a.355.355,0,0,0,0,.051.635.635,0,0,0-.07.108.489.489,0,0,0-.044.1,1.029,1.029,0,0,0,0,.121.381.381,0,0,0,0,.121.362.362,0,0,0,0,.114.679.679,0,0,0,.044.121.26.26,0,0,1,0,.051,5.217,5.217,0,0,1,.635,1.574v.063l.038.083a.888.888,0,0,0,.076.114.33.33,0,0,0,.063.07l.121.083.07.038a.635.635,0,0,0,.228.044h1.434v1.269H39.766a.457.457,0,0,0-.121,0,.425.425,0,0,0-.114.044.413.413,0,0,0-.1.063.546.546,0,0,0-.089.083l-.063.1a.419.419,0,0,0-.057.121.121.121,0,0,0,0,.051,5.217,5.217,0,0,1-.635,1.574.26.26,0,0,1,0,.051.679.679,0,0,0-.044.121.362.362,0,0,0,0,.114.381.381,0,0,0,0,.121,1.027,1.027,0,0,0,0,.121.489.489,0,0,0,.044.1.634.634,0,0,0,.07.108.355.355,0,0,0,0,.051l1,1-.895.895-1.022-.958L37.69,21.6l-.1-.07-.114-.044H37.36a.387.387,0,0,0-.121,0,.362.362,0,0,0-.114,0L37,21.534h-.051a5.217,5.217,0,0,1-1.574.635.121.121,0,0,0-.051,0l-.121.051-.1.07a.546.546,0,0,0-.083.089l-.07.1a.806.806,0,0,0-.038.114.413.413,0,0,0,0,.127.152.152,0,0,0,0,.051v1.466H33.616V22.823a.152.152,0,0,0,0-.051.413.413,0,0,0,0-.127.807.807,0,0,0-.038-.114l-.07-.1a.546.546,0,0,0-.083-.089l-.1-.07-.121-.051a.121.121,0,0,0-.051,0,5.217,5.217,0,0,1-1.574-.635h-.051l-.121-.044a.362.362,0,0,0-.114,0,.387.387,0,0,0-.121,0h-.114l-.114.044-.1.07-.051.032-1,1-.895-.895,1-1a.127.127,0,0,0,0-.051.419.419,0,0,0,.076-.108.489.489,0,0,0,.044-.1,1.028,1.028,0,0,0,0-.121.381.381,0,0,0,0-.121.362.362,0,0,0,0-.114.679.679,0,0,0-.044-.121.26.26,0,0,1,0-.051,5.217,5.217,0,0,1-.635-1.574.121.121,0,0,0,0-.051.685.685,0,0,0-.051-.121l-.121-.152a.546.546,0,0,0-.089-.083.412.412,0,0,0-.1-.063.425.425,0,0,0-.114-.044.457.457,0,0,0-.121,0H27.269Z" transform="translate(-8.403 -2.192)" fill="#033c59"/>
      <path id="Trazado_887930" data-name="Trazado 887930" d="M35.466,18.063a2.494,2.494,0,0,1,1.841-.793A2.539,2.539,0,1,1,36.038,22a.634.634,0,0,0-.635,1.1,3.751,3.751,0,0,0,1.9.514,3.808,3.808,0,1,0-2.767-6.429.638.638,0,1,0,.927.876Z" transform="translate(-11.459 -4.749)" fill="#033c59"/>
      <path id="Trazado_887931" data-name="Trazado 887931" d="M33.73,23.025h.165a.635.635,0,0,0,.451-.774,2.291,2.291,0,0,1-.076-.616.635.635,0,1,0-1.269,0,3.694,3.694,0,0,0,.114.92A.635.635,0,0,0,33.73,23.025Z" transform="translate(-10.96 -6.576)" fill="#033c59"/>
    </g>
  </g>
</svg>
